<svg xmlns="http://www.w3.org/2000/svg" width="34" height="36" fill="none"><path fill="#5455F6" stroke="#5455F6" d="m33.493 32.998-.003-.018-.001-.018c-.026-.351-.377-.657-.818-.602-3.202.407-6.465.847-9.576 1.716a.72.72 0 0 0-.495.887c.12.395.538.617.91.51h.002c3.044-.86 6.28-1.283 9.377-1.674a.72.72 0 0 0 .604-.801ZM13.765 21.463c2.312-2.35 4.758-4.561 7.22-6.786l.673-.61c2.683-2.427 5.368-4.884 7.87-7.546l.008-.009a.715.715 0 0 1 1.008-.028l-16.78 14.979Zm0 0-.007.006m.007-.006-.007.006m0 0c-.268.263-.27.72.007 1.025a.774.774 0 0 0 1.063-.018c2.332-2.377 4.799-4.613 7.255-6.84.226-.205.45-.41.676-.613 2.684-2.436 5.34-4.877 7.812-7.513l.005-.006M13.758 21.47 30.576 7.504m0 0 .005-.005m-.005.005.005-.005m0 0c.279-.28.266-.732-.036-1.015l.036 1.015ZM3.404 1.267l-.232 4.62-.211 4.229v.024c0 .364-.325.686-.757.665l1.2-9.538Zm0 0v-.011m0 .011v-.011m0 0A.722.722 0 0 0 2.744.5a.76.76 0 0 0-.804.69l-.23 4.624-.211 4.216m1.905-8.775L1.5 10.03m0 0c.005.43.311.755.705.774L1.5 10.03Z"/></svg>