<svg xmlns="http://www.w3.org/2000/svg" width="332" height="380" fill="none"><g fill="#C0D2FB" clip-path="url(#a)"><path d="m325.127-89.949-20.026-5.366L302.15-84.3l-10.013-2.683-2.951 11.015-10.013-2.683-8.854 33.043 10.013 2.682-2.951 11.015 10.013 2.683-2.952 11.014 10.013 2.683-2.951 11.014 10.013 2.683-2.951 11.014 10.013 2.683-2.952 11.014 10.013 2.683 2.952-11.014 10.012 2.683 2.952-11.014 10.013 2.683 2.951-11.014L354.533.566l2.951-11.015 10.013 2.683 2.951-11.014 10.013 2.683 8.854-33.043-10.013-2.683 2.951-11.014-10.013-2.683 2.952-11.014-20.026-5.366-2.952 11.014-10.012-2.683-2.952 11.015-10.013-2.683 2.952-11.015-10.013-2.683 2.951-11.014Zm-2.951 11.014-2.952 11.015 10.013 2.683-2.951 11.014 10.013 2.683 2.951-11.014 10.013 2.683 2.951-11.015 20.026 5.366-2.951 11.014 10.013 2.683-8.854 33.043-10.013-2.683-2.951 11.014-10.013-2.683-2.951 11.015L334.507-4.8l-2.951 11.014-10.013-2.683-2.951 11.014-10.013-2.683L311.53.848l-10.013-2.683 2.951-11.014-10.013-2.683 2.951-11.015-10.012-2.682 2.951-11.015-10.013-2.683 8.854-33.042 10.013 2.683L302.15-84.3l20.026 5.365Zm-97.473 28.047-8.835-2.367-1.302 4.859-4.417-1.184-1.302 4.86-4.418-1.184-3.906 14.578 4.418 1.183-1.302 4.86 4.417 1.183-1.302 4.86 4.417 1.183-1.302 4.86 4.418 1.183-1.302 4.86 4.417 1.183-1.302 4.859 4.418 1.184 1.302-4.86 4.417 1.184 1.302-4.86 4.418 1.184 1.302-4.859 4.417 1.184 1.302-4.86 4.418 1.184 1.302-4.859 4.417 1.184 3.906-14.578-4.417-1.184 1.302-4.859-4.418-1.183 1.302-4.86-8.835-2.367-1.302 4.86-4.417-1.184-1.302 4.859-4.417-1.184 1.302-4.859-4.418-1.184 1.302-4.859Zm-1.302 4.86-1.302 4.859 4.418 1.183-1.303 4.86 4.418 1.183 1.302-4.86 4.417 1.184 1.302-4.859 8.835 2.368-1.302 4.859 4.418 1.183-3.906 14.578-4.418-1.184-1.302 4.86-4.417-1.184-1.302 4.86-4.418-1.184-1.302 4.859-4.417-1.184-1.302 4.86-4.418-1.184 1.302-4.86-4.417-1.183 1.302-4.86-4.418-1.183 1.302-4.86-4.417-1.183 1.302-4.86-4.417-1.183 3.906-14.577 4.417 1.183 1.302-4.859 8.835 2.367Zm-89.007 36.91 37.794 10.127-1.447 5.399L132.948-3.72l1.446-5.399Zm-11.573 43.193-5.399-1.447 10.126-37.794 5.4 1.447-10.127 37.794Zm37.794 10.127-1.447 5.399-37.794-10.127 1.447-5.399 37.794 10.127Zm0 0 5.399 1.447 10.127-37.794-5.4-1.447-10.126 37.794Zm-16.34-36.205-5.399-1.447-1.446 5.399 5.399 1.447 1.446-5.4Zm10.799 2.893 5.399 1.447-1.447 5.399-5.399-1.447 1.447-5.4Zm-17.838 12.58 1.446-5.399-5.399-1.446-1.446 5.399 5.399 1.447Zm16.197 4.34-1.447 5.4-16.197-4.34 1.447-5.4 16.197 4.34Zm0 0 5.399 1.447 1.447-5.399-5.399-1.447-1.447 5.4Zm74.904-11.757L201.342 8.82l-1.447 5.4-5.399-1.447-1.447 5.399-5.399-1.447-7.233 26.996 5.399 1.446-1.447 5.4 5.399 1.446-1.447 5.4 26.996 7.233 1.447-5.4 5.399 1.447 1.447-5.399 5.399 1.447 7.233-26.996-5.399-1.447 1.447-5.399-5.399-1.446 1.446-5.4Zm-1.446 5.4-1.447 5.399 5.399 1.447-7.233 26.995-5.399-1.447-1.447 5.4-26.996-7.234 1.447-5.399-5.399-1.447 7.233-26.995 5.399 1.446 1.447-5.399 26.996 7.234Zm-28.636 9.687 5.399 1.447-1.447 5.399 5.399 1.447-1.447 5.399-5.399-1.447 1.447-5.4-5.399-1.446 1.447-5.4Zm23.043.388-5.399-1.447-1.447 5.399-5.399-1.447-1.447 5.4 5.399 1.446 1.447-5.399 5.399 1.447 1.447-5.4Zm57.523-1.948-4.859-1.302-3.906 14.578 4.859 1.302 3.906-14.578Zm-9.114 34.015-4.859-1.302-3.906 14.578 4.859 1.302 3.906-14.578Zm25.122-6.289-1.302 4.86-14.578-3.907 1.302-4.86 14.578 3.907Zm-35.317-4.255 1.302-4.86-14.577-3.905-1.302 4.859 14.577 3.906Zm20.914-10.02 4.859 1.302-1.302 4.859-4.859-1.302 1.302-4.86Zm11.02-2.256-4.859-1.302-1.302 4.86 4.859 1.302 1.302-4.86Zm-25.598-1.65-4.859-1.303-1.302 4.86 4.859 1.302 1.302-4.86Zm-8.417-7.464 4.86 1.302-1.302 4.86-4.86-1.303 1.302-4.859Zm16.484 35.666 4.86 1.302-1.302 4.859 4.859 1.302 1.302-4.86-4.859-1.301 1.302-4.86-4.86-1.302-1.302 4.86Zm-19.436-5.209 1.302-4.859 4.859 1.302-1.302 4.86-4.859-1.303-1.302 4.86-4.86-1.302 1.302-4.86 4.86 1.302Zm76.834-18.471-8.835-2.367-1.302 4.859-4.417-1.184-1.302 4.86-4.417-1.184-3.907 14.577 4.418 1.184-1.302 4.86 4.417 1.183-1.302 4.86 4.418 1.183-1.302 4.859 4.417 1.184-1.302 4.859 4.418 1.184-1.302 4.859 4.417 1.183 1.302-4.859 4.418 1.184 1.302-4.86 4.417 1.184 1.302-4.859 4.418 1.184 1.302-4.86 4.417 1.184 1.302-4.86 4.418 1.184 3.906-14.577-4.418-1.184 1.302-4.859-4.417-1.184 1.302-4.859-8.835-2.367-1.302 4.859-4.418-1.184-1.302 4.86-4.417-1.184 1.302-4.86-4.418-1.183 1.302-4.86Zm-1.302 4.86-1.302 4.858 4.418 1.184-1.302 4.86 4.417 1.183 1.302-4.86 4.418 1.184 1.302-4.859 8.835 2.367-1.302 4.86 4.417 1.183-3.906 14.578-4.417-1.184-1.302 4.86-4.418-1.184-1.302 4.859-4.417-1.184-1.302 4.86-4.418-1.184-1.302 4.86-4.417-1.184 1.302-4.86-4.418-1.183 1.302-4.86-4.417-1.183 1.302-4.86-4.418-1.183 1.302-4.86-4.417-1.183 3.906-14.578 4.417 1.184 1.302-4.86 8.835 2.368ZM91.561-20.596 30.371-36.99l-3.28 12.238-12.237-3.28-3.28 12.239-12.237-3.28-16.396 61.19 12.238 3.28-3.28 12.238 12.239 3.279L.858 73.15l61.19 16.396 3.28-12.238 12.238 3.279 3.279-12.238 12.238 3.279 16.396-61.19-12.238-3.28 3.279-12.237-12.238-3.28 3.28-12.238ZM88.282-8.358 85.002 3.88l12.239 3.28-16.396 61.19-12.238-3.28-3.28 12.239-61.19-16.396 3.28-12.238-12.238-3.28 16.396-61.19 12.238 3.28 3.279-12.238 61.19 16.395ZM23.373 13.6l12.238 3.28-3.279 12.238 12.238 3.279-3.279 12.238-12.238-3.28 3.28-12.237-12.239-3.28 3.28-12.238Zm52.232.879-12.238-3.28-3.28 12.239-12.238-3.28-3.279 12.239 12.238 3.279 3.28-12.238 12.238 3.279 3.279-12.238Zm63.622 43.668-4.86-1.303-3.906 14.578 4.86 1.302 3.906-14.578Zm-9.114 34.014-4.86-1.302-3.906 14.578 4.859 1.302 3.907-14.578Zm25.121-6.289-1.302 4.86-14.578-3.907 1.302-4.859 14.578 3.906Zm-35.317-4.255 1.303-4.86-14.578-3.905-1.302 4.86 14.577 3.905Zm20.914-10.02 4.859 1.302-1.302 4.859-4.859-1.302 1.302-4.86Zm11.02-2.256-4.859-1.302-1.302 4.86 4.859 1.302 1.302-4.86Zm-25.598-1.65-4.859-1.303-1.302 4.86 4.859 1.302 1.302-4.86Zm-8.416-7.464 4.859 1.302-1.302 4.86-4.859-1.302 1.302-4.86Zm16.484 35.666 4.859 1.302-1.302 4.859 4.859 1.302 1.302-4.86-4.859-1.301 1.302-4.86-4.859-1.302-1.302 4.86Zm-19.437-5.208 1.302-4.86 4.859 1.302-1.302 4.86-4.859-1.302-1.302 4.859-4.859-1.302 1.302-4.86 4.859 1.303Zm76.835-18.473-8.835-2.367-1.302 4.859-4.417-1.184-1.302 4.86-4.418-1.184-3.906 14.577 4.418 1.184-1.302 4.86L175.072 99l-1.302 4.859 4.418 1.184-1.302 4.859 4.417 1.184-1.302 4.859 4.417 1.184-1.302 4.859 4.418 1.183 1.302-4.859 4.417 1.184 1.302-4.859 4.418 1.183 1.302-4.859 4.417 1.184 1.302-4.859 4.418 1.183 1.302-4.859 4.417 1.184 3.906-14.578-4.417-1.184 1.302-4.859-4.417-1.184 1.302-4.859-8.835-2.367-1.302 4.86-4.418-1.184-1.302 4.859-4.417-1.184 1.302-4.86-4.418-1.183 1.302-4.86Zm-1.302 4.86-1.302 4.858 4.418 1.184-1.302 4.86 4.417 1.183 1.302-4.86 4.418 1.184 1.302-4.859 8.835 2.367-1.303 4.86 4.418 1.183-3.906 14.578-4.418-1.184-1.302 4.86-4.417-1.184-1.302 4.859-4.418-1.184-1.302 4.86-4.417-1.184-1.302 4.859-4.418-1.183 1.302-4.86-4.417-1.183 1.302-4.86-4.417-1.183 1.302-4.859L175.072 99l1.302-4.86-4.417-1.183 3.906-14.578 4.417 1.184 1.302-4.86 8.835 2.368Zm50.588 8.344 37.794 10.127-1.447 5.399-37.794-10.127 1.447-5.399Zm-11.574 43.193-5.399-1.446 10.127-37.794 5.399 1.446-10.127 37.794Zm37.794 10.127-1.447 5.399-37.794-10.127 1.447-5.399 37.794 10.127Zm0 0 5.399 1.447 10.127-37.794-5.399-1.447-10.127 37.794Zm-16.339-36.205-5.399-1.447-1.447 5.399 5.399 1.447 1.447-5.399Zm10.798 2.893 5.399 1.447-1.447 5.399-5.399-1.447 1.447-5.399Zm-17.838 12.581 1.447-5.399-5.399-1.447-1.447 5.399 5.399 1.447Zm16.197 4.34-1.446 5.399-16.198-4.34 1.447-5.399 16.197 4.34Zm0 0 5.4 1.447 1.446-5.4-5.399-1.446-1.447 5.399Zm74.9-11.756-26.995-7.234-1.447 5.399-5.399-1.446-1.447 5.399-5.399-1.447-7.233 26.996 5.399 1.446-1.447 5.4 5.399 1.446-1.447 5.399 26.996 7.234 1.447-5.399 5.399 1.446 1.447-5.399 5.399 1.447 7.233-26.996-5.399-1.446 1.447-5.4-5.399-1.446 1.446-5.399Zm-1.446 5.399-1.447 5.399 5.399 1.447-7.233 26.995-5.4-1.446-1.446 5.399-26.996-7.234 1.447-5.399-5.399-1.447 7.233-26.995 5.399 1.446 1.447-5.399 26.996 7.234Zm-28.637 9.687 5.4 1.447-1.447 5.399 5.399 1.447-1.447 5.399-5.399-1.447 1.447-5.399-5.399-1.447 1.446-5.399Zm23.044.388-5.399-1.447-1.447 5.399-5.399-1.447-1.447 5.4 5.399 1.446 1.447-5.399 5.399 1.447 1.447-5.399ZM-.368 86.711l-4.859-1.302-3.906 14.578 4.86 1.302 3.905-14.578Zm-9.114 34.015-4.859-1.302-3.906 14.577 4.86 1.302 3.905-14.577Zm25.122-6.289-1.302 4.859L-.24 115.39l1.302-4.859 14.578 3.906Zm-35.317-4.255 1.302-4.86-14.577-3.906-1.302 4.86 14.577 3.906Zm20.914-10.021 4.859 1.302-1.302 4.859-4.86-1.302 1.303-4.859Zm11.02-2.255-4.86-1.302-1.301 4.859 4.859 1.302 1.302-4.86Zm-25.598-1.651-4.86-1.302-1.301 4.86 4.859 1.301 1.302-4.859Zm-8.417-7.463 4.86 1.302-1.302 4.859-4.86-1.302 1.302-4.86Zm16.484 35.665 4.86 1.302-1.302 4.859 4.859 1.302 1.302-4.859-4.86-1.302L.889 120.9l-4.86-1.302-1.302 4.859Zm-19.436-5.208 1.302-4.859 4.859 1.302-1.302 4.859-4.86-1.302-1.301 4.859-4.86-1.302 1.302-4.859 4.86 1.302Zm76.839-18.471-8.835-2.368-1.302 4.86-4.418-1.184-1.302 4.859-4.417-1.184-3.906 14.578 4.417 1.184-1.302 4.859 4.418 1.184-1.302 4.859 4.417 1.184-1.302 4.859 4.418 1.183-1.302 4.86 4.417 1.183-1.302 4.859 4.418 1.184 1.302-4.859 4.417 1.184 1.302-4.86 4.418 1.184 1.302-4.859 4.417 1.183 1.302-4.859 4.418 1.184 1.302-4.859 4.417 1.183 3.906-14.577-4.417-1.184 1.302-4.859-4.418-1.184 1.302-4.859-8.835-2.367-1.302 4.859-4.417-1.184-1.302 4.859-4.418-1.183 1.302-4.859-4.417-1.184 1.302-4.859Zm-1.302 4.859-1.302 4.859 4.417 1.184-1.302 4.859 4.418 1.184 1.302-4.86 4.417 1.184 1.302-4.859 8.835 2.367-1.302 4.859 4.418 1.184-3.906 14.578-4.418-1.184-1.302 4.859-4.417-1.183-1.302 4.859-4.418-1.184-1.302 4.859-4.417-1.183-1.302 4.859-4.418-1.184 1.302-4.859-4.417-1.184 1.302-4.859-4.418-1.183 1.302-4.86-4.417-1.183 1.302-4.86-4.418-1.183 3.906-14.578 4.418 1.184 1.302-4.859 8.835 2.367Zm50.583 8.345 37.794 10.127-1.446 5.399-37.794-10.127 1.446-5.399Zm-11.573 43.193-5.4-1.447 10.127-37.794 5.4 1.447-10.127 37.794Zm37.794 10.127-1.447 5.399-37.794-10.127 1.447-5.399 37.794 10.127Zm0 0 5.399 1.446 10.127-37.794-5.399-1.446-10.127 37.794Zm-16.34-36.206-5.399-1.446-1.446 5.399 5.399 1.446 1.446-5.399Zm10.799 2.894 5.399 1.446-1.447 5.4-5.399-1.447 1.447-5.399Zm-17.838 12.58 1.447-5.399-5.4-1.446-1.446 5.399 5.399 1.446Zm16.197 4.34-1.446 5.4-16.198-4.341 1.447-5.399 16.197 4.34Zm0 0 5.399 1.447 1.447-5.399-5.399-1.447-1.447 5.399Zm74.904-11.755-26.996-7.234-1.446 5.4-5.399-1.447-1.447 5.399-5.399-1.447-7.234 26.996 5.399 1.447-1.446 5.399 5.399 1.446-1.447 5.4 26.996 7.233 1.446-5.399 5.4 1.447 1.446-5.4 5.399 1.447 7.234-26.995-5.399-1.447 1.446-5.399-5.399-1.447 1.447-5.399Zm-1.447 5.399-1.446 5.399 5.399 1.447-7.234 26.995-5.399-1.446-1.447 5.399-26.995-7.234 1.446-5.399-5.399-1.446 7.234-26.996 5.399 1.447 1.447-5.399 26.995 7.233Zm-28.636 9.687 5.399 1.447-1.446 5.399 5.399 1.447-1.447 5.399-5.399-1.447 1.447-5.399-5.4-1.447 1.447-5.399Zm23.043.388-5.399-1.447-1.446 5.399-5.4-1.446-1.446 5.399 5.399 1.446 1.447-5.399 5.399 1.447 1.446-5.399Zm91.373 7.122-11.015-2.951-8.853 33.043 11.014 2.951 8.854-33.043Zm-20.659 77.1-11.014-2.951-8.854 33.042 11.014 2.952 8.854-33.043Zm56.942-14.255-2.951 11.014-33.043-8.854 2.951-11.014 33.043 8.854Zm-80.051-9.645 2.951-11.014-33.042-8.854-2.951 11.015 33.042 8.853Zm47.404-22.713 11.014 2.951-2.951 11.015-11.015-2.952 2.952-11.014Zm24.979-5.112-11.014-2.951-2.951 11.014 11.014 2.952 2.951-11.015Zm-58.022-3.742-11.014-2.951-2.951 11.014 11.014 2.952 2.951-11.015Zm-19.077-16.916 11.014 2.951-2.951 11.014-11.014-2.951 2.951-11.014Zm37.363 80.841 11.015 2.952-2.952 11.014 11.015 2.951 2.951-11.014-11.014-2.951 2.951-11.015-11.014-2.951-2.952 11.014Zm-44.056-11.805 2.951-11.014 11.014 2.951-2.951 11.015-11.014-2.952-2.952 11.015-11.014-2.952 2.951-11.014 11.015 2.951Zm123.102-55.553 37.794 10.127-1.447 5.399-37.794-10.127 1.447-5.399Zm-11.573 43.193-5.4-1.446 10.127-37.794 5.399 1.446-10.126 37.794Zm37.793 10.127-1.446 5.399-37.794-10.127 1.447-5.399 37.793 10.127Zm0 0 5.4 1.447 10.126-37.794-5.399-1.447-10.127 37.794Zm-16.339-36.205-5.399-1.447-1.447 5.399 5.399 1.447 1.447-5.399Zm10.798 2.893 5.4 1.447-1.447 5.399-5.399-1.447 1.446-5.399Zm-17.838 12.581 1.447-5.399-5.399-1.447-1.447 5.399 5.399 1.447Zm16.198 4.34-1.447 5.399-16.197-4.34 1.446-5.399 16.198 4.34Zm0 0 5.399 1.447 1.447-5.399-5.399-1.447-1.447 5.399Zm-404.838-74.333 37.794 10.127-1.447 5.399-37.794-10.127 1.447-5.399Zm-11.574 43.193-5.399-1.446 10.127-37.794 5.399 1.446-10.127 37.794Zm37.794 10.127-1.447 5.399-37.794-10.127 1.447-5.399 37.794 10.127Zm0 0 5.4 1.447L3.557 159.52l-5.4-1.447-10.126 37.794Zm-16.34-36.205-5.398-1.447-1.447 5.399 5.4 1.447 1.446-5.399Zm10.8 2.893 5.398 1.447-1.447 5.399-5.399-1.447 1.447-5.399Zm-17.839 12.581 1.447-5.399-5.4-1.447-1.446 5.399 5.4 1.447Zm16.198 4.34-1.447 5.399-16.198-4.34 1.447-5.399 16.198 4.34Zm0 0 5.399 1.447 1.446-5.4-5.399-1.446-1.446 5.399Zm74.912-11.756-26.995-7.233-1.447 5.399-5.4-1.447-1.446 5.399-5.4-1.446-7.233 26.995 5.4 1.447-1.447 5.399 5.399 1.447-1.447 5.399 26.996 7.233 1.447-5.399 5.399 1.447 1.446-5.399 5.4 1.446 7.233-26.995-5.4-1.447 1.448-5.399-5.4-1.447 1.447-5.399Zm-1.447 5.399-1.446 5.399 5.399 1.447-7.234 26.996-5.399-1.447-1.446 5.399-26.996-7.233 1.447-5.399-5.4-1.447 7.234-26.996 5.4 1.447 1.446-5.399 26.995 7.233Zm-28.636 9.688 5.4 1.446-1.447 5.399 5.399 1.447-1.447 5.399-5.399-1.447 1.447-5.399-5.4-1.446 1.447-5.399Zm23.044.387-5.4-1.447-1.446 5.4-5.4-1.447-1.446 5.399 5.399 1.447 1.447-5.399 5.399 1.446 1.447-5.399Zm57.519-1.948-4.859-1.302-3.906 14.578 4.859 1.302 3.906-14.578Zm-9.114 34.015-4.86-1.302-3.906 14.577 4.86 1.302 3.906-14.577Zm25.121-6.289-1.302 4.859-14.578-3.906 1.302-4.859 14.578 3.906Zm-35.316-4.255 1.302-4.859-14.578-3.906-1.302 4.859 14.578 3.906Zm20.913-10.021 4.859 1.302-1.302 4.86-4.859-1.302 1.302-4.86Zm11.02-2.255-4.859-1.302-1.302 4.859 4.859 1.302 1.302-4.859Zm-25.598-1.651-4.859-1.302-1.302 4.859 4.86 1.302 1.301-4.859Zm-8.416-7.463 4.86 1.302-1.303 4.859-4.86-1.302 1.303-4.859Zm16.484 35.665 4.859 1.302-1.302 4.86 4.859 1.302 1.302-4.86-4.859-1.302 1.302-4.859-4.859-1.302-1.302 4.859ZM81.9 213.784l1.302-4.859 4.86 1.302-1.303 4.859-4.859-1.302-1.302 4.86-4.86-1.302 1.303-4.86 4.859 1.302Zm76.831-18.472-8.835-2.368-1.302 4.859-4.418-1.183-1.302 4.859-4.417-1.184-3.906 14.578 4.417 1.184-1.302 4.859 4.418 1.184-1.302 4.859 4.417 1.183-1.302 4.86 4.418 1.183-1.302 4.86 4.417 1.183-1.302 4.859 4.418 1.184 1.302-4.859 4.417 1.184 1.302-4.86 4.418 1.184 1.302-4.859 4.417 1.183 1.302-4.859 4.418 1.184 1.302-4.859 4.417 1.183 3.906-14.577-4.417-1.184 1.302-4.859-4.418-1.184 1.302-4.859-8.835-2.367-1.302 4.859-4.417-1.184-1.302 4.859-4.418-1.183 1.302-4.86-4.417-1.183 1.302-4.859Zm-1.302 4.859-1.302 4.859 4.417 1.184-1.302 4.859 4.418 1.184 1.302-4.86 4.417 1.184 1.302-4.859 8.835 2.367-1.302 4.859 4.418 1.184-3.906 14.578-4.418-1.184-1.302 4.859-4.417-1.183-1.302 4.859-4.418-1.184-1.302 4.859-4.417-1.183-1.302 4.859-4.418-1.184 1.302-4.859-4.417-1.184 1.302-4.859-4.418-1.184 1.302-4.859-4.417-1.183 1.302-4.86-4.418-1.183 3.906-14.578 4.418 1.184 1.302-4.86 8.835 2.368Zm195.014 47.044-4.859-1.302-3.906 14.578 4.859 1.302 3.906-14.578Zm-9.114 34.015-4.859-1.302-3.906 14.577 4.859 1.302 3.906-14.577Zm25.122-6.289-1.302 4.859-14.578-3.906 1.302-4.859 14.578 3.906Zm-35.317-4.255 1.302-4.859-14.577-3.906-1.302 4.859 14.577 3.906Zm20.914-10.021 4.859 1.302-1.302 4.86-4.859-1.302 1.302-4.86Zm11.02-2.255-4.859-1.302-1.302 4.859 4.859 1.302 1.302-4.859Zm-25.598-1.651-4.859-1.302-1.302 4.86 4.859 1.302 1.302-4.86Zm-8.416-7.463 4.859 1.302-1.302 4.859-4.859-1.302 1.302-4.859Zm16.484 35.665 4.859 1.302-1.302 4.86 4.859 1.302 1.302-4.859-4.859-1.303 1.302-4.859-4.859-1.302-1.302 4.859Zm-19.437-5.208 1.302-4.859 4.859 1.302-1.302 4.859-4.859-1.302-1.302 4.86-4.86-1.302 1.302-4.86 4.86 1.302ZM19.145 223.877l-8.835-2.367-1.302 4.859-4.417-1.183-1.302 4.859-4.418-1.184-3.906 14.578 4.417 1.184-1.302 4.859 4.418 1.183-1.302 4.86 4.417 1.183-1.302 4.86 4.418 1.183-1.302 4.859 4.417 1.184-1.302 4.859 4.418 1.184 1.302-4.859 4.417 1.183 1.302-4.859 4.418 1.184 1.302-4.859 4.417 1.183 1.302-4.859 4.418 1.184 1.302-4.86 4.417 1.184 3.906-14.578-4.417-1.183 1.302-4.859-4.418-1.184 1.302-4.859-8.835-2.368-1.302 4.86-4.417-1.184-1.302 4.859-4.418-1.183 1.302-4.86-4.417-1.183 1.302-4.86Zm-1.302 4.86-1.302 4.859 4.417 1.184-1.302 4.859 4.418 1.183 1.302-4.859 4.417 1.184 1.302-4.859 8.835 2.367-1.302 4.859 4.418 1.184-3.906 14.577-4.418-1.183-1.302 4.859-4.417-1.184-1.302 4.86-4.418-1.184-1.302 4.859-4.417-1.184-1.302 4.86-4.418-1.184 1.302-4.859-4.417-1.184 1.302-4.859-4.418-1.184 1.302-4.859-4.417-1.184 1.302-4.859-4.418-1.183 3.907-14.578 4.417 1.184 1.302-4.86 8.835 2.368Zm50.579 8.345 37.794 10.127-1.447 5.399-37.794-10.126 1.447-5.4ZM56.85 280.276l-5.4-1.447 10.127-37.794 5.4 1.447-10.127 37.794Zm37.793 10.126-1.446 5.4-37.794-10.127 1.447-5.399 37.793 10.126Zm0 0 5.4 1.447 10.126-37.794-5.399-1.447-10.127 37.794Zm-16.339-36.205-5.399-1.447-1.447 5.399 5.4 1.447 1.446-5.399Zm10.798 2.893 5.4 1.447-1.447 5.399-5.4-1.446 1.447-5.4Zm-17.838 12.581 1.447-5.399-5.399-1.447-1.447 5.399 5.4 1.447Zm16.198 4.34-1.447 5.399-16.197-4.34 1.447-5.399 16.197 4.34Zm0 0 5.399 1.447 1.447-5.399-5.4-1.447-1.446 5.399Zm74.903-11.756-26.995-7.234-1.447 5.399-5.399-1.446-1.447 5.399-5.399-1.447-7.234 26.996 5.4 1.446-1.447 5.399 5.399 1.447-1.447 5.399 26.996 7.234 1.447-5.399 5.399 1.446 1.446-5.399 5.4 1.447 7.233-26.996-5.399-1.446 1.447-5.4-5.399-1.446 1.446-5.399Zm-1.446 5.399-1.447 5.399 5.399 1.447-7.234 26.995-5.399-1.447-1.446 5.4-26.996-7.234 1.447-5.399-5.399-1.447 7.233-26.995 5.399 1.446 1.447-5.399 26.996 7.234Zm-28.637 9.687 5.399 1.447-1.446 5.399 5.399 1.447-1.447 5.399-5.399-1.447 1.447-5.399-5.399-1.447 1.446-5.399Zm23.044.388-5.4-1.447-1.446 5.399-5.399-1.447-1.447 5.4 5.399 1.446 1.447-5.399 5.399 1.447 1.447-5.399Zm57.523-1.948-4.859-1.302-3.906 14.578 4.859 1.302 3.906-14.578Zm-9.114 34.015-4.859-1.302-3.906 14.578 4.859 1.302 3.906-14.578Zm25.122-6.289-1.302 4.859-14.578-3.906 1.302-4.859 14.578 3.906Zm-35.317-4.255 1.302-4.859-14.578-3.906-1.302 4.859 14.578 3.906Zm20.913-10.021 4.86 1.303-1.302 4.859-4.86-1.302 1.302-4.86Zm11.021-2.255-4.859-1.302-1.302 4.86 4.859 1.302 1.302-4.86Zm-25.598-1.651-4.859-1.302-1.303 4.86 4.86 1.302 1.302-4.86Zm-8.417-7.463 4.86 1.302-1.302 4.859-4.86-1.302 1.302-4.859Zm16.484 35.666 4.859 1.302-1.302 4.859 4.86 1.302 1.302-4.859-4.86-1.302 1.303-4.86-4.86-1.302-1.302 4.86Zm-19.437-5.209 1.302-4.859 4.86 1.302-1.302 4.86-4.86-1.303-1.302 4.86-4.859-1.302 1.302-4.86 4.859 1.302Zm76.84-18.473-8.835-2.367-1.302 4.859-4.418-1.183-1.302 4.859-4.417-1.184-3.906 14.578 4.417 1.184-1.302 4.859 4.418 1.183-1.302 4.86 4.417 1.183-1.302 4.86 4.417 1.183-1.302 4.859 4.418 1.184-1.302 4.859 4.417 1.184 1.302-4.859 4.418 1.183 1.302-4.859 4.417 1.184 1.302-4.859 4.418 1.183 1.302-4.859 4.417 1.184 1.302-4.86 4.418 1.184 3.906-14.578-4.418-1.183 1.302-4.859-4.417-1.184 1.302-4.859-8.835-2.368-1.302 4.86-4.417-1.184-1.302 4.859-4.418-1.183 1.302-4.86-4.417-1.183 1.302-4.86Zm-1.302 4.86-1.302 4.859 4.417 1.184-1.302 4.859 4.418 1.183 1.302-4.859 4.417 1.184 1.302-4.859 8.835 2.367-1.302 4.859 4.417 1.184-3.906 14.577-4.417-1.183-1.302 4.859-4.418-1.184-1.302 4.86-4.417-1.184-1.302 4.859-4.418-1.184-1.302 4.86-4.417-1.184 1.302-4.859-4.418-1.184 1.302-4.859-4.417-1.184 1.302-4.859-4.417-1.184 1.302-4.859-4.418-1.183 3.906-14.578 4.418 1.184 1.302-4.86 8.835 2.368Zm50.583 8.346 37.794 10.126-1.447 5.4-37.794-10.127 1.447-5.399Zm-11.574 43.193-5.399-1.447 10.127-37.794 5.399 1.447-10.127 37.794Zm37.794 10.126-1.447 5.4-37.794-10.127 1.447-5.399 37.794 10.126Zm0 0 5.399 1.447 10.127-37.794-5.399-1.446-10.127 37.793Zm-16.339-36.205-5.399-1.447-1.447 5.4 5.399 1.446 1.447-5.399Zm10.798 2.894 5.399 1.446-1.447 5.399-5.399-1.446 1.447-5.399Zm-17.838 12.58 1.447-5.399-5.399-1.447-1.447 5.4 5.399 1.446Zm16.198 4.34-1.447 5.399-16.198-4.34 1.447-5.399 16.198 4.34Zm0 0 5.399 1.447 1.446-5.399-5.399-1.447-1.446 5.399ZM22.775 290.82l-26.996-7.234-1.446 5.399-5.4-1.446-1.446 5.399-5.4-1.447-7.233 26.996 5.4 1.447-1.448 5.399 5.4 1.446-1.447 5.399 26.996 7.234 1.446-5.399 5.4 1.447 1.446-5.4 5.4 1.447 7.233-26.996-5.4-1.446 1.447-5.399-5.399-1.447 1.447-5.399Zm-1.447 5.399-1.447 5.399 5.4 1.447-7.234 26.995-5.399-1.446-1.447 5.399-26.995-7.234 1.446-5.399-5.399-1.446 7.234-26.996 5.399 1.447 1.447-5.4 26.995 7.234Zm-28.636 9.687 5.4 1.447-1.448 5.399 5.4 1.447-1.447 5.399-5.4-1.447 1.447-5.399-5.399-1.447 1.447-5.399Zm23.043.388-5.399-1.447-1.447 5.399L3.49 308.8l-1.446 5.399 5.399 1.446 1.446-5.399 5.4 1.447 1.446-5.399Zm57.524-1.948-4.86-1.302-3.905 14.578 4.859 1.302 3.906-14.578Zm-9.114 34.015-4.86-1.302-3.906 14.577 4.86 1.302 3.906-14.577Zm25.121-6.289-1.302 4.859-14.577-3.906 1.302-4.859 14.577 3.906Zm-35.316-4.255 1.302-4.859-14.578-3.907-1.302 4.86 14.578 3.906Zm20.913-10.021 4.86 1.302-1.303 4.859-4.859-1.302 1.302-4.859Zm11.02-2.255-4.859-1.302-1.302 4.859 4.86 1.302 1.302-4.859Zm-25.598-1.651-4.859-1.302-1.302 4.859 4.86 1.302 1.301-4.859Zm-8.416-7.463 4.86 1.302-1.303 4.859-4.859-1.302 1.302-4.859Zm16.484 35.665 4.86 1.302-1.303 4.86 4.86 1.302 1.301-4.86-4.859-1.302 1.302-4.859-4.859-1.302-1.302 4.859Zm-19.437-5.208 1.302-4.859 4.86 1.302-1.303 4.859-4.859-1.302-1.302 4.859-4.86-1.302 1.303-4.859 4.86 1.302Zm76.835-18.472-8.835-2.367-1.302 4.859-4.417-1.184-1.303 4.86-4.417-1.184-3.906 14.578 4.417 1.183-1.302 4.859 4.418 1.184-1.302 4.859 4.417 1.184-1.302 4.859 4.418 1.184-1.302 4.859 4.417 1.184-1.302 4.859 4.418 1.184 1.302-4.86 4.417 1.184 1.302-4.859 4.418 1.183 1.302-4.859 4.417 1.184 1.302-4.859 4.418 1.183 1.302-4.859 4.417 1.184 3.906-14.578-4.417-1.184 1.302-4.859-4.418-1.183 1.302-4.86-8.835-2.367-1.302 4.859-4.417-1.183-1.302 4.859-4.418-1.184 1.302-4.859-4.417-1.184 1.302-4.859Zm-1.302 4.859-1.302 4.859 4.417 1.184-1.302 4.859 4.418 1.184 1.302-4.859 4.417 1.183 1.302-4.859 8.835 2.368-1.302 4.859 4.418 1.183-3.906 14.578-4.418-1.184-1.302 4.86-4.417-1.184-1.302 4.859-4.418-1.183-1.302 4.859-4.417-1.184-1.302 4.859-4.418-1.183 1.302-4.86-4.417-1.183 1.302-4.859-4.418-1.184 1.302-4.859-4.417-1.184 1.302-4.859-4.418-1.184 3.906-14.577 4.418 1.183 1.302-4.859 8.835 2.367Zm50.583 8.345 37.794 10.127-1.446 5.399-37.794-10.127 1.446-5.399Zm-11.573 43.193-5.399-1.446 10.127-37.794 5.399 1.446-10.127 37.794Zm37.794 10.127-1.447 5.399-37.794-10.127 1.447-5.399 37.794 10.127Zm0 0 5.399 1.447 10.127-37.794-5.399-1.447-10.127 37.794Zm-16.339-36.205-5.4-1.447-1.446 5.399 5.399 1.447 1.447-5.399Zm10.798 2.893 5.399 1.447-1.447 5.399-5.399-1.447 1.447-5.399Zm-17.838 12.581 1.447-5.399-5.4-1.447-1.446 5.399 5.399 1.447Zm16.197 4.34-1.446 5.399-16.198-4.34 1.447-5.399 16.197 4.34Zm0 0 5.399 1.447 1.447-5.4-5.399-1.446-1.447 5.399Zm74.908-11.756-26.995-7.233-1.447 5.399-5.399-1.447-1.447 5.4-5.399-1.447-7.233 26.996 5.399 1.446-1.447 5.399 5.399 1.447-1.446 5.399 26.995 7.234 1.447-5.4 5.399 1.447 1.447-5.399 5.399 1.447 7.233-26.996-5.399-1.447 1.447-5.399-5.399-1.446 1.446-5.4Zm-1.446 5.4-1.447 5.399 5.399 1.446-7.233 26.996-5.399-1.447-1.447 5.399-26.996-7.233 1.447-5.399-5.399-1.447 7.233-26.995 5.399 1.446 1.447-5.399 26.996 7.234Zm-28.636 9.687 5.399 1.447-1.447 5.399 5.399 1.446-1.447 5.399-5.399-1.446 1.447-5.399-5.399-1.447 1.447-5.399Zm23.043.387-5.399-1.446-1.447 5.399-5.399-1.447-1.447 5.399 5.399 1.447 1.447-5.399 5.399 1.447 1.447-5.4Zm57.515-1.947-4.859-1.302-3.906 14.577 4.859 1.302 3.906-14.577Zm-9.114 34.014-4.859-1.302-3.906 14.578 4.859 1.302 3.906-14.578Zm25.122-6.289-1.302 4.859-14.578-3.906 1.302-4.859 14.578 3.906Zm-35.317-4.255 1.302-4.859-14.578-3.906-1.302 4.859 14.578 3.906Zm20.913-10.02 4.86 1.302-1.302 4.859-4.86-1.302 1.302-4.859Zm11.021-2.256-4.859-1.302-1.302 4.86 4.859 1.302 1.302-4.86Zm-25.598-1.65-4.86-1.302-1.302 4.859 4.86 1.302 1.302-4.859Zm-8.417-7.464 4.859 1.302-1.302 4.86-4.859-1.303 1.302-4.859Zm16.484 35.666 4.859 1.302-1.302 4.859 4.86 1.302 1.302-4.859-4.86-1.302 1.302-4.86-4.859-1.302-1.302 4.86Zm-19.437-5.208 1.302-4.86 4.86 1.302-1.302 4.86-4.86-1.302-1.302 4.859-4.859-1.302 1.302-4.859 4.859 1.302Zm-308.955-55.876-8.835-2.368-1.302 4.86-4.418-1.184-1.302 4.859-4.417-1.184-3.906 14.578 4.417 1.184-1.302 4.859 4.418 1.184-1.302 4.859 4.417 1.183-1.302 4.86 4.418 1.183-1.302 4.86 4.417 1.183-1.302 4.859 4.417 1.184 1.302-4.859 4.418 1.184 1.302-4.86 4.417 1.184 1.302-4.859 4.418 1.183 1.302-4.859 4.417 1.184 1.302-4.859 4.418 1.183 3.906-14.577-4.418-1.184 1.303-4.859-4.418-1.184 1.302-4.859-8.835-2.367-1.302 4.859-4.417-1.184-1.302 4.859-4.418-1.183 1.302-4.86-4.417-1.183 1.302-4.859Zm-1.302 4.859-1.302 4.859 4.417 1.184-1.302 4.859 4.418 1.184 1.302-4.86 4.417 1.184 1.302-4.859 8.835 2.367-1.302 4.859 4.417 1.184-3.906 14.578-4.417-1.184-1.302 4.859-4.418-1.183-1.302 4.859-4.417-1.184-1.302 4.859-4.418-1.183-1.302 4.859-4.417-1.184 1.302-4.859-4.418-1.184 1.303-4.859-4.418-1.184 1.302-4.859-4.417-1.183 1.302-4.86-4.418-1.183 3.906-14.578 4.418 1.184 1.302-4.859 8.835 2.367Zm50.583 8.345 37.794 10.127-1.447 5.399-37.793-10.127 1.446-5.399Zm-11.573 43.193-5.4-1.447 10.127-37.794 5.4 1.447-10.127 37.794Zm37.794 10.127-1.447 5.399-37.794-10.127 1.447-5.399 37.794 10.127Zm0 0 5.399 1.446 10.126-37.794-5.399-1.446-10.126 37.794Zm-16.34-36.206-5.399-1.446-1.447 5.399 5.4 1.446 1.446-5.399Zm10.798 2.894 5.4 1.446-1.447 5.399-5.4-1.446 1.447-5.399ZM38.28 392.77l1.446-5.399-5.399-1.446-1.447 5.399 5.4 1.446Zm16.197 4.34-1.447 5.4-16.197-4.341 1.447-5.399 16.197 4.34Zm0 0 5.4 1.447 1.446-5.399-5.4-1.447-1.446 5.399Zm74.912-11.755-26.996-7.233-1.446 5.399-5.4-1.447-1.446 5.399-5.4-1.446-7.233 26.995 5.4 1.447-1.447 5.399 5.399 1.447-1.447 5.399 26.996 7.233 1.447-5.399 5.399 1.447 1.446-5.399 5.4 1.446 7.233-26.995-5.399-1.447 1.447-5.399-5.4-1.447 1.447-5.399Zm-1.447 5.399-1.446 5.399 5.399 1.447-7.234 26.996-5.399-1.447-1.446 5.399-26.996-7.233 1.447-5.399-5.4-1.447 7.234-26.996 5.4 1.447 1.446-5.399 26.995 7.233Zm-28.636 9.688 5.399 1.446-1.446 5.399 5.399 1.447-1.447 5.399-5.399-1.447 1.447-5.399-5.4-1.446 1.447-5.399Zm23.043.387-5.399-1.447-1.446 5.4-5.399-1.447-1.447 5.399 5.399 1.447 1.447-5.399 5.399 1.446 1.446-5.399Z"/></g><defs><clipPath id="a"><path fill="#fff" d="M0 0h332v380H0z"/></clipPath></defs></svg>