<svg xmlns="http://www.w3.org/2000/svg" width="332" height="380" fill="none"><g fill="#C0D2FB" clip-path="url(#a)"><path d="M26.249-36.237-.747-29.004l1.447 5.4-5.4 1.446 1.448 5.399-5.4 1.447 7.234 26.995 5.399-1.446 1.447 5.399 5.399-1.447 1.447 5.4 26.995-7.234-1.447-5.4 5.4-1.446-1.447-5.4 5.4-1.446-7.234-26.995-5.4 1.446-1.446-5.399-5.4 1.447-1.446-5.4Zm1.447 5.399 1.446 5.399 5.4-1.447L41.774.11l-5.4 1.446 1.447 5.4-26.995 7.233-1.447-5.4-5.399 1.448-7.233-26.996 5.399-1.447L.7-23.605l26.996-7.233ZM7.74-8.131l5.399-1.446 1.447 5.399 5.399-1.447 1.446 5.4-5.399 1.446-1.447-5.4-5.399 1.447L7.74-8.13Zm20.15-11.186-5.4 1.447 1.447 5.4-5.4 1.446 1.448 5.399 5.399-1.447-1.447-5.399 5.4-1.447-1.447-5.399Zm48.84-30.446-4.86 1.302 3.906 14.577 4.86-1.302-3.907-14.577Zm9.113 34.014-4.859 1.302L84.89.131l4.86-1.302-3.907-14.578Zm18.612-18.007 1.302 4.86-14.578 3.905-1.302-4.859 14.578-3.906ZM71.742-19.783l-1.302-4.859-14.578 3.906 1.302 4.86 14.578-3.907Zm13.101-19.134 4.86-1.302 1.302 4.859-4.86 1.302-1.302-4.86Zm8.417-7.463-4.86 1.302 1.303 4.859 4.859-1.302-1.302-4.86ZM70.266-35.011l-4.86 1.302 1.302 4.859 4.86-1.302-1.302-4.86Zm-11.02-2.255 4.858-1.302 1.302 4.859-4.859 1.302-1.302-4.86Zm32.107 22.645 4.86-1.302 1.302 4.859 4.859-1.302-1.302-4.86-4.86 1.303-1.301-4.86-4.86 1.303 1.302 4.859ZM71.917-9.413l-1.302-4.86 4.859-1.301 1.302 4.859-4.86 1.302 1.303 4.86-4.86 1.301-1.302-4.86 4.86-1.301Zm-.02 26.913 37.794-10.127 1.447 5.4-37.794 10.126-1.447-5.399Zm11.574 43.193-5.4 1.447-10.126-37.794 5.399-1.447L83.47 60.693Zm37.794-10.127 1.446 5.4-37.794 10.126-1.446-5.399 37.794-10.127Zm0 0 5.399-1.446-10.127-37.794-5.399 1.447 10.127 37.793ZM89.012 27.381l-5.4 1.447 1.447 5.4 5.4-1.448-1.447-5.399Zm10.798-2.893 5.399-1.447 1.447 5.4-5.399 1.446-1.447-5.4Zm-9.158 19.814-1.446-5.4-5.4 1.448 1.447 5.399 5.4-1.447Zm16.198-4.34 1.446 5.4-16.197 4.34-1.447-5.4 16.198-4.34Zm0 0 5.399-1.447-1.447-5.399-5.399 1.447 1.447 5.399Zm58.99-47.634L138.844-.44l1.447 5.4-5.399 1.446 1.446 5.4-5.399 1.446 7.234 26.996 5.399-1.447 1.447 5.4 5.399-1.448 1.446 5.4 26.996-7.234-1.447-5.399 5.399-1.447-1.446-5.399 5.399-1.447L179.531.233l-5.399 1.446-1.446-5.399-5.4 1.447-1.446-5.4Zm1.446 5.4 1.447 5.398 5.399-1.447 7.234 26.996-5.399 1.447 1.446 5.399-26.995 7.233-1.447-5.399-5.399 1.447-7.234-26.996 5.4-1.446-1.447-5.4 26.995-7.233ZM147.33 20.434l5.4-1.447 1.446 5.399 5.399-1.447 1.447 5.4-5.399 1.446-1.447-5.399-5.399 1.447-1.447-5.4Zm20.15-11.186-5.399 1.446 1.447 5.4-5.399 1.446 1.446 5.4 5.4-1.447-1.447-5.4 5.399-1.446-1.447-5.4ZM216.323-21.2l-4.859 1.303L215.37-5.32l4.859-1.302-3.906-14.578Zm9.115 34.015-4.86 1.302 3.906 14.578 4.86-1.302-3.906-14.578Zm18.611-18.007 1.302 4.86-14.578 3.905-1.302-4.859 14.578-3.906ZM211.336 8.78l-1.302-4.859-14.577 3.906 1.302 4.86 14.577-3.907Zm13.102-19.134 4.859-1.303 1.302 4.86-4.859 1.302-1.302-4.86Zm8.416-7.464-4.859 1.302 1.302 4.86 4.859-1.303-1.302-4.859ZM209.86-6.447l-4.859 1.302 1.302 4.859 4.859-1.302-1.302-4.86Zm-11.02-2.256 4.859-1.302 1.302 4.86-4.859 1.302-1.302-4.86Zm32.108 22.646 4.859-1.302 1.302 4.859 4.859-1.302-1.302-4.86-4.859 1.303-1.302-4.86-4.859 1.302 1.302 4.86Zm-19.437 5.208-1.302-4.86 4.859-1.302 1.302 4.86-4.859 1.302 1.302 4.859-4.859 1.302-1.302-4.86 4.859-1.301Zm57.305-54.415-8.835 2.368 1.302 4.859-4.417 1.183 1.302 4.86-4.417 1.183 3.906 14.578 4.417-1.184 1.302 4.86 4.418-1.184 1.302 4.86 4.417-1.185 1.302 4.86 4.418-1.184 1.302 4.86 4.417-1.184 1.302 4.859 4.418-1.184-1.302-4.859 4.417-1.184L292.485.06l4.417-1.184-1.302-4.859 4.418-1.183-1.302-4.86 4.417-1.183-1.302-4.86 4.418-1.183-3.906-14.578-4.418 1.184-1.302-4.86-4.417 1.184-1.302-4.859-8.835 2.367 1.302 4.86-4.418 1.183 1.302 4.86-4.417 1.183-1.302-4.86-4.418 1.184-1.302-4.859Zm1.302 4.86 1.302 4.859 4.418-1.184 1.302 4.86 4.417-1.184-1.302-4.86 4.418-1.183-1.302-4.86 8.835-2.367 1.302 4.86 4.417-1.184 3.906 14.577-4.417 1.184 1.302 4.86-4.418 1.183 1.302 4.86-4.417 1.183 1.302 4.86-4.418 1.183 1.303 4.859-4.418 1.184-1.302-4.86-4.417 1.184-1.302-4.86-4.418 1.184-1.302-4.859-4.417 1.184-1.302-4.86-4.418 1.184-3.906-14.577 4.417-1.184-1.302-4.86 8.835-2.366Zm47.976-18.063 37.794-10.127 1.447 5.4-37.794 10.126-1.447-5.399Zm11.573 43.193-5.399 1.447-10.126-37.794 5.399-1.447 10.126 37.794ZM367.461-15.4l1.447 5.4L331.114.124l-1.447-5.399L367.461-15.4Zm0 0 5.4-1.446-10.127-37.794-5.399 1.446L367.461-15.4Zm-32.252-23.185-5.4 1.447 1.447 5.399 5.399-1.447-1.446-5.399Zm10.798-2.893 5.399-1.447 1.447 5.4-5.4 1.446-1.446-5.4Zm-9.158 19.814-1.447-5.4-5.399 1.448 1.447 5.399 5.399-1.447Zm16.197-4.34 1.447 5.399-16.197 4.34-1.447-5.4 16.197-4.34Zm0 0 5.4-1.447-1.447-5.399-5.399 1.447 1.446 5.399ZM29.064 28.977l-61.19 16.396 3.279 12.238-12.238 3.279 3.279 12.238-12.238 3.28 16.396 61.189 12.238-3.279 3.279 12.238 12.238-3.279 3.279 12.238 61.19-16.396-3.279-12.238 12.238-3.279-3.28-12.238 12.239-3.279-16.396-61.19-12.238 3.279-3.28-12.238-12.237 3.279-3.28-12.238Zm3.279 12.238 3.279 12.238 12.238-3.28 16.396 61.191-12.238 3.279 3.279 12.238-61.19 16.396-3.28-12.238-12.237 3.279-16.396-61.19 12.238-3.28-3.28-12.237 61.19-16.396Zm-45.234 51.47 12.238-3.279 3.28 12.238 12.237-3.279 3.28 12.238-12.238 3.279-3.28-12.238-12.238 3.279-3.279-12.238Zm45.673-25.354L20.544 70.61l3.28 12.238-12.239 3.279 3.28 12.238 12.237-3.28-3.279-12.237 12.238-3.28-3.279-12.237Zm76.932 6.006-4.859 1.302 3.906 14.577 4.86-1.302-3.907-14.577Zm9.115 34.014-4.86 1.302 3.906 14.578 4.86-1.302-3.906-14.578Zm18.611-18.007 1.302 4.86-14.578 3.905-1.302-4.859 14.578-3.906Zm-32.712 13.973-1.302-4.859-14.578 3.906 1.302 4.86 14.578-3.907Zm13.101-19.134 4.859-1.302 1.302 4.859-4.859 1.302-1.302-4.86Zm8.416-7.464-4.859 1.303 1.302 4.859 4.859-1.302-1.302-4.86Zm-22.994 11.37-4.86 1.302 1.303 4.859 4.859-1.302-1.302-4.86Zm-11.02-2.255 4.859-1.302 1.302 4.859-4.86 1.302-1.301-4.86Zm32.108 22.645 4.859-1.302 1.302 4.859 4.859-1.302-1.302-4.859-4.859 1.302-1.302-4.859-4.859 1.302 1.302 4.859Zm-19.437 5.208-1.302-4.859 4.859-1.302 1.302 4.859-4.859 1.302 1.302 4.859-4.859 1.302-1.302-4.859 4.859-1.302Zm57.304-54.415-8.834 2.367 1.302 4.86-4.418 1.183 1.302 4.859-4.417 1.184 3.906 14.577 4.417-1.183 1.302 4.859 4.418-1.184 1.302 4.86 4.417-1.184 1.302 4.859 4.418-1.184 1.302 4.86 4.417-1.184 1.302 4.859 4.418-1.184-1.302-4.859 4.417-1.183-1.302-4.86 4.418-1.183-1.302-4.86 4.417-1.183-1.302-4.86 4.417-1.183-1.302-4.86 4.418-1.183-3.906-14.578-4.418 1.184-1.302-4.86-4.417 1.184-1.302-4.859-8.835 2.368 1.302 4.859-4.418 1.184 1.302 4.859-4.417 1.183-1.302-4.859-4.417 1.184-1.303-4.86Zm1.303 4.859 1.302 4.859 4.417-1.184 1.302 4.86 4.418-1.184-1.303-4.86 4.418-1.183-1.302-4.86 8.835-2.367 1.302 4.86 4.417-1.184 3.906 14.578-4.417 1.183 1.302 4.86-4.417 1.183 1.302 4.86-4.418 1.183 1.302 4.86-4.417 1.183 1.302 4.859-4.418 1.184-1.302-4.86-4.417 1.184-1.302-4.859-4.418 1.184-1.302-4.86-4.417 1.184-1.302-4.859-4.418 1.184-3.906-14.578 4.418-1.184-1.302-4.859 8.835-2.367Zm47.982-18.067 37.794-10.127 1.447 5.4-37.794 10.126-1.447-5.399Zm11.574 43.193-5.399 1.447-10.127-37.794 5.399-1.447 10.127 37.794Zm37.794-10.127 1.447 5.4-37.794 10.126-1.447-5.399 37.794-10.127Zm0 0 5.399-1.447-10.127-37.793-5.399 1.446 10.127 37.794Zm-32.253-23.185-5.399 1.447 1.447 5.399 5.399-1.447-1.447-5.399Zm10.798-2.893 5.399-1.447 1.447 5.4-5.399 1.446-1.447-5.4Zm-9.158 19.814-1.446-5.4-5.399 1.447 1.446 5.4 5.399-1.447Zm16.198-4.34 1.447 5.399-16.198 4.34-1.447-5.4 16.198-4.34Zm0 0 5.399-1.447-1.447-5.4-5.399 1.448 1.447 5.399Zm58.987-47.631-26.996 7.233 1.447 5.4-5.399 1.446 1.447 5.4-5.399 1.446 7.233 26.995 5.399-1.446 1.447 5.399 5.399-1.447 1.447 5.4 26.995-7.234-1.446-5.4 5.399-1.446-1.447-5.4 5.399-1.446-7.233-26.996-5.399 1.447-1.447-5.399-5.399 1.447-1.447-5.4Zm1.447 5.399 1.446 5.399 5.4-1.447 7.233 26.996-5.399 1.447 1.447 5.399-26.996 7.233-1.447-5.399-5.399 1.447-7.233-26.996 5.399-1.447-1.447-5.399 26.996-7.233ZM286.922 49l5.399-1.446 1.447 5.399 5.399-1.447 1.446 5.4-5.399 1.446-1.446-5.4-5.4 1.447L286.922 49Zm20.15-11.186-5.4 1.447 1.447 5.4-5.399 1.446 1.447 5.399 5.399-1.447-1.447-5.399 5.399-1.447-1.446-5.399Zm48.839-30.445-4.859 1.302 3.906 14.577 4.859-1.302-3.906-14.577Zm9.114 34.014-4.859 1.302 3.906 14.578 4.859-1.302-3.906-14.578Zm18.611-18.007 1.302 4.86-14.577 3.905-1.302-4.859 14.577-3.906ZM350.924 37.35l-1.302-4.859-14.578 3.906 1.302 4.86 14.578-3.907Zm13.101-19.134 4.859-1.302 1.302 4.859-4.859 1.302-1.302-4.86Zm8.416-7.463-4.859 1.301 1.302 4.86 4.859-1.302-1.302-4.86ZM349.447 22.12l-4.859 1.302 1.302 4.859 4.859-1.302-1.302-4.86Zm-11.02-2.255 4.859-1.302 1.302 4.859-4.859 1.302-1.302-4.86Zm32.108 22.645 4.859-1.302 1.302 4.859 4.86-1.302-1.302-4.86-4.86 1.303-1.302-4.86-4.859 1.303 1.302 4.859Zm-19.437 5.208-1.302-4.86 4.859-1.301 1.302 4.859-4.859 1.302 1.302 4.86-4.859 1.301-1.302-4.86 4.859-1.301ZM3.105 167.871l-4.86 1.302 3.906 14.578 4.86-1.302-3.906-14.578Zm9.114 34.015-4.86 1.302 3.907 14.578 4.859-1.302-3.906-14.578Zm18.611-18.007 1.302 4.859-14.577 3.906-1.302-4.859 14.577-3.906Zm-32.712 13.973-1.302-4.859-14.578 3.906 1.302 4.859 14.578-3.906Zm13.1-19.135 4.86-1.302 1.302 4.86-4.86 1.302-1.301-4.86Zm8.417-7.463-4.859 1.302 1.302 4.859 4.86-1.302-1.303-4.859Zm-22.994 11.37-4.859 1.302 1.302 4.859 4.86-1.302-1.303-4.859Zm-11.02-2.256 4.859-1.302 1.302 4.86-4.86 1.302-1.301-4.86Zm32.108 22.646 4.86-1.302 1.301 4.859 4.86-1.302-1.303-4.859-4.859 1.302-1.302-4.86-4.859 1.302 1.302 4.86Zm-19.437 5.208-1.302-4.86 4.86-1.302 1.301 4.86-4.859 1.302 1.302 4.859-4.86 1.302-1.301-4.859 4.86-1.302Zm57.309-54.417-8.835 2.368 1.302 4.859-4.417 1.184 1.302 4.859-4.418 1.183 3.906 14.578 4.418-1.184 1.302 4.86 4.417-1.184 1.302 4.859 4.418-1.183 1.302 4.859 4.417-1.184 1.302 4.859 4.418-1.183 1.302 4.859 4.417-1.184-1.302-4.859 4.418-1.184-1.302-4.859 4.417-1.184-1.302-4.859 4.417-1.183-1.302-4.86 4.418-1.183-1.302-4.86 4.417-1.183-3.906-14.578-4.417 1.184-1.302-4.859-4.418 1.183-1.302-4.859-8.835 2.367 1.303 4.86-4.418 1.183 1.302 4.859-4.418 1.184-1.301-4.859-4.418 1.184-1.302-4.86Zm1.302 4.86 1.302 4.859 4.418-1.184 1.302 4.859 4.417-1.183-1.302-4.86 4.417-1.183-1.301-4.859 8.834-2.368 1.302 4.859 4.418-1.183 3.906 14.577-4.418 1.184 1.303 4.859-4.418 1.184 1.302 4.859-4.417 1.184 1.302 4.859-4.418 1.184 1.302 4.859-4.417 1.184-1.302-4.86-4.418 1.184-1.302-4.859-4.417 1.184-1.302-4.86-4.418 1.184-1.302-4.859-4.417 1.183-3.906-14.577 4.417-1.184-1.302-4.859 8.835-2.367Zm47.979-18.065 37.794-10.127 1.447 5.399-37.794 10.127-1.447-5.399Zm11.574 43.193-5.4 1.446-10.126-37.793 5.399-1.447 10.127 37.794Zm37.793-10.127 1.447 5.399-37.794 10.127-1.446-5.399 37.793-10.127Zm0 0 5.4-1.447-10.127-37.794-5.399 1.447 10.126 37.794Zm-32.252-23.185-5.4 1.446 1.447 5.4 5.399-1.447-1.446-5.399Zm10.798-2.894 5.399-1.446 1.447 5.399-5.399 1.447-1.447-5.4Zm-9.158 19.815-1.447-5.4-5.399 1.447 1.447 5.399 5.399-1.446Zm16.197-4.341 1.447 5.4-16.197 4.34-1.447-5.399 16.197-4.341Zm0 0 5.4-1.446-1.447-5.399-5.399 1.446 1.446 5.399Zm58.991-47.632-26.995 7.233 1.446 5.399-5.399 1.447 1.447 5.399-5.399 1.447 7.233 26.996 5.399-1.447 1.447 5.399 5.399-1.447 1.447 5.399 26.995-7.233-1.446-5.399 5.399-1.447-1.447-5.399 5.399-1.447-7.233-26.995-5.399 1.446-1.447-5.399-5.399 1.447-1.447-5.399Zm1.447 5.399 1.447 5.399 5.399-1.447 7.233 26.996-5.399 1.447 1.447 5.399-26.996 7.233-1.447-5.399-5.399 1.447-7.233-26.996 5.399-1.446-1.447-5.4 26.996-7.233Zm-19.956 22.707 5.399-1.446 1.447 5.399 5.399-1.447 1.446 5.399-5.399 1.447-1.446-5.399-5.399 1.447-1.447-5.4Zm20.15-11.185-5.399 1.446 1.446 5.399-5.399 1.447 1.447 5.399 5.399-1.446-1.447-5.4 5.399-1.446-1.446-5.399Zm82.692-39.518-11.014 2.951 8.853 33.043 11.015-2.952-8.854-33.042Zm20.659 77.099-11.015 2.952 8.854 33.042 11.014-2.951-8.853-33.043Zm42.185-40.816 2.952 11.014-33.043 8.854-2.951-11.014 33.042-8.854Zm-74.148 31.673-2.951-11.014-33.043 8.854 2.951 11.014 33.043-8.854Zm29.696-43.372 11.014-2.951 2.952 11.014-11.015 2.951-2.951-11.014Zm19.077-16.917-11.014 2.952 2.951 11.014 11.015-2.951-2.952-11.015Zm-52.119 25.771-11.015 2.951 2.952 11.014 11.014-2.951-2.951-11.014Zm-24.98-5.112 11.014-2.951 2.951 11.014-11.014 2.951-2.951-11.014Zm72.778 51.329 11.015-2.951 2.951 11.014 11.014-2.951-2.951-11.014-11.014 2.951-2.952-11.014-11.014 2.951 2.951 11.014Zm-44.056 11.805-2.952-11.014 11.015-2.951 2.951 11.014-11.014 2.951 2.951 11.014-11.014 2.952-2.952-11.015 11.015-2.951ZM-1.731 235.137l37.794-10.126 1.446 5.399-37.794 10.126-1.446-5.399ZM9.842 278.33l-5.399 1.447-10.127-37.794 5.4-1.447L9.841 278.33Zm37.794-10.126 1.447 5.399-37.794 10.127-1.447-5.4 37.794-10.126Zm0 0 5.4-1.447-10.128-37.794-5.399 1.447 10.127 37.794Zm-32.253-23.186-5.399 1.447 1.447 5.399 5.399-1.446-1.447-5.4Zm10.799-2.893 5.399-1.447 1.446 5.399-5.399 1.447-1.446-5.399Zm-9.158 19.814-1.447-5.399-5.399 1.447 1.447 5.399 5.399-1.447Zm16.197-4.34 1.447 5.399-16.197 4.34-1.447-5.399 16.197-4.34Zm0 0 5.4-1.447-1.447-5.399-5.4 1.447 1.447 5.399Zm58.999-47.637-26.996 7.234 1.446 5.399-5.399 1.446 1.447 5.4-5.4 1.446 7.234 26.996 5.4-1.447 1.446 5.399 5.4-1.446 1.446 5.399 26.995-7.234-1.446-5.399 5.399-1.447-1.447-5.399 5.399-1.446-7.233-26.996-5.399 1.447-1.447-5.399-5.4 1.446-1.446-5.399Zm1.446 5.399 1.447 5.399 5.399-1.446 7.233 26.995-5.399 1.447 1.447 5.399-26.996 7.234-1.447-5.399-5.399 1.446-7.233-26.995 5.399-1.447-1.447-5.399 26.996-7.234ZM73.71 238.069l5.399-1.447 1.447 5.399 5.399-1.446 1.447 5.399-5.4 1.446-1.446-5.399-5.4 1.447-1.446-5.399Zm20.15-11.186-5.4 1.447 1.447 5.399-5.399 1.446 1.447 5.4 5.399-1.447-1.447-5.399 5.4-1.447-1.447-5.399Zm48.839-30.447-4.859 1.302 3.906 14.578 4.859-1.302-3.906-14.578Zm9.114 34.015-4.859 1.302 3.906 14.577 4.86-1.302-3.907-14.577Zm18.612-18.007 1.302 4.859-14.578 3.906-1.302-4.859 14.578-3.906Zm-32.713 13.973-1.302-4.859-14.577 3.906 1.302 4.859 14.577-3.906Zm13.102-19.135 4.859-1.302 1.302 4.859-4.859 1.302-1.302-4.859Zm8.416-7.463-4.859 1.302 1.302 4.859 4.859-1.302-1.302-4.859Zm-22.994 11.369-4.859 1.302 1.302 4.86 4.859-1.302-1.302-4.86Zm-11.021-2.255 4.86-1.302 1.302 4.859-4.859 1.302-1.303-4.859Zm32.109 22.645 4.859-1.302 1.302 4.86 4.859-1.303-1.302-4.859-4.859 1.302-1.302-4.859-4.859 1.302 1.302 4.859Zm-19.437 5.208-1.302-4.859 4.859-1.302 1.302 4.859-4.859 1.302 1.302 4.86-4.859 1.302-1.302-4.86 4.859-1.302Zm57.301-54.413-8.835 2.367 1.302 4.86-4.417 1.183 1.302 4.859-4.418 1.184 3.906 14.578 4.418-1.184 1.302 4.859 4.417-1.183 1.302 4.859 4.418-1.184 1.302 4.859 4.417-1.183 1.302 4.859 4.418-1.184 1.302 4.86 4.417-1.184-1.302-4.859 4.418-1.184-1.302-4.859 4.417-1.184-1.302-4.859 4.417-1.184-1.302-4.859 4.418-1.184-1.302-4.859 4.417-1.183-3.906-14.578-4.417 1.184-1.302-4.86-4.418 1.184-1.302-4.859-8.835 2.367 1.302 4.859-4.417 1.184 1.302 4.859-4.418 1.184-1.302-4.859-4.417 1.183-1.302-4.859Zm1.302 4.859 1.302 4.859 4.417-1.183 1.302 4.859 4.418-1.184-1.302-4.859 4.417-1.184-1.302-4.859 8.835-2.367 1.302 4.859 4.418-1.183 3.906 14.577-4.418 1.184 1.302 4.859-4.417 1.184 1.302 4.859-4.417 1.184 1.302 4.859-4.418 1.183 1.302 4.86-4.417 1.183-1.302-4.859-4.418 1.184-1.302-4.859-4.417 1.183-1.302-4.859-4.418 1.184-1.302-4.86-4.417 1.184-3.906-14.578 4.417-1.183-1.302-4.859 8.835-2.368ZM-14.39 304.497l-26.996 7.234 1.447 5.399-5.4 1.447 1.447 5.399-5.399 1.446 7.234 26.996 5.399-1.447 1.447 5.4 5.399-1.447 1.446 5.399 26.996-7.233-1.447-5.4 5.4-1.446-1.447-5.399 5.399-1.447L-.7 312.402l-5.399 1.447-1.446-5.399-5.4 1.446-1.446-5.399Zm1.447 5.399 1.446 5.4 5.4-1.447 7.233 26.996-5.4 1.446 1.447 5.399-26.995 7.234-1.447-5.399-5.4 1.446-7.233-26.995 5.4-1.447-1.447-5.399 26.995-7.234ZM-32.9 332.604l5.4-1.447 1.446 5.399 5.4-1.446 1.446 5.399-5.399 1.447-1.447-5.4-5.399 1.447-1.447-5.399Zm20.15-11.186-5.399 1.447 1.447 5.399-5.4 1.447 1.448 5.399 5.399-1.447-1.447-5.399 5.399-1.447-1.447-5.399Zm48.84-30.446-4.86 1.302 3.906 14.577 4.86-1.302-3.907-14.577Zm9.114 34.014-4.86 1.302 3.907 14.578 4.859-1.302-3.906-14.578Zm18.611-18.007 1.302 4.859-14.578 3.906-1.302-4.859 14.578-3.906Zm-32.712 13.973-1.303-4.859-14.577 3.906 1.302 4.859 14.578-3.906Zm13.1-19.134 4.86-1.303 1.302 4.86-4.86 1.302-1.301-4.859Zm8.417-7.464-4.86 1.302 1.303 4.859 4.86-1.302-1.303-4.859Zm-22.994 11.37-4.86 1.302 1.303 4.859 4.86-1.302-1.303-4.859Zm-11.02-2.256 4.859-1.302 1.302 4.86-4.86 1.302-1.301-4.86Zm32.108 22.646 4.86-1.302 1.301 4.859 4.86-1.302-1.303-4.859-4.859 1.302-1.302-4.86-4.86 1.302 1.303 4.86Zm-19.437 5.208-1.302-4.86 4.86-1.302 1.301 4.86-4.859 1.302 1.302 4.859-4.86 1.302-1.301-4.859 4.859-1.302Zm57.309-54.417-8.835 2.367 1.302 4.859-4.418 1.184 1.302 4.859-4.417 1.184 3.906 14.578 4.418-1.184 1.302 4.859 4.417-1.183 1.302 4.859 4.418-1.184 1.302 4.859 4.417-1.183 1.302 4.859 4.418-1.184 1.302 4.859 4.417-1.183-1.302-4.859 4.418-1.184-1.303-4.859 4.418-1.184-1.302-4.859 4.417-1.184-1.302-4.859 4.418-1.184-1.302-4.859 4.417-1.184-3.906-14.577-4.417 1.183-1.302-4.859-4.418 1.184-1.302-4.859-8.835 2.367 1.302 4.859-4.417 1.184 1.302 4.859-4.418 1.184-1.302-4.86-4.417 1.184-1.302-4.859Zm1.302 4.859 1.302 4.859 4.417-1.183 1.302 4.859 4.418-1.184-1.302-4.859 4.417-1.184-1.302-4.859 8.835-2.367 1.302 4.859 4.418-1.184 3.906 14.578-4.418 1.184 1.302 4.859-4.417 1.184 1.302 4.859-4.418 1.183 1.302 4.86-4.417 1.183 1.302 4.86-4.417 1.183-1.302-4.859-4.418 1.184-1.302-4.86-4.417 1.184-1.302-4.859-4.418 1.184-1.302-4.86-4.417 1.184-3.906-14.578 4.417-1.183-1.302-4.86 8.835-2.367Zm47.976-18.062 37.794-10.127 1.447 5.399-37.794 10.127-1.447-5.399Zm11.574 43.193-5.4 1.447-10.126-37.794 5.399-1.447 10.127 37.794Zm37.793-10.127 1.447 5.399-37.794 10.127-1.446-5.399 37.793-10.127Zm0 0 5.4-1.446-10.127-37.794-5.399 1.446 10.126 37.794Zm-32.252-23.185-5.4 1.447 1.447 5.399 5.399-1.447-1.446-5.399Zm10.798-2.893 5.399-1.447 1.447 5.399-5.4 1.447-1.446-5.399Zm-9.158 19.814-1.447-5.399-5.399 1.447 1.447 5.399 5.399-1.447Zm16.197-4.34 1.447 5.399-16.197 4.34-1.447-5.399 16.197-4.34Zm0 0 5.4-1.447-1.447-5.399-5.399 1.447 1.446 5.399Zm58.991-47.634-26.996 7.234 1.447 5.399-5.399 1.447 1.446 5.399-5.399 1.446 7.234 26.996 5.399-1.447 1.446 5.4 5.399-1.447 1.447 5.399 26.996-7.234-1.447-5.399 5.399-1.446-1.446-5.399 5.399-1.447-7.234-26.996-5.399 1.447-1.447-5.399-5.399 1.446-1.446-5.399Zm1.446 5.399 1.447 5.4 5.399-1.447 7.234 26.996-5.4 1.446 1.447 5.399-26.996 7.234-1.446-5.399-5.399 1.446-7.234-26.995 5.399-1.447-1.446-5.399 26.995-7.234Zm-19.956 22.708 5.399-1.447 1.447 5.399 5.399-1.446 1.447 5.399-5.399 1.447-1.447-5.4-5.399 1.447-1.447-5.399Zm20.15-11.186-5.399 1.447 1.447 5.399-5.399 1.447 1.446 5.399 5.399-1.447-1.446-5.399 5.399-1.447-1.447-5.399Zm48.844-30.448-4.86 1.302 3.906 14.578 4.86-1.302-3.906-14.578Zm9.114 34.014-4.859 1.302 3.906 14.578 4.859-1.302-3.906-14.578Zm18.611-18.007 1.302 4.86-14.577 3.906-1.302-4.86 14.577-3.906Zm-32.712 13.974-1.302-4.86-14.578 3.907 1.302 4.859 14.578-3.906Zm13.101-19.135 4.859-1.302 1.302 4.859-4.859 1.302-1.302-4.859Zm8.416-7.463-4.859 1.302 1.302 4.859 4.859-1.302-1.302-4.859Zm-22.994 11.369-4.859 1.302 1.302 4.859 4.859-1.302-1.302-4.859Zm-11.02-2.255 4.859-1.302 1.302 4.859-4.859 1.302-1.302-4.859Zm32.108 22.645 4.859-1.302 1.302 4.859 4.859-1.302-1.302-4.859-4.859 1.302-1.302-4.859-4.859 1.302 1.302 4.859Zm-19.437 5.208-1.302-4.859 4.859-1.302 1.302 4.859-4.859 1.302 1.302 4.859-4.859 1.302-1.302-4.859 4.859-1.302Zm57.308-54.418-8.835 2.368 1.302 4.859-4.417 1.184 1.302 4.859-4.418 1.183 3.906 14.578 4.418-1.184 1.302 4.86 4.417-1.184 1.302 4.859 4.418-1.183 1.302 4.859 4.417-1.184 1.302 4.859 4.418-1.183 1.302 4.859 4.417-1.184-1.302-4.859 4.418-1.184-1.302-4.859 4.417-1.183-1.302-4.86 4.418-1.183-1.302-4.86 4.417-1.183-1.302-4.859 4.417-1.184-3.906-14.578-4.417 1.184-1.302-4.859-4.418 1.183-1.302-4.859-8.835 2.367 1.303 4.86-4.418 1.183 1.302 4.86-4.417 1.183-1.302-4.859-4.418 1.184-1.302-4.86Zm1.302 4.86 1.302 4.859 4.418-1.184 1.302 4.859 4.417-1.183-1.302-4.859 4.418-1.184-1.302-4.859 8.834-2.368 1.302 4.86 4.418-1.184 3.906 14.578-4.417 1.183 1.302 4.859-4.418 1.184 1.302 4.859-4.417 1.184 1.302 4.859-4.418 1.184 1.302 4.859-4.417 1.184-1.302-4.86-4.418 1.184-1.302-4.859-4.417 1.184-1.302-4.86-4.418 1.184-1.302-4.859-4.417 1.183-3.906-14.577 4.417-1.184-1.302-4.859 8.835-2.367ZM31.254 358.238l37.794-10.127 1.447 5.399L32.7 363.637l-1.447-5.399Zm11.574 43.193-5.4 1.447-10.126-37.794 5.399-1.447 10.127 37.794Zm37.794-10.127 1.446 5.399-37.794 10.127-1.446-5.399 37.794-10.127Zm0 0 5.399-1.447-10.127-37.794-5.4 1.447 10.128 37.794Zm-32.253-23.185-5.4 1.447 1.447 5.399 5.4-1.447-1.447-5.399Zm10.798-2.893 5.4-1.447 1.446 5.399-5.4 1.447-1.446-5.399Zm-9.158 19.814-1.447-5.399-5.399 1.446 1.447 5.399 5.4-1.446Zm16.198-4.34 1.446 5.399-16.197 4.34-1.447-5.399 16.198-4.34Zm0 0 5.399-1.447-1.447-5.399-5.4 1.446 1.448 5.4Zm58.994-47.636-26.996 7.233 1.447 5.399-5.4 1.447 1.447 5.399-5.399 1.447 7.234 26.995 5.399-1.446 1.446 5.399 5.4-1.447 1.446 5.399 26.996-7.233-1.447-5.399 5.399-1.447-1.446-5.399 5.399-1.447-7.234-26.995-5.399 1.446-1.447-5.399-5.399 1.447-1.446-5.399Zm1.446 5.399 1.447 5.399 5.399-1.447 7.234 26.996-5.4 1.447 1.447 5.399-26.995 7.233-1.447-5.399-5.399 1.447-7.234-26.996 5.399-1.447-1.446-5.399 26.995-7.233Zm-19.956 22.707 5.399-1.446 1.447 5.399 5.399-1.447 1.447 5.399-5.399 1.447-1.447-5.399-5.399 1.446-1.447-5.399Zm20.15-11.186-5.399 1.447 1.447 5.399-5.399 1.447 1.446 5.399 5.399-1.447-1.446-5.399 5.399-1.446-1.447-5.4Zm48.843-30.448-4.859 1.302 3.906 14.577 4.859-1.302-3.906-14.577Zm9.114 34.014-4.859 1.302 3.906 14.578 4.859-1.302-3.906-14.578Zm18.612-18.007 1.302 4.859-14.578 3.906-1.302-4.859 14.578-3.906Zm-32.713 13.974-1.302-4.86-14.577 3.906 1.302 4.86 14.577-3.906Zm13.101-19.135 4.86-1.302 1.302 4.859-4.86 1.302-1.302-4.859Zm8.417-7.463-4.859 1.302 1.302 4.859 4.859-1.302-1.302-4.859Zm-22.994 11.369-4.859 1.302 1.302 4.859 4.859-1.302-1.302-4.859Zm-11.021-2.255 4.86-1.302 1.302 4.859-4.86 1.302-1.302-4.859Zm32.109 22.645 4.859-1.302 1.302 4.859 4.859-1.302-1.302-4.859-4.859 1.302-1.302-4.859-4.859 1.302 1.302 4.859Zm-19.437 5.208-1.302-4.859 4.859-1.302 1.302 4.859-4.859 1.302 1.302 4.859-4.859 1.302-1.303-4.859 4.86-1.302Zm57.305-54.415-8.835 2.367 1.302 4.86-4.418 1.183 1.302 4.86-4.417 1.183 3.906 14.578 4.417-1.184 1.302 4.859 4.418-1.183 1.302 4.859 4.417-1.184 1.302 4.86 4.418-1.184 1.302 4.859 4.417-1.184 1.302 4.86 4.418-1.184-1.302-4.859 4.417-1.184-1.302-4.859 4.418-1.184-1.302-4.859 4.417-1.184-1.302-4.859 4.418-1.184-1.302-4.859 4.417-1.183-3.906-14.578-4.417 1.184-1.302-4.86-4.418 1.184-1.302-4.859-8.835 2.367 1.302 4.859-4.417 1.184 1.302 4.859-4.418 1.184-1.302-4.859-4.417 1.183-1.302-4.859Zm1.302 4.859 1.302 4.86 4.417-1.184 1.302 4.859 4.418-1.184-1.302-4.859 4.417-1.183-1.302-4.86 8.835-2.367 1.302 4.859 4.418-1.183 3.906 14.577-4.418 1.184 1.302 4.859-4.417 1.184 1.302 4.859-4.418 1.184 1.302 4.859-4.417 1.184 1.302 4.859-4.418 1.183-1.302-4.859-4.417 1.184-1.302-4.859-4.418 1.183-1.302-4.859-4.417 1.184-1.302-4.859-4.418 1.183-3.906-14.577 4.418-1.184-1.302-4.859 8.835-2.368Zm47.979-18.064 37.794-10.127 1.446 5.399-37.794 10.127-1.446-5.399Zm11.573 43.193-5.399 1.446-10.127-37.794 5.399-1.446 10.127 37.794Zm37.794-10.127 1.447 5.399-37.794 10.127-1.447-5.399 37.794-10.127Zm0 0 5.399-1.447-10.127-37.794-5.399 1.447 10.127 37.794Zm-32.253-23.185-5.399 1.446 1.447 5.399 5.399-1.446-1.447-5.399Zm10.799-2.894 5.399-1.446 1.446 5.399-5.399 1.446-1.446-5.399Zm-9.158 19.814-1.447-5.399-5.399 1.447 1.447 5.399 5.399-1.447Zm16.197-4.34 1.447 5.399-16.198 4.34-1.446-5.399 16.197-4.34Zm0 0 5.399-1.446-1.446-5.4-5.4 1.447 1.447 5.399Zm-397.414 74.661L.663 366.433l3.279 12.238-85.667 22.955-3.279-12.238Zm26.234 97.904-12.238 3.279-22.955-85.666 12.238-3.279 22.955 85.666Zm85.666-22.954 3.279 12.238-85.666 22.954-3.28-12.238 85.667-22.954Zm0 0 12.238-3.28-22.954-85.666-12.238 3.279 22.954 85.667Zm-73.107-52.553-12.238 3.279 3.28 12.238 12.237-3.279-3.279-12.238Zm24.476-6.559 12.238-3.279 3.28 12.238-12.239 3.279-3.279-12.238Zm-20.757 44.912-3.28-12.238-12.237 3.28 3.279 12.238 12.238-3.28Zm36.714-9.837 3.279 12.238-36.714 9.837-3.28-12.238 36.715-9.837Zm0 0 12.238-3.279-3.28-12.238-12.237 3.279 3.279 12.238Zm176.626-53.5 37.794-10.127 1.447 5.399-37.794 10.127-1.447-5.399Zm11.574 43.193-5.399 1.447-10.127-37.794 5.399-1.447 10.127 37.794Zm37.794-10.127 1.446 5.399-37.793 10.127-1.447-5.399 37.794-10.127Zm0 0 5.399-1.446-10.127-37.794-5.399 1.446 10.127 37.794Zm-32.253-23.185-5.399 1.447 1.446 5.399 5.4-1.447-1.447-5.399Zm10.798-2.893 5.399-1.447 1.447 5.399-5.399 1.447-1.447-5.399Zm-9.158 19.814-1.446-5.399-5.399 1.447 1.446 5.399 5.399-1.447Zm16.198-4.34 1.446 5.399-16.197 4.34-1.447-5.399 16.198-4.34Zm0 0 5.399-1.447-1.447-5.399-5.399 1.447 1.447 5.399Zm58.998-47.637-26.995 7.234 1.446 5.399-5.399 1.447 1.447 5.399-5.399 1.447 7.233 26.995 5.399-1.446 1.447 5.399 5.399-1.447 1.447 5.399 26.996-7.233-1.447-5.4 5.399-1.446-1.447-5.399 5.399-1.447-7.233-26.996-5.399 1.447-1.447-5.399-5.399 1.447-1.447-5.4Zm1.447 5.4 1.447 5.399 5.399-1.447 7.233 26.996-5.399 1.446 1.447 5.399-26.996 7.234-1.447-5.399-5.399 1.447-7.233-26.996 5.399-1.447-1.447-5.399 26.996-7.233Zm-19.956 22.707 5.399-1.447 1.447 5.4 5.399-1.447 1.447 5.399-5.4 1.447-1.446-5.399-5.399 1.446-1.447-5.399Zm20.15-11.186-5.399 1.447 1.446 5.399-5.399 1.447 1.447 5.399 5.399-1.447-1.447-5.399 5.399-1.447-1.446-5.399Zm48.835-30.445-4.859 1.303 3.906 14.577 4.86-1.302-3.907-14.578Zm9.115 34.015-4.86 1.302 3.907 14.578 4.859-1.302-3.906-14.578Zm18.611-18.007 1.302 4.859-14.578 3.906-1.302-4.859 14.578-3.906Zm-32.712 13.973-1.302-4.859-14.578 3.906 1.302 4.859 14.578-3.906Zm13.101-19.134 4.859-1.303 1.302 4.86-4.859 1.302-1.302-4.859Zm8.416-7.464-4.859 1.302 1.302 4.859 4.859-1.302-1.302-4.859Zm-22.994 11.37-4.859 1.302 1.302 4.859 4.859-1.302-1.302-4.859Zm-11.02-2.256 4.859-1.302 1.302 4.86-4.859 1.302-1.302-4.86Zm32.108 22.646 4.859-1.302 1.302 4.859 4.859-1.302-1.302-4.859-4.859 1.302-1.302-4.86-4.859 1.302 1.302 4.86Zm-19.437 5.208-1.302-4.86 4.859-1.302 1.302 4.86-4.859 1.302 1.302 4.859-4.859 1.302-1.302-4.859 4.859-1.302Z"/></g><defs><clipPath id="a"><path fill="#fff" d="M0 0h332v380H0z"/></clipPath></defs></svg>