<svg xmlns="http://www.w3.org/2000/svg" width="306" height="298" fill="none"><g clip-path="url(#a)"><path fill="#EDEDF7" fill-rule="evenodd" d="M-27.605-57.723a1.265 1.265 0 0 1 1.362 1.16C-23.139-18.242-13.58 7.646-3.677 23.881 18.18 59.72 45.083 78.674 70.448 87.736c4.203-19.169 17.83-33.502 30.39-43.05 6.451-4.905 12.663-8.579 17.261-11.027a112.24 112.24 0 0 1 5.528-2.76 72.286 72.286 0 0 1 2.061-.914l.016-.007.012-.005.019-.009.12-.052.193-.084.265-.113c.401-.17.987-.415 1.737-.715a130.95 130.95 0 0 1 6.281-2.324c5.252-1.797 12.425-3.9 20.072-5.106 7.632-1.204 15.827-1.53 23.083.301 7.294 1.84 13.679 5.878 17.502 13.38 3.788 7.43 3.831 14.43 1.333 20.808-2.477 6.324-7.416 11.95-13.447 16.807-12.052 9.705-28.823 16.621-40.585 20.036-15.341 5.08-41.585 7.555-69.907-1.825-5.032 34.894-.922 61.297 8.978 80.742 56.956-56.487 116.583-66.057 144.418-68.583 9.292-.843 23.481.042 35.898 5.484 12.473 5.467 23.231 15.582 25.269 33.125 2.048 17.632-9.075 33.645-23.46 46.086-14.429 12.478-32.454 21.646-44.952 25.59-24.484 7.725-52.51 10.282-77.725 4.773-24.721-5.401-46.795-18.575-60.067-42.269-6.648 6.759-13.254 14.175-19.763 22.313-15.49 19.369-20.59 38.386-18.711 56.435 1.883 18.091 10.795 35.355 23.598 51.136 25.623 31.579 66.569 56.887 96.516 70.518l.018.008.018.009c12.527 6.172 47.987 20.91 89.245 30.287a1.265 1.265 0 0 1-.559 2.467c-41.451-9.42-77.086-24.22-89.786-30.476-30.13-13.717-71.454-39.223-97.414-71.219-12.99-16.01-22.199-33.726-24.15-52.468-1.956-18.783 3.394-38.45 19.251-58.279 6.74-8.427 13.587-16.089 20.48-23.058-10.48-20.12-14.755-47.332-9.595-83.048l.002-.012.002-.013.064-.378C43.933 81.037 16.42 61.69-5.835 25.2-15.98 8.567-25.632-17.72-28.763-56.36a1.264 1.264 0 0 1 1.158-1.363ZM72.855 88.568c27.919 9.332 53.758 6.866 68.661 1.925l.023-.008.023-.006c11.591-3.363 28.027-10.162 39.727-19.584 5.848-4.71 10.423-10.003 12.678-15.76 2.234-5.704 2.229-11.949-1.23-18.735-3.423-6.715-9.118-10.372-15.868-12.075-6.789-1.714-14.602-1.434-22.072-.256-7.455 1.177-14.479 3.233-19.648 5.001a128.473 128.473 0 0 0-6.159 2.279 85.76 85.76 0 0 0-1.688.695l-.437.188c-.049.02-.085.037-.109.047l-.032.015h-.002l-.018.008-.018.008h-.001l-.005.002-.023.01-.095.04a69.45 69.45 0 0 0-1.873.834c-1.29.598-3.147 1.496-5.402 2.697-4.511 2.401-10.602 6.004-16.92 10.807-12.425 9.446-25.57 23.41-29.513 41.868Zm9.74 85.589c12.806 23.328 34.353 36.334 58.751 41.665 24.707 5.398 52.28 2.905 76.426-4.714 12.187-3.846 29.904-12.85 44.06-25.091 14.198-12.279 24.501-27.532 22.602-43.88-1.909-16.437-11.905-25.899-23.772-31.099-11.922-5.226-25.659-6.098-34.655-5.282-27.611 2.506-86.867 12.007-143.411 68.401Z" clip-rule="evenodd"/></g><defs><clipPath id="a"><path fill="#fff" d="M0 38.4c0-13.441 0-20.162 2.616-25.296A24 24 0 0 1 13.104 2.616C18.238 0 24.96 0 38.4 0H306v298H38.4c-13.441 0-20.162 0-25.296-2.616a23.999 23.999 0 0 1-10.488-10.488C0 279.762 0 273.041 0 259.6V38.4Z"/></clipPath></defs></svg>