<svg xmlns="http://www.w3.org/2000/svg" width="18" height="18" fill="none"><g clip-path="url(#a)"><path fill="#00247D" d="M0 4.53V6.5h2.814L0 4.53ZM2.332 15.5H6.5v-2.918L2.332 15.5Zm9.168-2.918V15.5h4.168L11.5 12.582ZM0 11.5v1.97l2.815-1.97H0Zm15.668-9H11.5v2.918L15.668 2.5ZM18 13.471V11.5h-2.816L18 13.471ZM18 6.5V4.53L15.185 6.5H18Zm-11.5-4H2.332L6.5 5.418V2.5Z"/><path fill="#CF1B2B" d="m12.57 11.5 4.856 3.4c.237-.244.408-.545.495-.874L14.314 11.5H12.57Zm-6.07 0H5.43L.574 14.9c.26.265.595.454.969.543L6.5 11.972V11.5Zm5-5h1.07l4.856-3.4a1.994 1.994 0 0 0-.968-.542L11.5 6.027V6.5Zm-6.07 0L.574 3.1a1.997 1.997 0 0 0-.495.874L3.686 6.5H5.43Z"/><path fill="#EEE" d="M18 10.5h-7.5v5h1v-2.918l4.168 2.918H16a1.997 1.997 0 0 0 1.426-.6l-4.856-3.4h1.743l3.608 2.526c.047-.168.079-.343.079-.526v-.029L15.184 11.5H18v-1Zm-18 0v1h2.815L0 13.47v.03c0 .546.22 1.039.574 1.4l4.856-3.4H6.5v.472l-4.957 3.47c.147.035.299.058.457.058h.332L6.5 12.582V15.5h1v-5H0Zm18-6c0-.524-.206-1.027-.574-1.4l-4.855 3.4H11.5v-.471l4.957-3.471A2 2 0 0 0 16 2.5h-.332L11.5 5.418V2.5h-1v5H18v-1h-2.815L18 4.53V4.5Zm-11.5-2v2.918L2.332 2.5H2a1.992 1.992 0 0 0-1.426.6L5.43 6.5H3.686L.079 3.974c-.05.171-.077.348-.079.526v.03L2.814 6.5H0v1h7.5v-5h-1Z"/><path fill="#CF1B2B" d="M10.5 7.5v-5h-3v5H0v3h7.5v5h3v-5H18v-3h-7.5Z"/></g><defs><clipPath id="a"><path fill="#fff" d="M0 0h18v18H0z"/></clipPath></defs></svg>