<svg xmlns="http://www.w3.org/2000/svg" width="83" height="58" fill="none"><g clip-path="url(#a)"><path fill="red" d="M81.167 9.016a10.312 10.312 0 0 0-2.694-4.608 10.457 10.457 0 0 0-4.652-2.668C67.381 0 41.458 0 41.458 0S15.534.053 9.093 1.793A10.457 10.457 0 0 0 4.44 4.46a10.312 10.312 0 0 0-2.694 4.608C-.2 20.404-.957 37.676 1.801 48.559a10.311 10.311 0 0 0 2.693 4.607 10.456 10.456 0 0 0 4.652 2.668c6.441 1.74 32.364 1.74 32.364 1.74s25.923 0 32.364-1.74a10.458 10.458 0 0 0 4.652-2.668 10.311 10.311 0 0 0 2.694-4.608c2.055-11.351 2.688-28.613-.053-39.542Z"/><path fill="#fff" d="m33.207 41.124 21.505-12.337L33.207 16.45v24.674Z"/></g><defs><clipPath id="a"><path fill="#fff" d="M0 0h83v57.804H0z"/></clipPath></defs></svg>