<svg xmlns="http://www.w3.org/2000/svg" width="108" height="24" fill="none"><g fill="#fff" clip-path="url(#a)"><path fill-rule="evenodd" d="M32.607 1.814a4.234 4.234 0 0 1 1.12 1.896c1.139 4.497.875 11.6.022 16.27a4.233 4.233 0 0 1-1.12 1.897 4.355 4.355 0 0 1-1.933 1.097c-2.676.716-13.448.716-13.448.716s-10.771 0-13.447-.716a4.355 4.355 0 0 1-1.933-1.097 4.233 4.233 0 0 1-1.12-1.896C-.397 15.503-.083 8.396.726 3.73a4.234 4.234 0 0 1 1.12-1.896A4.355 4.355 0 0 1 3.778.738C6.455.022 17.226 0 17.226 0s10.772 0 13.448.716a4.355 4.355 0 0 1 1.933 1.098Zm-9.873 10.031-8.936 5.077V6.769l8.936 5.076Z" clip-rule="evenodd"/><path d="M103.62 6.877c1.173 0 2.057.217 2.676.63.62.412 1.062 1.062 1.328 1.952.265.89.376 2.104.376 3.666v2.539h-5.685v.78l.089 2.148c.066.478.177.825.354 1.042.177.217.464.325.84.325.509 0 .863-.195 1.04-.585.199-.391.287-1.042.309-1.931l2.942.173c.022.13.022.304.022.52 0 1.367-.376 2.387-1.15 3.06-.774.672-1.836 1.02-3.229 1.02-1.681 0-2.853-.521-3.517-1.54-.663-1.02-1.017-2.626-1.017-4.774v-2.625c.075-3.688.736-6.389 4.622-6.4Zm-40.896.282v10.87c0 .65.066 1.128.22 1.41.315.603 1.129.448 1.571.151.256-.169.462-.4.597-.672V7.159h3.385v14.818h-2.655l-.287-1.823h-.067c-.73 1.367-1.813 2.061-3.25 2.061-2.214-.005-2.755-1.569-2.884-3.157l-.008-.112c-.016-.24-.026-.482-.028-.723V7.16h3.406Zm17.451 0v10.87c0 .65.066 1.128.221 1.41.314.603 1.128.448 1.57.151.256-.169.462-.4.598-.672V7.159h3.384v14.818h-2.654l-.288-1.823h-.066c-.73 1.367-1.814 2.061-3.252 2.061-2.212-.005-2.754-1.569-2.883-3.157l-.008-.112c-.016-.24-.025-.482-.028-.723V7.16h3.406Zm-27.272-.282c1.106 0 2.013.217 2.677.673.663.455 1.172 1.15 1.481 2.104.31.955.465 2.235.465 3.819v2.147c0 1.584-.155 2.842-.465 3.797-.31.954-.796 1.649-1.481 2.104-.686.434-1.615.673-2.765.673-1.195.021-2.124-.217-2.81-.651-.685-.456-1.172-1.15-1.459-2.104-.288-.955-.42-2.213-.42-3.797v-2.148c0-1.584.155-2.885.486-3.84.332-.976.84-1.67 1.548-2.104.708-.434 1.615-.673 2.743-.673ZM91.256.933v7.81h.022c.31-.564.708-1.02 1.261-1.367a3.162 3.162 0 0 1 1.747-.52c.819 0 1.438.217 1.903.629.464.434.796 1.106.995 2.04.193.903.303 2.153.31 3.729v2.496c0 2.192-.288 3.819-.819 4.86-.553 1.041-1.393 1.562-2.543 1.562a3.653 3.653 0 0 1-1.748-.434 3.067 3.067 0 0 1-1.128-1.115l-.044-.078h-.066l-.354 1.41h-2.81V.933h3.274Zm-13.536.76v2.69h-3.362v17.594H71.04V4.382h-3.384v-2.69H77.72Zm-36.473 0 .002.008c.032.14.48 2.09.971 4.363l.039.18.059.272.039.182.02.092.039.184.02.092.038.184.057.27c.333 1.573.65 3.15.84 4.282h.088c.181-1.015.445-2.314.727-3.64l.074-.346.111-.52.058-.268c.382-1.757.776-3.512 1.18-5.264l.007-.028.01-.044h3.384l-3.915 13.69v6.573h-3.34v-6.552h-.022l-3.87-13.71h3.384Zm11.59 7.484c-.465 0-.774.239-.973.738-.2.499-.288 1.258-.288 2.321v4.62c0 1.086.088 1.888.266 2.366.177.477.508.716.995.716.464 0 .796-.24.995-.716.2-.478.288-1.28.288-2.365v-4.621c0-1.063-.089-1.844-.288-2.322-.199-.498-.53-.737-.995-.737Zm39.016.434c-.27.244-.46.545-.575.921l-.022.077v8.417c.274.456.664.76 1.35.781.353 0 .64-.13.862-.39.221-.26.376-.695.464-1.302.085-.583.13-1.386.133-2.41v-2.059c0-1.171-.044-2.06-.11-2.69-.09-.63-.2-1.085-.398-1.345-.386-.543-1.217-.536-1.704 0Zm11.701-.5c-.376.023-.642.131-.796.326-.177.217-.288.543-.354 1.02-.065.468-.088 2.102-.089 2.167v1.066h2.478v-.94.018c-.002.329-.009-.19-.024-.827l-.002-.086c-.014-.56-.034-1.184-.063-1.398-.066-.5-.177-.846-.354-1.041-.177-.196-.442-.304-.796-.304Z"/></g><defs><clipPath id="a"><path fill="#fff" d="M0 0h108v24H0z"/></clipPath></defs></svg>