<svg xmlns="http://www.w3.org/2000/svg" width="300" height="600" fill="none"><g clip-path="url(#a)"><path fill="#fff" fill-rule="evenodd" d="M254.931-14.016a1.5 1.5 0 0 1-.088 2.12c-23.049 21.228-54.955 55.843-76.279 91.077-10.665 17.62-18.628 35.306-21.561 51.489-2.86 15.78-.921 29.998 7.803 41.406 23.541-7.738 49.369-8.127 71.525-4.811 22.414 3.355 41.347 10.545 50.415 18.015 9.101 7.498 11.367 14.948 9.562 21.374-1.752 6.235-7.207 10.972-12.412 13.495-10.373 5.03-29.864 5.927-51.811-.268-22.031-6.219-46.767-19.64-67.696-43.582a40.017 40.017 0 0 1-.608-.709c-11.577 4.037-22.494 9.93-32.008 18.126-47.632 41.032-56.091 84.759-46.292 117.902 28.046-18.819 60.772-23.629 89.471-21.786 29.239 1.877 54.525 10.677 66.676 18.862 4.496 3.028 10.679 8.888 15.004 16.78 4.34 7.921 6.839 17.955 3.789 29.213-3.385 12.495-10.008 21.051-18.507 26.625-8.466 5.553-18.694 8.085-29.232 8.74-21.043 1.309-43.709-4.844-57.176-10.05-22.461-8.36-58.204-24.799-71.642-63.603a117.178 117.178 0 0 0-9.696 7.815c-14.377 12.903-20.635 30.612-21.135 51.111-.501 20.528 4.781 43.759 13.396 67.48 17.228 47.436 47.64 96.453 70.891 128.999a1.499 1.499 0 1 1-2.441 1.744c-23.323-32.647-53.91-81.916-71.27-129.719-8.68-23.899-14.089-47.526-13.575-68.577.514-21.08 6.977-39.671 22.13-53.271a120.268 120.268 0 0 1 10.723-8.572c-10.63-34.565-1.894-79.908 46.928-121.965 9.571-8.246 20.487-14.212 32.011-18.345-8.875-12.132-10.67-26.992-7.775-42.964 3.026-16.691 11.189-34.735 21.946-52.508 21.519-35.554 53.639-70.386 76.814-91.73a1.5 1.5 0 0 1 2.12.087ZM86.422 314.604c12.739 38.003 47.603 54.203 70.139 62.59l.009.003.008.004c13.262 5.126 35.473 11.128 55.918 9.857 10.209-.635 19.88-3.078 27.773-8.255 7.86-5.155 14.056-13.084 17.256-24.9 2.804-10.351.531-19.586-3.524-26.987-4.071-7.428-9.907-12.943-14.049-15.734-11.593-7.81-36.324-16.503-65.193-18.357-28.513-1.83-60.84 3.027-88.337 21.779Zm80.436-140.039c20.471 23.319 44.599 36.376 66.042 42.429 21.6 6.097 40.249 5.032 49.687.456 4.769-2.312 9.398-6.5 10.833-11.608 1.381-4.917-.066-11.231-8.582-18.247-8.451-6.962-26.75-14.04-48.951-17.363-21.477-3.214-46.346-2.872-69.029 4.333Z" clip-rule="evenodd" opacity=".25"/></g><defs><clipPath id="a"><path fill="#fff" d="M0 0h300v600H0z"/></clipPath></defs></svg>