<svg xmlns="http://www.w3.org/2000/svg" width="1245" height="1154" fill="none"><path fill="#fff" d="m193.805 735.479 3.897 3.767 3.656-3.781 3.643 3.522-3.656 3.782 3.851 3.722-3.5 3.621-3.851-3.723-3.656 3.782-3.643-3.523 3.656-3.781-3.897-3.768 3.5-3.62Zm-9.317 17.436-3.897-3.767-3.5 3.62 3.897 3.767-3.656 3.782 3.643 3.522 3.656-3.781 3.851 3.722 3.5-3.62-3.851-3.723 3.656-3.781-3.643-3.522-3.656 3.781Zm-17.927 21.958a8.853 8.853 0 0 1-1.39-1.746 6.438 6.438 0 0 1-.806-2.028 5.225 5.225 0 0 1 .122-2.202c.214-.744.663-1.47 1.347-2.177.876-.907 1.782-1.444 2.717-1.611.935-.167 1.853.021 2.754.565l3.901-4.035c-1.104-.919-2.256-1.542-3.456-1.869a8.665 8.665 0 0 0-3.565-.235 9.527 9.527 0 0 0-3.383 1.146 12.41 12.41 0 0 0-2.956 2.273c-1.219 1.26-2.126 2.584-2.723 3.97-.582 1.371-.853 2.759-.814 4.164.054 1.391.417 2.768 1.091 4.133.688 1.379 1.678 2.693 2.969 3.942 1.276 1.233 2.615 2.156 4.017 2.767 1.401.611 2.805.913 4.211.904 1.406-.008 2.784-.327 4.135-.954 1.365-.613 2.635-1.527 3.809-2.741a12.202 12.202 0 0 0 2.172-3.031c.556-1.098.877-2.215.964-3.351.117-1.136-.023-2.283-.421-3.44-.383-1.173-1.06-2.318-2.031-3.436l-3.812 3.943c.559.898.786 1.801.68 2.71-.075.909-.558 1.824-1.45 2.747-.684.707-1.394 1.18-2.131 1.419a4.59 4.59 0 0 1-2.151.241 6.053 6.053 0 0 1-2.03-.714 9.657 9.657 0 0 1-1.77-1.354Zm942.549-298.822 4.72 6.809 6.27-.554-10.23-14.139-3.24.286-7.49 15.704 6.41-.566 3.56-7.54Zm-17.58 11.14.52 5.964 34.07 8.282-.53-5.998-34.06-8.248Zm15.88 18.266 4.75 6.806 3.53-7.538 6.37-.563-7.45 15.667-3.24.286-10.27-14.101 6.31-.557Z"/><path fill="#fff" fill-rule="evenodd" d="M1242.65 77.705C1137.41 39.6 975.434-1.283 831.564.031 759.631.688 691.98 11.894 638.176 39.476c-53.912 27.638-93.861 71.698-110.188 137.734-12.97 52.458-5.731 107.441 15.374 160.548l.357.898-.886.387C355.545 420.89 280.385 553.096 273.932 675.887l-.027.517-.438.276c-16.238 10.263-32.143 21.755-47.596 34.31-12.783-11.004-32.089-10.247-43.962 2.034l-42.992 44.471c-11.519 11.915-11.96 30.456-1.539 42.878C55.89 901.248.612 1030.69 0 1150.4a2.874 2.874 0 0 0 2.858 2.89c1.587 0 2.88-1.28 2.888-2.86.603-118.02 55.146-246.047 135.723-345.981 12.782 10.652 31.814 9.785 43.566-2.37l42.992-44.471c11.397-11.789 11.949-30.065 1.865-42.482 13.735-11.137 27.808-21.408 42.135-30.701l1.59-1.031-.046 1.894a333.705 333.705 0 0 0 .047 17.957c2.124 71.928 27.374 138.821 66.456 187.986 39.075 49.156 92.146 80.768 149.882 81.603 67.434.974 124.207-45.431 151.193-103.817 27.005-58.43 24.526-129.66-27.578-178.423-60.751-56.856-129.608-75.911-198.659-67.527-45.185 5.486-90.371 22.707-133.397 48.645l-1.647.993.133-1.919c8.232-118.828 82.345-246.562 264.967-326.409l.928-.406.394.933c4.783 11.334 10.189 22.572 16.154 33.669 35.084 65.269 89.652 125.961 151.479 173.47 61.815 47.501 131.059 81.956 195.592 94.561 64.532 12.605 124.745 3.407 167.795-37.007 16.71-15.679 28.48-33.432 35.63-52.362l.45-.029c.17-.013.34-.027.51-.043 19.41-1.714 33.75-18.911 32.03-38.41l-4.9-55.481c-1.73-19.5-18.86-33.917-38.26-32.202-.92.081-1.83.196-2.72.345-13.27-24.465-32.5-47.859-57.05-68.565-86.17-72.684-238.117-112.517-430.419-50.155-22.118 7.173-42.983 14.958-62.642 23.29l-.942.399-.377-.951c-20.705-52.189-27.655-105.88-15.054-156.844 15.887-64.258 54.641-107.04 107.231-134C693.495 17.575 760.144 6.43 831.616 5.776 974.557 4.471 1135.82 45.134 1240.7 83.108a2.873 2.873 0 0 0 1.95-5.403Zm-1056.623 639.3c9.516-9.844 24.844-10.674 35.337-2.313a26.714 26.714 0 0 1 4.099 4.065c8.261 10.199 7.8 25.195-1.554 34.871l-42.992 44.471c-9.667 9.999-25.333 10.698-35.833 1.907a26.598 26.598 0 0 1-4.007-4.172c-7.84-10.183-7.242-24.843 1.957-34.359l42.993-44.47Zm927.323-166.146c-1.44.127-2.86.146-4.26.065-14.12-.823-25.88-11.942-27.17-26.517l-4.9-55.481c-1.23-13.926 7.51-26.422 20.29-30.374 1.87-.578 3.83-.973 5.85-1.163l.05-.004.11-.011c15.94-1.408 30.02 10.435 31.43 26.452l4.9 55.481c1.36 15.378-9.44 29.013-24.42 31.323-.62.096-1.25.173-1.88.229Zm-42.61-81.379c-1.46-16.533 8.63-31.412 23.56-36.6-12.86-23.305-31.36-45.694-55-65.638-84.398-71.185-234.186-110.943-424.947-49.081-21.996 7.133-42.733 14.871-62.261 23.149l-.919.389.388.92c4.712 11.169 10.046 22.261 15.945 33.234 34.638 64.439 88.624 124.534 149.918 171.634 61.304 47.108 129.745 81.085 193.193 93.478 63.449 12.394 121.513 3.156 162.763-35.557 15.49-14.539 26.55-30.896 33.46-48.327-16.34-1.843-29.69-15.029-31.2-32.12l-4.9-55.481ZM415.604 628.771c67.387-8.182 134.547 10.339 194.041 66.018 49.817 46.624 52.557 114.982 26.288 171.818-26.289 56.879-81.283 101.415-145.895 100.481-55.597-.803-107.173-31.261-145.465-79.432-38.285-48.161-63.122-113.85-65.211-184.581a326.885 326.885 0 0 1 .123-22.868l.021-.531.451-.279c43.807-27.134 89.823-45.062 135.647-50.626Z" clip-rule="evenodd"/></svg>