<svg xmlns="http://www.w3.org/2000/svg" width="714" height="662" fill="none"><path fill="#fff" d="m111.186 422.174 2.236 2.162 2.098-2.17 2.09 2.021-2.098 2.171 2.21 2.137-2.008 2.078-2.21-2.137-2.097 2.171-2.09-2.022 2.097-2.171-2.235-2.162 2.007-2.078ZM105.841 432.182l-2.236-2.162-2.007 2.078 2.235 2.162-2.097 2.171 2.09 2.022 2.097-2.171 2.21 2.137 2.008-2.078-2.21-2.137 2.098-2.171-2.09-2.021-2.098 2.17ZM95.557 444.786c-.3-.29-.566-.624-.798-1.002a3.698 3.698 0 0 1-.462-1.164 3.003 3.003 0 0 1 .07-1.264c.122-.427.38-.844.772-1.25.503-.52 1.023-.829 1.56-.925.535-.095 1.062.013 1.58.325l2.237-2.316c-.633-.528-1.294-.885-1.983-1.073a4.975 4.975 0 0 0-2.045-.135 5.476 5.476 0 0 0-1.94.658 7.102 7.102 0 0 0-1.697 1.305c-.699.723-1.22 1.483-1.562 2.278a5.666 5.666 0 0 0-.467 2.391c.031.798.24 1.589.626 2.372.395.792.963 1.546 1.704 2.263.732.708 1.5 1.237 2.304 1.588.804.351 1.61.524 2.416.519a5.66 5.66 0 0 0 2.372-.548c.784-.352 1.512-.876 2.186-1.573a7.015 7.015 0 0 0 1.246-1.74c.319-.63.503-1.271.553-1.923a4.583 4.583 0 0 0-.242-1.975c-.22-.673-.608-1.331-1.165-1.972l-2.187 2.263c.321.515.451 1.034.39 1.556-.043.521-.32 1.047-.832 1.576-.392.406-.8.678-1.222.815a2.63 2.63 0 0 1-1.234.138 3.455 3.455 0 0 1-1.165-.41 5.486 5.486 0 0 1-1.015-.777ZM636.298 273.259l2.707 3.908 3.597-.318-5.869-8.116-1.859.165-4.295 9.014 3.677-.325 2.042-4.328ZM626.211 279.654l.303 3.423 19.542 4.754-.304-3.443-19.541-4.734ZM635.324 290.138l2.727 3.907 2.021-4.327 3.658-.323-4.277 8.993-1.859.164-5.887-8.094 3.617-.32Z"/><path fill="#fff" fill-rule="evenodd" d="M712.912 44.604C652.535 22.73 559.609-.736 477.07.018c-41.268.377-80.079 6.81-110.947 22.642-30.929 15.864-53.848 41.155-63.215 79.06-7.441 30.112-3.288 61.673 8.82 92.157l.205.516-.508.222c-107.448 46.981-150.567 122.869-154.27 193.352l-.015.297-.251.159c-9.316 5.89-18.441 12.487-27.306 19.693-7.334-6.316-18.41-5.881-25.221 1.168l-24.665 25.527c-6.609 6.839-6.862 17.482-.883 24.612C32.064 517.327.35 591.631 0 660.342a1.65 1.65 0 1 0 3.296.017c.347-67.744 31.638-141.233 77.865-198.596 7.333 6.114 18.252 5.617 24.994-1.36l24.665-25.527c6.538-6.767 6.855-17.258 1.07-24.385 7.879-6.393 15.953-12.289 24.172-17.623l.913-.592-.027 1.088c-.084 3.452-.074 6.889.027 10.307 1.219 41.288 15.705 79.685 38.127 107.906 22.417 28.216 52.864 46.362 85.987 46.841 38.687.559 71.258-26.078 86.74-59.592 15.493-33.539 14.07-74.426-15.822-102.417-34.853-32.636-74.356-43.574-113.971-38.761-25.923 3.149-51.846 13.034-76.53 27.923l-.945.569.076-1.101c4.723-68.208 47.242-141.53 152.013-187.363l.532-.233.226.536a228.786 228.786 0 0 0 9.268 19.327c20.128 37.464 51.434 72.302 86.903 99.573 35.464 27.267 75.19 47.044 112.212 54.28 37.022 7.235 71.564 1.955 96.266-21.243 9.584-9 16.339-19.19 20.441-30.056l.254-.017.298-.025c11.134-.984 19.359-10.855 18.371-22.048l-2.812-31.847c-.988-11.192-10.815-19.468-21.95-18.484-.526.047-1.045.113-1.558.198-7.611-14.043-18.643-27.471-32.727-39.357-49.438-41.722-136.61-64.586-246.935-28.789-12.689 4.117-24.659 8.586-35.937 13.368l-.541.23-.216-.547c-11.879-29.956-15.866-60.776-8.637-90.03 9.115-36.884 31.348-61.442 61.519-76.917 30.233-15.507 68.47-21.904 109.474-22.28 82.005-.749 174.52 22.592 234.689 44.39a1.648 1.648 0 1 0 1.122-3.101ZM106.724 411.569c5.459-5.65 14.253-6.127 20.273-1.327a15.147 15.147 0 0 1 2.351 2.333c4.74 5.855 4.476 14.462-.891 20.016l-24.665 25.527c-5.546 5.74-14.533 6.141-20.557 1.095a15.167 15.167 0 0 1-2.299-2.395c-4.498-5.845-4.154-14.26 1.123-19.722l24.665-25.527Zm532.006-95.37a16.75 16.75 0 0 1-2.44.038c-8.101-.473-14.851-6.855-15.59-15.221l-2.812-31.847c-.705-7.994 4.31-15.167 11.642-17.435a16.658 16.658 0 0 1 3.356-.668l.028-.002.065-.006c9.146-.808 17.218 5.99 18.03 15.184l2.812 31.847c.779 8.827-5.418 16.653-14.008 17.979-.357.055-.718.099-1.083.131Zm-24.442-46.712c-.838-9.49 4.948-18.031 13.515-21.009-7.378-13.377-17.989-26.229-31.554-37.677-48.419-40.861-134.353-63.682-243.793-28.173-12.619 4.094-24.516 8.536-35.719 13.288l-.528.224.223.527a225.326 225.326 0 0 0 9.147 19.077c19.872 36.989 50.845 71.484 86.009 98.52 35.171 27.041 74.435 46.544 110.835 53.658 36.401 7.114 69.715 1.811 93.378-20.411 8.887-8.345 15.232-17.734 19.196-27.74-9.375-1.058-17.031-8.627-17.897-18.437l-2.812-31.847Zm-375.855 91.435c38.66-4.697 77.19 5.935 111.322 37.895 28.58 26.763 30.152 66.001 15.081 98.625-15.082 32.65-46.632 58.214-83.7 57.678-31.896-.461-61.486-17.944-83.454-45.595-21.964-27.645-36.213-65.351-37.412-105.951-.128-4.345-.106-8.723.071-13.127l.012-.305.259-.16c25.132-15.575 51.532-25.866 77.821-29.06Z" clip-rule="evenodd"/></svg>
