<svg xmlns="http://www.w3.org/2000/svg" width="178" height="206" fill="none"><path fill="#fff" d="M52.845 170.168A2768.972 2768.972 0 0 0 71.1 148.392a1214.846 1214.846 0 0 0 18.31-22.721c8.59-11.017 14.222-18.577 16.896-22.68 2.827-4.133 4.987-8.447 6.48-12.944 1.616-4.676 1.972-9.341 1.067-13.995-.992-5.104-3.496-9.057-7.513-11.86a13.774 13.774 0 0 0-1.809-1.172c-3.692-2.005-8.457-2.44-14.296-1.305-7.756 1.508-13.062 4.253-15.918 8.235-2.703 3.953-3.983 8.33-3.839 13.132l-34.444 6.695c-1.33-8.466-1.011-16.161.957-23.087 1.939-7.076 5.16-13.232 9.666-18.47 4.506-5.238 10.052-9.588 16.639-13.05 6.739-3.49 14.138-6.019 22.198-7.586 7.451-1.448 14.727-1.772 21.827-.97 7.252.77 13.795 2.77 19.631 5.998 5.806 3.078 10.752 7.413 14.838 13.006 4.238 5.564 7.159 12.474 8.764 20.73 1.721 8.857 1.349 17.498-1.116 25.922a84.223 84.223 0 0 1-10.573 23.554c-4.734 7.307-10.059 14.418-15.975 21.332a13568.985 13568.985 0 0 0-17.053 19.439l58.167-11.306 6.435 33.1-111.774 21.727-5.821-29.948Z"/><path fill="#343434" fill-rule="evenodd" d="m52.153 169.995.197-.232A2767.338 2767.338 0 0 0 70.6 147.994a1213.967 1213.967 0 0 0 18.3-22.709c8.591-11.019 14.206-18.558 16.864-22.634l.004-.006.004-.006c2.794-4.086 4.927-8.348 6.401-12.785l.001-.004.001-.003c1.582-4.576 1.927-9.13 1.044-13.671-.963-4.957-3.383-8.763-7.255-11.465l-.011-.008-.012-.008a13.06 13.06 0 0 0-1.725-1.12c-3.514-1.908-8.11-2.355-13.86-1.237-7.683 1.493-12.792 4.186-15.508 7.97-2.624 3.839-3.865 8.083-3.725 12.75l.016.541L35.5 90.527l-.102-.649c-1.341-8.537-1.024-16.325.972-23.352 1.962-7.159 5.227-13.4 9.798-18.714 4.562-5.304 10.174-9.704 16.829-13.2l.003-.002c6.799-3.522 14.258-6.07 22.375-7.648 7.512-1.46 14.854-1.788 22.024-.98 7.327.78 13.953 2.802 19.869 6.074 5.893 3.124 10.908 7.523 15.045 13.184 4.305 5.654 7.258 12.656 8.877 20.985 1.739 8.95 1.365 17.69-1.129 26.212a84.86 84.86 0 0 1-10.65 23.725c-4.751 7.333-10.093 14.466-16.026 21.401l-.003.003-.003.003a13657.93 13657.93 0 0 0-15.836 18.049l56.976-11.075 6.676 34.345-113.041 21.973-6-30.866Zm53.685-13.4.681-.778c5.218-5.959 10.676-12.18 16.372-18.661 5.916-6.914 11.241-14.025 15.975-21.332a84.223 84.223 0 0 0 10.573-23.554c2.465-8.424 2.837-17.065 1.116-25.922-1.605-8.256-4.526-15.166-8.764-20.73-4.086-5.593-9.032-9.928-14.838-13.006-5.836-3.228-12.379-5.227-19.631-5.999-7.1-.8-14.376-.477-21.827.971-8.06 1.567-15.46 4.096-22.198 7.587-6.587 3.461-12.133 7.81-16.639 13.049-4.505 5.238-7.727 11.394-9.666 18.47-1.92 6.754-2.27 14.24-1.053 22.46.03.208.063.417.096.627l34.444-6.695c-.144-4.802 1.136-9.179 3.84-13.132 2.855-3.982 8.16-6.727 15.916-8.235 5.84-1.135 10.605-.7 14.297 1.305.635.344 1.238.735 1.809 1.173 4.017 2.802 6.521 6.755 7.513 11.86.905 4.653.549 9.318-1.067 13.994-1.493 4.497-3.653 8.811-6.48 12.944-2.674 4.103-8.306 11.663-16.897 22.68a1214.846 1214.846 0 0 1-18.309 22.721 2768.972 2768.972 0 0 1-18.256 21.776l5.82 29.948 111.775-21.727-6.435-33.1-58.167 11.306Z" clip-rule="evenodd"/><path fill="#fff" d="M25.25 36.602c-4.506 5.238-7.728 11.394-9.667 18.47L36.992 66.69c1.939-7.076 5.16-13.232 9.666-18.47L25.25 36.602Z"/><path fill="#343434" fill-rule="evenodd" d="M15.268 55.628a.626.626 0 0 1-.308-.717c1.962-7.16 5.226-13.403 9.798-18.717a.655.655 0 0 1 .806-.148l21.409 11.618a.63.63 0 0 1 .177.963c-4.44 5.162-7.62 11.233-9.535 18.224a.655.655 0 0 1-.938.395L15.268 55.628Zm.315-.556c1.939-7.076 5.161-13.233 9.667-18.47L46.658 48.22c-.142.165-.282.33-.422.498-4.153 4.97-7.175 10.75-9.067 17.341-.06.21-.12.42-.177.631L15.583 55.072Z" clip-rule="evenodd"/><path fill="#fff" d="M41.888 23.553c-6.587 3.461-12.133 7.81-16.638 13.049L46.658 48.22c4.506-5.238 10.052-9.588 16.639-13.05L41.888 23.554Z"/><path fill="#343434" fill-rule="evenodd" d="M24.614 36.718a.63.63 0 0 1 .144-.524c4.562-5.304 10.175-9.704 16.829-13.2a.655.655 0 0 1 .616.003l21.409 11.618a.628.628 0 0 1-.014 1.115c-6.52 3.426-12 7.726-16.448 12.898a.655.655 0 0 1-.806.148l-21.41-11.618a.63.63 0 0 1-.32-.44Zm1.066-.61c-.145.164-.288.328-.43.494L46.658 48.22c4.35-5.058 9.672-9.288 15.963-12.689.224-.121.45-.241.676-.36L41.888 23.553C35.51 26.905 30.107 31.09 25.68 36.108Z" clip-rule="evenodd"/><path fill="#fff" d="M15.583 55.072c-1.968 6.926-2.287 14.621-.957 23.087l21.409 11.618c-1.33-8.466-1.011-16.161.957-23.087L15.583 55.072Z"/><path fill="#343434" fill-rule="evenodd" d="M14.311 78.715a.63.63 0 0 1-.323-.455c-1.341-8.538-1.024-16.327.974-23.355a.655.655 0 0 1 .936-.39l21.408 11.619c.26.141.388.44.307.723-1.939 6.823-2.26 14.425-.94 22.819a.634.634 0 0 1-.27.62.655.655 0 0 1-.683.037L14.31 78.715Zm.315-.556c-1.29-8.209-1.029-15.694.783-22.455.056-.211.114-.422.174-.632L36.992 66.69c-1.907 6.71-2.266 14.14-1.077 22.295.038.263.078.527.12.792L14.626 78.159Z" clip-rule="evenodd"/><path fill="#fff" d="M64.086 15.966c-8.06 1.567-15.459 4.096-22.198 7.587L63.297 35.17c6.739-3.491 14.138-6.02 22.198-7.587L64.086 15.966Z"/><path fill="#343434" fill-rule="evenodd" d="M41.243 23.548a.639.639 0 0 1 .347-.556c6.8-3.522 14.259-6.07 22.375-7.648a.653.653 0 0 1 .436.066L85.81 27.028c.236.129.365.39.322.654a.645.645 0 0 1-.516.525c-8.003 1.555-15.343 4.065-22.022 7.525a.655.655 0 0 1-.612-.005L41.573 24.109a.627.627 0 0 1-.33-.561Zm1.335-.348c-.231.117-.46.234-.69.353L63.297 35.17c6.465-3.35 13.538-5.813 21.219-7.391.325-.067.651-.132.979-.196L64.086 15.966C56.3 17.48 49.131 19.891 42.578 23.2Z" clip-rule="evenodd"/><path fill="#fff" d="m14.626 78.159 34.445-6.695 21.408 11.618-34.444 6.695-21.409-11.618Z"/><path fill="#343434" fill-rule="evenodd" d="M48.95 70.841a.653.653 0 0 1 .435.067l21.409 11.617c.237.13.366.39.322.654a.645.645 0 0 1-.516.525L36.156 90.4a.653.653 0 0 1-.436-.066L14.31 78.715a.627.627 0 0 1-.322-.653.645.645 0 0 1 .516-.525l34.444-6.696ZM14.626 78.16l21.409 11.618 34.444-6.695-21.408-11.618-34.445 6.695Z" clip-rule="evenodd"/><path fill="#fff" d="M85.913 14.995c-7.1-.8-14.375-.477-21.827.971l21.409 11.618c7.451-1.448 14.727-1.772 21.827-.97L85.913 14.994Z"/><path fill="#343434" fill-rule="evenodd" d="M63.45 15.87a.645.645 0 0 1 .515-.526c7.513-1.46 14.856-1.788 22.026-.98a.65.65 0 0 1 .237.075l21.409 11.618c.269.146.394.46.298.749a.65.65 0 0 1-.691.438c-7.03-.793-14.238-.474-21.628.963a.653.653 0 0 1-.436-.067L63.771 16.523a.627.627 0 0 1-.322-.654Zm1.631-.09c-.331.06-.663.122-.995.186l21.409 11.618c6.878-1.337 13.605-1.715 20.183-1.136.549.049 1.097.104 1.644.165L85.913 14.995c-6.783-.765-13.727-.504-20.832.785Z" clip-rule="evenodd"/><path fill="#fff" d="M49.07 71.464c-.144-4.802 1.136-9.179 3.84-13.132L74.318 69.95c-2.703 3.953-3.983 8.33-3.839 13.132L49.071 71.464Z"/><path fill="#343434" fill-rule="evenodd" d="M52.375 57.98a.654.654 0 0 1 .85-.204l21.408 11.618a.63.63 0 0 1 .22.908c-2.627 3.84-3.87 8.086-3.729 12.756a.637.637 0 0 1-.31.564.655.655 0 0 1-.65.016L48.756 72.02a.628.628 0 0 1-.33-.533c-.149-4.933 1.169-9.441 3.949-13.506ZM49.07 71.465c-.145-4.802 1.135-9.179 3.839-13.132L74.318 69.95c-.12.177-.24.355-.355.534-2.329 3.608-3.494 7.563-3.495 11.865 0 .243.004.487.011.733L49.071 71.464Z" clip-rule="evenodd"/><path fill="#fff" d="M52.91 58.332c2.855-3.982 8.161-6.727 15.917-8.235l21.409 11.618c-7.756 1.508-13.062 4.253-15.918 8.235L52.91 58.332Z"/><path fill="#fff" d="M68.827 50.097c5.84-1.135 10.605-.7 14.296 1.305l21.403 11.614c-3.691-2.002-8.454-2.435-14.29-1.3l-21.41-11.619ZM85.913 14.995c7.252.772 13.796 2.771 19.631 5.999l20.743 11.257c.223.118.445.239.666.361l-.666-.361c-5.666-3.016-11.988-4.896-18.965-5.638L85.913 14.995Z"/><path fill="#343434" fill-rule="evenodd" d="M85.3 14.805a.65.65 0 0 1 .687-.44c7.33.779 13.957 2.802 19.874 6.074l.002.001 20.734 11.252.003.002c.225.12.449.241.672.364.309.171.418.556.243.862a.654.654 0 0 1-.877.248l-.005-.002-.656-.357-.002-.001c-5.587-2.973-11.826-4.83-18.727-5.564a.656.656 0 0 1-.241-.075L85.598 15.551a.626.626 0 0 1-.299-.746Zm34.175 14.476a47.954 47.954 0 0 1 6.812 2.97l.666.361a47.484 47.484 0 0 0-.666-.361l-20.743-11.257c-5.369-2.97-11.339-4.9-17.908-5.79a60.577 60.577 0 0 0-1.723-.209l21.409 11.618c4.3.458 8.351 1.347 12.153 2.668Z" clip-rule="evenodd"/><path fill="#fff" d="M83.123 51.402c.635.344 1.238.736 1.81 1.173l21.408 11.618a13.774 13.774 0 0 0-1.809-1.173L83.123 51.402Z"/><path fill="#343434" fill-rule="evenodd" d="M84.618 53.131a.627.627 0 0 1-.084-.054 13.17 13.17 0 0 0-1.725-1.12.627.627 0 0 1-.249-.861.654.654 0 0 1 .878-.25l21.409 11.618c.664.36 1.295.77 1.893 1.227a.625.625 0 0 1 .138.85.654.654 0 0 1-.852.208L84.618 53.131Zm-1.495-1.73c.635.345 1.238.736 1.81 1.174l21.408 11.618a13.774 13.774 0 0 0-1.809-1.173L83.123 51.402Z" clip-rule="evenodd"/><path fill="#fff" d="M84.933 52.575c4.016 2.802 6.52 6.755 7.513 11.86l21.408 11.617c-.992-5.104-3.496-9.057-7.513-11.86L84.933 52.576Z"/><path fill="#343434" fill-rule="evenodd" d="M92.131 64.99a.63.63 0 0 1-.32-.432c-.963-4.957-3.382-8.763-7.254-11.465a.626.626 0 0 1-.17-.855.654.654 0 0 1 .86-.22l21.409 11.619a.742.742 0 0 1 .061.038c4.162 2.903 6.751 7.003 7.771 12.254a.634.634 0 0 1-.256.635.655.655 0 0 1-.692.044L92.131 64.99Zm.315-.556c-.767-3.947-2.44-7.206-5.016-9.777a18.566 18.566 0 0 0-2.497-2.082l21.408 11.618c3.799 2.65 6.245 6.33 7.338 11.037.063.271.121.545.175.822L92.446 64.434Z" clip-rule="evenodd"/><path fill="#fff" d="M49.692 136.774a2766.791 2766.791 0 0 1-18.256 21.776l21.409 11.618A2768.972 2768.972 0 0 0 71.1 148.392l-21.409-11.618Z"/><path fill="#343434" fill-rule="evenodd" d="M30.801 158.669a.631.631 0 0 1 .14-.524 2747.282 2747.282 0 0 0 18.252-21.77.655.655 0 0 1 .814-.157l21.409 11.618a.628.628 0 0 1 .184.955 2768.064 2768.064 0 0 1-18.26 21.781.656.656 0 0 1-.81.152L31.12 159.106a.63.63 0 0 1-.32-.437Zm1.057-.617-.422.498 21.409 11.618a2776.612 2776.612 0 0 0 17.84-21.275l.416-.501-21.409-11.618a2773.191 2773.191 0 0 1-17.834 21.278Z" clip-rule="evenodd"/><path fill="#fff" d="M105.544 20.994c.247.13.492.264.735.399l20.674 11.219c5.806 3.078 10.752 7.413 14.838 13.006L120.382 34c-3.912-5.355-8.613-9.558-14.103-12.607l-.735-.399ZM68.002 114.053a1214.846 1214.846 0 0 1-18.31 22.721l21.409 11.618a1214.846 1214.846 0 0 0 18.31-22.721L68 114.053Z"/><path fill="#343434" fill-rule="evenodd" d="M49.058 136.897a.63.63 0 0 1 .135-.521 1214.374 1214.374 0 0 0 18.3-22.709.655.655 0 0 1 .824-.17l21.408 11.618a.628.628 0 0 1 .195.942A1218.59 1218.59 0 0 1 71.6 148.79a.656.656 0 0 1-.814.158L49.378 137.33a.63.63 0 0 1-.32-.433Zm1.049-.625-.415.502 21.409 11.618A1214.167 1214.167 0 0 0 89.01 126.18l.4-.509-21.408-11.618a1214.017 1214.017 0 0 1-17.895 22.219Z" clip-rule="evenodd"/><path fill="#fff" d="M92.446 64.434c.904 4.654.549 9.319-1.068 13.995l21.409 11.618c1.616-4.676 1.972-9.341 1.067-13.995L92.446 64.434Z"/><path fill="#343434" fill-rule="evenodd" d="M91.064 78.985a.626.626 0 0 1-.296-.756c1.581-4.576 1.927-9.13 1.044-13.671a.633.633 0 0 1 .256-.636.655.655 0 0 1 .692-.044l21.409 11.618c.167.09.284.25.319.433.927 4.766.561 9.542-1.09 14.319a.654.654 0 0 1-.926.355L91.064 78.985Zm.314-.556c1.523-4.407 1.927-8.803 1.212-13.19a26.9 26.9 0 0 0-.144-.805l21.408 11.618c.865 4.45.578 8.91-.862 13.38-.066.205-.134.41-.205.615L91.378 78.43Z" clip-rule="evenodd"/><path fill="#fff" d="m31.436 158.55 5.821 29.948 21.409 11.618-5.821-29.948-21.409-11.618Z"/><path fill="#343434" fill-rule="evenodd" d="M36.943 189.054a.631.631 0 0 1-.32-.433l-5.82-29.948a.635.635 0 0 1 .255-.636.656.656 0 0 1 .693-.043l21.409 11.617a.631.631 0 0 1 .319.433l5.82 29.948a.635.635 0 0 1-.255.636.656.656 0 0 1-.693.044l-21.408-11.618Zm.314-.556-5.821-29.948 21.409 11.618 5.82 29.948-21.408-11.618Z" clip-rule="evenodd"/><path fill="#fff" d="M84.899 91.373c-2.675 4.103-8.307 11.663-16.897 22.68l21.408 11.618c8.59-11.017 14.223-18.577 16.897-22.68L84.899 91.373Z"/><path fill="#343434" fill-rule="evenodd" d="M67.37 114.185a.63.63 0 0 1 .12-.516c8.593-11.02 14.209-18.56 16.866-22.636a.654.654 0 0 1 .858-.216l21.408 11.618a.63.63 0 0 1 .312.398.631.631 0 0 1-.084.498c-2.691 4.129-8.34 11.709-16.928 22.724a.656.656 0 0 1-.826.172l-21.409-11.618a.63.63 0 0 1-.317-.424Zm1.03-.643-.398.511 21.408 11.618c8.23-10.554 13.744-17.936 16.545-22.145l.352-.535-21.408-11.618c-2.633 4.039-8.133 11.429-16.5 22.169Z" clip-rule="evenodd"/><path fill="#fff" d="M91.378 78.43c-1.493 4.496-3.653 8.81-6.48 12.943l21.409 11.618c2.827-4.133 4.987-8.447 6.48-12.944L91.378 78.43Z"/><path fill="#343434" fill-rule="evenodd" d="M84.27 91.524a.628.628 0 0 1 .094-.503c2.795-4.086 4.927-8.347 6.401-12.785a.654.654 0 0 1 .928-.363l21.409 11.618c.269.146.394.46.298.75-1.512 4.555-3.699 8.922-6.558 13.101a.653.653 0 0 1-.849.205L84.584 91.929a.63.63 0 0 1-.313-.405Zm.629-.151 21.408 11.618c2.827-4.133 4.987-8.447 6.48-12.944L91.378 78.43c-.068.205-.137.41-.208.614-1.417 4.084-3.387 8.016-5.912 11.798-.118.178-.238.355-.36.532Z" clip-rule="evenodd"/><path fill="#fff" d="M129.146 54.73c-1.605-8.256-4.526-15.166-8.764-20.73l21.409 11.618c4.238 5.564 7.159 12.474 8.764 20.73L129.146 54.73Z"/><path fill="#fff" d="M128.03 80.652c2.466-8.424 2.838-17.065 1.116-25.922l21.409 11.618c1.721 8.857 1.349 17.498-1.116 25.922L128.03 80.652ZM84.429 144.977a14020.33 14020.33 0 0 1 17.053-19.439l21.409 11.618a13568.985 13568.985 0 0 0-17.053 19.439l-21.41-11.618ZM101.482 125.538c5.916-6.914 11.241-14.025 15.976-21.332l21.408 11.618c-4.734 7.307-10.059 14.418-15.975 21.332l-21.409-11.618Z"/><path fill="#fff" d="M117.458 104.206a84.245 84.245 0 0 0 10.572-23.554l21.409 11.618a84.223 84.223 0 0 1-10.573 23.554l-21.408-11.618ZM142.597 133.671l-58.168 11.306 21.409 11.618 58.167-11.306-21.408-11.618Z"/><path fill="#343434" fill-rule="evenodd" d="M83.792 144.88a.646.646 0 0 1 .516-.525l58.168-11.307a.653.653 0 0 1 .436.067l21.408 11.617c.237.129.366.39.323.654a.647.647 0 0 1-.517.525l-58.167 11.307a.653.653 0 0 1-.436-.067l-21.409-11.618a.626.626 0 0 1-.322-.653Zm.637.097 21.409 11.618 58.167-11.306-21.408-11.618-58.168 11.306Z" clip-rule="evenodd"/><path fill="#fff" d="m37.257 188.498 111.774-21.727 21.409 11.618-111.774 21.727-21.409-11.618Z"/><path fill="#343434" fill-rule="evenodd" d="M148.91 166.149a.653.653 0 0 1 .436.066l21.408 11.618c.237.129.366.39.323.653a.647.647 0 0 1-.516.526L58.787 200.738a.652.652 0 0 1-.436-.066l-21.408-11.618a.627.627 0 0 1-.323-.653.646.646 0 0 1 .516-.526l111.774-21.726ZM37.257 188.498l21.409 11.618 111.774-21.727-21.409-11.618-111.774 21.727Z" clip-rule="evenodd"/><path fill="#fff" d="m149.031 166.771-6.434-33.1 21.408 11.618 6.435 33.1-21.409-11.618Z"/><path fill="#343434" fill-rule="evenodd" d="M142.219 133.158a.657.657 0 0 1 .693-.043l21.408 11.617a.628.628 0 0 1 .319.433l6.435 33.101a.632.632 0 0 1-.257.635.653.653 0 0 1-.692.044l-21.409-11.618a.631.631 0 0 1-.319-.433l-6.434-33.1a.635.635 0 0 1 .256-.636Zm6.812 33.613-6.434-33.1 21.408 11.618 6.435 33.1-21.409-11.618Z" clip-rule="evenodd"/><path fill="#fff" d="M31.436 158.55a2766.791 2766.791 0 0 0 18.256-21.776 1214.846 1214.846 0 0 0 18.31-22.721c8.59-11.017 14.222-18.577 16.897-22.68 2.826-4.133 4.986-8.447 6.48-12.944 1.615-4.676 1.971-9.341 1.067-13.995-.992-5.103-3.497-9.057-7.513-11.859-3.894-2.982-9.263-3.808-16.106-2.478-7.756 1.508-13.062 4.253-15.917 8.235-2.704 3.953-3.984 8.33-3.84 13.132l-34.444 6.695c-1.33-8.466-1.01-16.161.957-23.087 1.939-7.076 5.161-13.233 9.667-18.47 4.505-5.238 10.051-9.588 16.638-13.05 6.74-3.49 14.138-6.019 22.198-7.586 7.452-1.448 14.728-1.772 21.827-.97 7.252.77 13.796 2.77 19.631 5.998 5.806 3.078 10.752 7.413 14.838 13.006 4.238 5.564 7.159 12.474 8.764 20.73 1.722 8.857 1.35 17.498-1.116 25.922a84.245 84.245 0 0 1-10.572 23.554c-4.735 7.307-10.06 14.418-15.976 21.332a14020.33 14020.33 0 0 0-17.053 19.439l58.168-11.306 6.434 33.1-111.774 21.727-5.821-29.948Z"/><path fill="#343434" fill-rule="evenodd" d="m30.745 158.378.196-.233a2765.158 2765.158 0 0 0 18.252-21.769 1214.374 1214.374 0 0 0 18.3-22.709c8.59-11.019 14.206-18.558 16.863-22.634l.004-.006.004-.006c2.795-4.086 4.927-8.347 6.401-12.785l.001-.004.001-.003c1.582-4.576 1.928-9.13 1.045-13.671-.964-4.957-3.383-8.763-7.255-11.465l-.012-.008-.011-.008c-3.695-2.83-8.849-3.667-15.586-2.357-7.682 1.493-12.791 4.186-15.508 7.97-2.624 3.839-3.865 8.083-3.724 12.75l.016.541L14.09 78.91l-.102-.649c-1.34-8.537-1.024-16.325.973-23.352 1.962-7.159 5.226-13.4 9.797-18.714 4.562-5.304 10.175-9.704 16.829-13.2l.003-.002c6.8-3.522 14.259-6.07 22.375-7.648 7.513-1.46 14.855-1.788 22.024-.98 7.328.78 13.954 2.802 19.87 6.074 5.893 3.125 10.908 7.523 15.045 13.185 4.304 5.653 7.257 12.655 8.876 20.984 1.74 8.95 1.365 17.69-1.129 26.212a84.83 84.83 0 0 1-10.65 23.725c-4.75 7.333-10.092 14.466-16.026 21.401l-.003.003-.002.003c-5.502 6.26-10.78 12.276-15.837 18.049l56.977-11.075 6.676 34.345-113.042 21.973-6-30.865Zm53.684-13.401.682-.778c5.218-5.959 10.675-12.179 16.371-18.661 5.916-6.914 11.241-14.025 15.976-21.332a84.245 84.245 0 0 0 10.572-23.554c2.466-8.424 2.838-17.065 1.116-25.922-1.605-8.256-4.526-15.166-8.764-20.73-4.086-5.593-9.032-9.928-14.838-13.006-5.835-3.228-12.379-5.227-19.63-5.999-7.1-.8-14.376-.477-21.828.971-8.06 1.567-15.459 4.096-22.198 7.587-6.587 3.461-12.133 7.81-16.638 13.049-4.506 5.238-7.728 11.394-9.667 18.47-1.92 6.754-2.27 14.24-1.053 22.46l.096.627 34.445-6.695c-.145-4.802 1.135-9.179 3.839-13.132 2.855-3.982 8.161-6.727 15.917-8.235 6.843-1.33 12.212-.504 16.106 2.478 4.016 2.802 6.52 6.755 7.513 11.86.904 4.653.549 9.318-1.068 13.994-1.493 4.497-3.653 8.811-6.48 12.944-2.674 4.103-8.306 11.663-16.896 22.68a1214.846 1214.846 0 0 1-18.31 22.721 2766.791 2766.791 0 0 1-18.256 21.776l5.821 29.948 111.774-21.727-6.434-33.1-58.168 11.306Z" clip-rule="evenodd"/></svg>