<svg xmlns="http://www.w3.org/2000/svg" width="178" height="206" fill="none"><path fill="#fff" d="M45.088 69.24c2.39-8.323 5.817-15.212 10.278-20.666 4.64-5.573 9.956-9.859 15.95-12.857 5.994-2.997 12.53-4.81 19.61-5.438 7.229-.6 14.716-.146 22.463 1.36a84.39 84.39 0 0 1 19.636 6.36c6.415 2.789 11.823 6.384 16.224 10.786a39.985 39.985 0 0 1 3.166 3.463c2.952 3.64 5.202 7.754 6.749 12.34 2.089 5.956 2.368 12.871.838 20.745-1.242 6.388-4.05 12.087-8.425 17.095-4.226 5.037-9.324 8.594-15.293 10.672 3.688 2.271 6.77 4.933 9.246 7.987 2.437 3.005 4.286 6.389 5.549 10.152 2.723 7.467 3.187 15.42 1.392 23.859-2.026 9.628-5.597 17.259-10.712 22.895-4.966 5.664-10.879 9.834-17.738 12.509-6.859 2.675-13.934 4.075-21.224 4.2-7.142.154-14.14-.436-20.992-1.768-17.133-3.33-30.807-10.536-41.021-21.618-10.186-11.23-14.197-25.192-12.034-41.885l35.754 6.95c.17 5.277 1.668 9.661 4.495 13.151a19.87 19.87 0 0 0 2.832 2.843c4.695 3.687 10.32 6.168 16.875 7.442 2.98.579 5.867.833 8.665.76 2.946-.044 5.592-.532 7.937-1.464a16.359 16.359 0 0 0 5.999-4.615c1.803-2.117 3.022-4.809 3.658-8.078.808-4.159.1-8.074-2.124-11.744a10.478 10.478 0 0 0-.827-1.175c-2.463-3.041-6.875-5.179-13.236-6.415l-18.324-3.562 5.805-29.861 12.29 2.389c4.321.84 7.937.926 10.85.259 2.941-.816 5.256-1.985 6.943-3.507 1.836-1.493 3.091-3.177 3.765-5.05.851-1.993 1.406-3.658 1.666-4.995.747-4.635-.423-8.562-3.507-11.783-2.907-3.34-7.042-5.531-12.405-6.574-6.108-1.187-11.448-.76-16.019 1.28-4.422 2.07-7.57 5.544-9.447 10.421L45.088 69.24Z"/><path fill="#343434" fill-rule="evenodd" d="m44.292 69.727.19-.66c2.41-8.388 5.87-15.358 10.396-20.891l.002-.003.002-.002c4.69-5.635 10.074-9.977 16.152-13.017 6.069-3.035 12.683-4.868 19.836-5.503h.004c7.29-.604 14.837-.147 22.635 1.37a85.028 85.028 0 0 1 19.775 6.404c6.474 2.815 11.947 6.45 16.408 10.912a40.517 40.517 0 0 1 3.212 3.514c3.001 3.7 5.286 7.88 6.856 12.532 2.134 6.086 2.406 13.118.861 21.07-1.263 6.498-4.121 12.296-8.565 17.384-4.009 4.777-8.797 8.252-14.361 10.414 3.27 2.151 6.047 4.63 8.325 7.439 2.484 3.063 4.368 6.512 5.654 10.341 2.764 7.586 3.23 15.657 1.413 24.199-2.042 9.702-5.651 17.444-10.858 23.182-5.03 5.736-11.025 9.964-17.979 12.677-6.927 2.702-14.074 4.116-21.44 4.243-7.185.154-14.228-.439-21.126-1.78-17.242-3.351-31.044-10.614-41.363-21.809l-.002-.002-.002-.002c-10.324-11.383-14.376-25.536-12.192-42.389l.086-.666 36.907 7.174.016.503c.166 5.165 1.629 9.41 4.355 12.775.8.989 1.712 1.905 2.737 2.748 4.606 3.616 10.134 6.058 16.6 7.315 2.938.571 5.78.82 8.528.748h.007c2.876-.043 5.44-.518 7.7-1.414a15.713 15.713 0 0 0 5.757-4.433l.005-.005.004-.006c1.72-2.019 2.9-4.606 3.519-7.789.778-4.004.1-7.76-2.044-11.298a9.859 9.859 0 0 0-.778-1.105c-2.325-2.871-6.562-4.968-12.866-6.193l-18.943-3.682 6.045-31.098 12.91 2.51c4.264.829 7.78.903 10.574.266 2.871-.798 5.084-1.928 6.676-3.364l.012-.01.012-.01c1.765-1.435 2.942-3.029 3.57-4.775l.006-.018.007-.016c.841-1.969 1.377-3.584 1.626-4.859.713-4.447-.405-8.17-3.342-11.236l-.011-.011-.01-.012c-2.794-3.21-6.791-5.346-12.049-6.369-6.01-1.168-11.211-.74-15.637 1.235-4.26 1.996-7.3 5.339-9.12 10.074l-.19.493-36.502-7.095Zm45.55-4.044c4.571-2.041 9.91-2.468 16.019-1.28 5.363 1.042 9.498 3.233 12.405 6.573 3.084 3.22 4.254 7.148 3.507 11.783-.26 1.337-.815 3.002-1.666 4.995-.674 1.873-1.929 3.556-3.765 5.05-1.687 1.522-4.002 2.69-6.943 3.507-2.913.667-6.529.58-10.85-.26l-12.29-2.388-5.805 29.861 18.325 3.562c6.36 1.236 10.772 3.374 13.235 6.415.306.377.581.769.827 1.175 2.224 3.67 2.932 7.585 2.124 11.744-.636 3.269-1.855 5.961-3.658 8.078a16.359 16.359 0 0 1-5.999 4.615c-2.345.932-4.991 1.42-7.937 1.464-2.797.073-5.686-.181-8.665-.76-6.556-1.274-12.18-3.755-16.875-7.442A19.87 19.87 0 0 1 69 149.532c-2.827-3.49-4.325-7.874-4.495-13.151l-35.755-6.95a75.34 75.34 0 0 0-.078.626c-1.983 16.416 2.055 30.169 12.113 41.259 10.215 11.082 23.888 18.288 41.02 21.618 6.853 1.332 13.85 1.922 20.993 1.768 7.29-.125 14.365-1.525 21.224-4.2 6.859-2.675 12.772-6.845 17.738-12.509 5.115-5.636 8.686-13.267 10.712-22.895 1.795-8.439 1.331-16.392-1.392-23.859-1.263-3.763-3.112-7.147-5.549-10.152-2.322-2.865-5.178-5.385-8.567-7.56a38.884 38.884 0 0 0-.679-.427c.253-.088.504-.179.754-.272 5.646-2.11 10.492-5.576 14.539-10.4 4.375-5.008 7.183-10.707 8.425-17.095 1.53-7.874 1.251-14.789-.838-20.745-1.547-4.586-3.797-8.7-6.749-12.34a39.985 39.985 0 0 0-3.166-3.463c-4.401-4.402-9.809-7.997-16.224-10.786a84.39 84.39 0 0 0-19.636-6.36c-7.747-1.506-15.234-1.96-22.463-1.36-7.08.628-13.616 2.44-19.61 5.438-5.994 2.998-11.31 7.284-15.95 12.857-4.352 5.321-7.72 12.007-10.101 20.059-.06.202-.12.404-.177.607l35.307 6.863c1.876-4.877 5.025-8.35 9.447-10.42Z" clip-rule="evenodd"/><path fill="#fff" d="M56.243 17.118c-5.993 2.998-11.31 7.283-15.95 12.857l15.073 18.6c4.64-5.574 9.956-9.86 15.95-12.858l-15.073-18.6Z"/><path fill="#343434" fill-rule="evenodd" d="M39.804 30.371a.63.63 0 0 1 .005-.799c4.69-5.635 10.074-9.978 16.152-13.017a.63.63 0 0 1 .772.167l15.073 18.6a.63.63 0 0 1-.208.959c-5.91 2.955-11.159 7.184-15.747 12.696a.63.63 0 0 1-.974-.006l-15.073-18.6Zm.49-.396c4.639-5.574 9.956-9.86 15.95-12.857l15.072 18.6a46.83 46.83 0 0 0-.574.291c-5.584 2.89-10.571 6.916-14.963 12.075a57.17 57.17 0 0 0-.413.49l-15.072-18.6Z" clip-rule="evenodd"/><path fill="#fff" d="M75.853 11.68c-7.079.627-13.616 2.44-19.61 5.438l15.073 18.6c5.994-2.998 12.53-4.811 19.61-5.44L75.853 11.68Z"/><path fill="#343434" fill-rule="evenodd" d="M55.627 16.985a.629.629 0 0 1 .334-.43c6.07-3.035 12.683-4.868 19.837-5.503a.63.63 0 0 1 .545.23l15.073 18.6a.63.63 0 0 1-.434 1.024c-7.005.622-13.465 2.414-19.384 5.375a.63.63 0 0 1-.772-.167l-15.072-18.6a.63.63 0 0 1-.127-.53Zm1.196-.152c-.194.093-.387.189-.58.285l15.073 18.6c5.781-2.892 12.067-4.68 18.857-5.368.25-.025.502-.05.753-.071l-15.073-18.6c-6.851.608-13.195 2.326-19.03 5.154Z" clip-rule="evenodd"/><path fill="#fff" d="M40.294 29.975c-4.462 5.454-7.888 12.343-10.28 20.666l15.074 18.6c2.39-8.324 5.817-15.213 10.278-20.667l-15.072-18.6Z"/><path fill="#343434" fill-rule="evenodd" d="M29.525 51.037a.63.63 0 0 1-.116-.57c2.41-8.387 5.87-15.357 10.397-20.89a.63.63 0 0 1 .977.002l15.073 18.599a.63.63 0 0 1-.002.795c-4.396 5.374-7.788 12.182-10.16 20.441a.63.63 0 0 1-1.096.222L29.525 51.037Zm.49-.396c2.318-8.07 5.61-14.792 9.874-20.164.134-.169.269-.336.405-.502l15.072 18.6c-4.33 5.292-7.684 11.935-10.063 19.93-.073.244-.145.489-.215.735l-15.073-18.6Z" clip-rule="evenodd"/><path fill="#fff" d="M98.317 13.04c-7.747-1.507-15.235-1.96-22.463-1.36l15.072 18.599c7.229-.6 14.716-.146 22.463 1.36l-15.072-18.6Z"/><path fill="#343434" fill-rule="evenodd" d="M75.274 11.432a.63.63 0 0 1 .527-.38c7.291-.605 14.837-.147 22.636 1.369a.63.63 0 0 1 .37.222l15.072 18.6a.63.63 0 0 1-.61 1.014c-7.695-1.496-15.125-1.945-22.29-1.35a.63.63 0 0 1-.542-.232l-15.073-18.6a.63.63 0 0 1-.09-.643Zm1.342.188a76.62 76.62 0 0 0-.763.06l15.073 18.599c6.93-.575 14.099-.182 21.506 1.178l.957.181L98.317 13.04c-7.475-1.453-14.709-1.926-21.7-1.42Z" clip-rule="evenodd"/><path fill="#fff" d="m30.015 50.64 35.308 6.864 15.072 18.6-35.307-6.864-15.073-18.6Z"/><path fill="#343434" fill-rule="evenodd" d="M65.443 56.886a.63.63 0 0 1 .37.222l15.072 18.599a.63.63 0 0 1-.61 1.014l-35.308-6.863a.63.63 0 0 1-.369-.222L29.525 51.037a.63.63 0 0 1 .61-1.014l35.308 6.863ZM30.015 50.64l15.073 18.6 35.307 6.862-15.072-18.6-35.308-6.862Z" clip-rule="evenodd"/><path fill="#fff" d="M117.952 19.4a84.378 84.378 0 0 0-19.635-6.36l15.072 18.599a84.39 84.39 0 0 1 19.636 6.36l-15.073-18.6Z"/><path fill="#343434" fill-rule="evenodd" d="M97.776 12.715a.63.63 0 0 1 .66-.294 85.004 85.004 0 0 1 19.782 6.408c.087.04.164.1.224.174l15.072 18.6a.628.628 0 0 1-.756.967 83.742 83.742 0 0 0-19.489-6.313.63.63 0 0 1-.369-.222l-15.073-18.6a.63.63 0 0 1-.05-.72Zm1.508.518a87.606 87.606 0 0 0-.968-.194l15.073 18.6a84.479 84.479 0 0 1 19.636 6.36l-15.073-18.6a84.268 84.268 0 0 0-18.668-6.166Z" clip-rule="evenodd"/><path fill="#fff" d="M65.323 57.504c1.876-4.878 5.024-8.351 9.446-10.42l15.073 18.599c-4.422 2.07-7.57 5.543-9.447 10.42l-15.072-18.6Z"/><path fill="#343434" fill-rule="evenodd" d="M74.502 46.513a.63.63 0 0 1 .757.174l15.073 18.6a.63.63 0 0 1-.222.966c-4.264 1.995-7.305 5.339-9.126 10.076a.63.63 0 0 1-1.078.17L64.833 57.9a.63.63 0 0 1-.099-.622c1.93-5.018 5.187-8.621 9.768-10.765Zm-9.18 10.99c1.876-4.877 5.025-8.35 9.447-10.42l15.073 18.6c-.196.091-.39.186-.58.283-3.92 1.996-6.785 5.152-8.598 9.469-.092.22-.182.442-.269.668l-15.072-18.6Z" clip-rule="evenodd"/><path fill="#fff" d="M74.77 47.083c4.57-2.04 9.91-2.467 16.018-1.28l15.073 18.6c-6.108-1.188-11.448-.761-16.019 1.28l-15.073-18.6ZM134.176 30.185c-4.401-4.401-9.809-7.996-16.224-10.785L133.025 38c6.415 2.788 11.823 6.383 16.224 10.785l-15.073-18.6Z"/><path fill="#343434" fill-rule="evenodd" d="M117.45 19.018a.63.63 0 0 1 .753-.196c6.479 2.817 11.956 6.454 16.419 10.918.016.016.03.032.044.049l15.073 18.6a.63.63 0 0 1-.936.84c-4.338-4.338-9.678-7.891-16.03-10.652a.638.638 0 0 1-.238-.182l-15.073-18.599a.631.631 0 0 1-.012-.777Zm1.775.952c-.42-.194-.844-.384-1.273-.57L133.025 38c4.978 2.163 9.349 4.813 13.114 7.947a46.206 46.206 0 0 1 3.11 2.838l-15.073-18.6c-4.107-4.107-9.09-7.512-14.951-10.215Z" clip-rule="evenodd"/><path fill="#fff" d="M90.788 45.803c5.363 1.042 9.498 3.234 12.405 6.574l15.073 18.6c-2.907-3.34-7.042-5.532-12.405-6.575l-15.073-18.6ZM83.477 77.452l-12.291-2.389 15.073 18.6 12.29 2.389-15.072-18.6Z"/><path fill="#343434" fill-rule="evenodd" d="M70.646 74.739a.63.63 0 0 1 .66-.294l12.29 2.39a.63.63 0 0 1 .37.221l15.073 18.6a.63.63 0 0 1-.61 1.014l-12.29-2.39a.63.63 0 0 1-.37-.221l-15.073-18.6a.63.63 0 0 1-.05-.72Zm.54.324 15.073 18.6 12.29 2.389-15.072-18.6-12.291-2.389Z" clip-rule="evenodd"/><path fill="#fff" d="m49.432 117.781-35.755-6.95 15.073 18.6 35.754 6.95-15.072-18.6Z"/><path fill="#343434" fill-rule="evenodd" d="M13.137 110.507a.631.631 0 0 1 .66-.294l35.755 6.95a.63.63 0 0 1 .37.222l15.072 18.599a.63.63 0 0 1-.61 1.015l-35.755-6.95a.63.63 0 0 1-.37-.222l-15.072-18.599a.63.63 0 0 1-.05-.721Zm.54.324 15.073 18.6 35.754 6.95-15.072-18.6-35.755-6.95Z" clip-rule="evenodd"/><path fill="#fff" d="M137.342 33.648a39.826 39.826 0 0 0-3.166-3.463l15.073 18.6a39.985 39.985 0 0 1 3.166 3.463l-15.073-18.6Z"/><path fill="#343434" fill-rule="evenodd" d="M133.752 29.72a.63.63 0 0 1 .864.014 40.544 40.544 0 0 1 3.216 3.518l15.072 18.6a.63.63 0 1 1-.979.792m.49-.396a39.985 39.985 0 0 0-3.166-3.463l-15.073-18.6a39.826 39.826 0 0 1 3.166 3.463l15.073 18.6Zm-.492.393a39.237 39.237 0 0 0-3.114-3.405.654.654 0 0 1-.049-.055l-15.073-18.6a.629.629 0 0 1 .065-.861" clip-rule="evenodd"/><path fill="#fff" d="M106.701 64.16c.604-3.751-.047-7.038-1.952-9.863l-1.556-1.92a14.524 14.524 0 0 1 1.556 1.92l13.517 16.68c3.084 3.22 4.254 7.147 3.507 11.782l-15.072-18.6Z"/><path fill="#343434" fill-rule="evenodd" d="M106.211 64.556a.63.63 0 0 1-.133-.497c.58-3.602-.043-6.716-1.836-9.387l-1.539-1.899a.63.63 0 0 1 .945-.832 15.093 15.093 0 0 1 1.608 1.981l13.483 16.638c3.216 3.368 4.431 7.49 3.657 12.299a.631.631 0 0 1-1.112.296l-15.073-18.6Zm12.055 6.42-13.517-16.679a14.524 14.524 0 0 0-1.556-1.92l1.556 1.92a12.603 12.603 0 0 1 1.397 2.724c.789 2.157.974 4.536.555 7.138l15.072 18.6c.047-.288.086-.574.117-.856.477-4.264-.731-7.906-3.624-10.927Z" clip-rule="evenodd"/><path fill="#fff" d="m71.186 75.063-5.804 29.861 15.072 18.6 5.805-29.861-15.073-18.6Z"/><path fill="#343434" fill-rule="evenodd" d="M64.892 105.321a.63.63 0 0 1-.129-.517l5.804-29.861a.63.63 0 0 1 1.109-.276l15.072 18.6a.63.63 0 0 1 .13.516l-5.805 29.861a.63.63 0 0 1-1.108.276l-15.073-18.599Zm.49-.397 5.804-29.86 15.073 18.599-5.805 29.861-15.072-18.6Z" clip-rule="evenodd"/><path fill="#fff" d="M25.711 152.717c-10.185-11.231-14.197-25.193-12.034-41.886l15.073 18.6c-1.883 14.534.914 26.998 8.392 37.392l3.642 4.493a51.246 51.246 0 0 1-3.642-4.493l-11.43-14.106Z"/><path fill="#343434" fill-rule="evenodd" d="M28.75 129.431c-1.61 12.429.202 23.343 5.437 32.744a47.63 47.63 0 0 0 2.956 4.648L25.71 152.717C15.703 141.682 11.656 128.009 13.57 111.7c.034-.289.07-.578.107-.869l15.073 18.6Zm-3.517 23.696c-10.316-11.382-14.364-25.53-12.181-42.377a.63.63 0 0 1 1.114-.315l15.073 18.599a.631.631 0 0 1 .136.478c-1.865 14.394.905 26.687 8.269 36.928l3.63 4.48a.629.629 0 0 1-.957.819 51.916 51.916 0 0 1-3.675-4.534l-11.41-14.078Zm11.91 13.696 3.641 4.493a51.246 51.246 0 0 1-3.642-4.493Z" clip-rule="evenodd"/><path fill="#fff" d="M94.326 77.711c-2.912.667-6.529.581-10.85-.259l15.073 18.6c4.321.84 7.937.926 10.85.259l-15.073-18.6Z"/><path fill="#343434" fill-rule="evenodd" d="M82.936 77.128a.63.63 0 0 1 .66-.294c4.272.83 7.793.904 10.59.263a.63.63 0 0 1 .63.218l15.073 18.6a.63.63 0 0 1-.349 1.01c-3.029.693-6.741.594-11.11-.255a.63.63 0 0 1-.37-.222l-15.073-18.6a.63.63 0 0 1-.05-.72Zm1.493.5a46.271 46.271 0 0 1-.952-.176l15.072 18.6c3.983.774 7.368.908 10.155.401.236-.043.467-.09.695-.142l-15.073-18.6c-2.696.618-5.995.59-9.897-.084Z" clip-rule="evenodd"/><path fill="#fff" d="M106.701 64.16c-.26 1.336-.816 3.001-1.667 4.994l15.073 18.6c.851-1.993 1.406-3.658 1.666-4.995l-15.072-18.6Z"/><path fill="#343434" fill-rule="evenodd" d="M104.544 69.55a.63.63 0 0 1-.09-.643c.843-1.973 1.38-3.592 1.628-4.868a.63.63 0 0 1 1.108-.276l15.073 18.6a.632.632 0 0 1 .129.516c-.272 1.398-.846 3.11-1.706 5.122a.63.63 0 0 1-1.069.149l-15.073-18.6Zm.49-.396c.692-1.62 1.189-3.025 1.49-4.212.069-.272.128-.533.177-.783l15.072 18.6c-.23 1.186-.694 2.631-1.39 4.335-.089.216-.181.436-.276.66l-15.073-18.6Z" clip-rule="evenodd"/><path fill="#fff" d="M144.092 45.988c-1.545-4.578-3.79-8.686-6.736-12.322l15.059 18.582c2.952 3.64 5.202 7.754 6.749 12.34l-15.072-18.6ZM101.269 74.204c-1.687 1.522-4.001 2.691-6.943 3.507l15.073 18.6c2.941-.816 5.256-1.985 6.943-3.507l-15.073-18.6Z"/><path fill="#343434" fill-rule="evenodd" d="M93.726 77.52a.63.63 0 0 1 .431-.416c2.879-.798 5.096-1.93 6.69-3.367a.63.63 0 0 1 .912.071l15.073 18.6c.211.26.181.639-.068.863-1.78 1.606-4.192 2.813-7.196 3.646a.631.631 0 0 1-.659-.21l-15.073-18.6a.63.63 0 0 1-.11-.588Zm1.256 0c-.215.066-.434.13-.656.191l15.073 18.6c2.941-.816 5.256-1.985 6.943-3.507l-15.073-18.6c-.154.14-.314.276-.479.41-1.5 1.213-3.437 2.182-5.808 2.906Z" clip-rule="evenodd"/><path fill="#fff" d="M105.034 69.154c-.674 1.874-1.928 3.557-3.765 5.05l15.073 18.6c1.836-1.493 3.091-3.177 3.765-5.05l-15.073-18.6Z"/><path fill="#343434" fill-rule="evenodd" d="M100.78 74.6a.629.629 0 0 1 .092-.884c1.764-1.435 2.941-3.028 3.569-4.775a.63.63 0 0 1 1.083-.183l15.072 18.6a.63.63 0 0 1 .104.609c-.719 2-2.052 3.773-3.96 5.325a.63.63 0 0 1-.888-.092L100.78 74.6Zm.489-.396c1.615-1.313 2.781-2.773 3.496-4.38.098-.22.188-.444.269-.67l15.073 18.6c-.613 1.705-1.708 3.252-3.284 4.643-.156.137-.316.272-.481.407l-15.073-18.6Z" clip-rule="evenodd"/><path fill="#fff" d="M53.926 130.933c-2.827-3.49-4.325-7.874-4.494-13.152l15.072 18.6c.17 5.277 1.668 9.661 4.495 13.151l-15.073-18.599Z"/><path fill="#343434" fill-rule="evenodd" d="M49.212 117.191a.631.631 0 0 1 .71.194l15.072 18.599a.63.63 0 0 1 .14.377c.166 5.164 1.628 9.408 4.353 12.774l.002.001a.63.63 0 1 1-.98.793l-15.072-18.6c-2.928-3.615-4.462-8.138-4.635-13.528a.63.63 0 0 1 .41-.61Zm19.787 32.341a18.868 18.868 0 0 1-2.55-4.147c-1.189-2.638-1.837-5.64-1.945-9.004l-15.072-18.6c.011.36.029.715.053 1.066.326 4.805 1.807 8.833 4.441 12.086L69 149.532Z" clip-rule="evenodd"/><path fill="#fff" d="m65.382 104.924 18.324 3.562 15.072 18.6-18.324-3.562-15.072-18.6Z"/><path fill="#343434" fill-rule="evenodd" d="M83.826 107.868a.63.63 0 0 1 .37.222l15.072 18.599a.63.63 0 0 1-.61 1.015l-18.324-3.562a.63.63 0 0 1-.37-.222l-15.072-18.599a.63.63 0 0 1 .61-1.015l18.324 3.562Zm-18.444-2.944 15.072 18.6 18.325 3.562-15.073-18.6-18.324-3.562Z" clip-rule="evenodd"/><path fill="#fff" d="M144.929 66.734c1.531-7.874 1.252-14.79-.837-20.746l15.072 18.6c2.089 5.956 2.368 12.871.838 20.745l-15.073-18.6ZM56.759 133.775a19.874 19.874 0 0 1-2.827-2.834L69 149.532a19.87 19.87 0 0 0 2.832 2.843l-15.072-18.6Z"/><path fill="#343434" fill-rule="evenodd" d="M53.536 130.451a.63.63 0 0 1 .886.093c.8.987 1.713 1.902 2.737 2.745a.634.634 0 0 1 .09.09l15.072 18.599a.63.63 0 0 1-.89.883 20.508 20.508 0 0 1-2.922-2.932l-15.066-18.592a.63.63 0 0 1 .093-.886Zm15.463 19.081a19.87 19.87 0 0 0 2.832 2.843l-15.072-18.6a19.874 19.874 0 0 1-2.827-2.834L69 149.532Z" clip-rule="evenodd"/><path fill="#fff" d="M83.706 108.486c6.36 1.237 10.772 3.375 13.235 6.415l15.069 18.596c-2.463-3.038-6.874-5.175-13.232-6.411l-15.072-18.6ZM136.504 83.828c4.375-5.008 7.183-10.706 8.425-17.094l15.073 18.6c-1.242 6.387-4.05 12.085-8.425 17.094l-15.073-18.6ZM73.633 141.218c-6.555-1.274-12.18-3.755-16.874-7.443l15.072 18.6c4.695 3.687 10.32 6.168 16.875 7.442l-15.073-18.599Z"/><path fill="#343434" fill-rule="evenodd" d="M56.31 133.333a.631.631 0 0 1 .838-.053c4.607 3.619 10.136 6.062 16.605 7.32a.63.63 0 0 1 .37.222l15.072 18.599a.63.63 0 0 1-.61 1.014c-6.641-1.29-12.361-3.809-17.143-7.565a.652.652 0 0 1-.1-.099l-15.073-18.6a.629.629 0 0 1 .04-.838Zm2.435 1.893a34.847 34.847 0 0 1-1.986-1.451l15.072 18.6c4.461 3.504 9.762 5.918 15.902 7.243.322.069.646.136.973.199l-15.073-18.599c-5.655-1.099-10.618-3.097-14.888-5.992Z" clip-rule="evenodd"/><path fill="#fff" d="M121.211 94.5c5.97-2.077 11.068-5.634 15.293-10.672l15.073 18.6c-4.226 5.037-9.324 8.594-15.293 10.672l-15.073-18.6ZM96.94 114.901c.307.378.583.77.829 1.175l15.072 18.6a10.478 10.478 0 0 0-.827-1.175l-15.073-18.6Z"/><path fill="#343434" fill-rule="evenodd" d="M97.279 116.473a.677.677 0 0 1-.05-.071 9.97 9.97 0 0 0-.778-1.104.63.63 0 1 1 .98-.793l15.072 18.6c.324.399.616.814.877 1.245a.629.629 0 0 1-1.028.722l-15.073-18.599Zm-.338-1.572c.306.378.582.77.828 1.175l15.072 18.6a10.478 10.478 0 0 0-.827-1.175l-15.073-18.6Z" clip-rule="evenodd"/><path fill="#fff" d="M130.458 102.487c-2.476-3.053-5.558-5.716-9.247-7.987l15.073 18.6c3.688 2.271 6.77 4.933 9.246 7.987l-15.072-18.6Z"/><path fill="#343434" fill-rule="evenodd" d="M120.738 94.084a.63.63 0 0 1 .804-.12c3.742 2.305 6.88 5.013 9.405 8.127l15.073 18.599a.63.63 0 0 1-.979.793l-.002-.002-4.053-5.001a33.824 33.824 0 0 1 4.544 4.607l-15.072-18.6c-2.083-2.568-4.595-4.86-7.535-6.875a41.587 41.587 0 0 0-1.712-1.112l15.073 18.6m8.755 8.381c-2.427-2.992-5.453-5.608-9.086-7.845a.664.664 0 0 1-.159-.14l-15.073-18.6a.63.63 0 0 1 .017-.812" clip-rule="evenodd"/><path fill="#fff" d="M25.711 152.717c10.215 11.082 23.888 18.288 41.02 21.618l15.074 18.599c-17.133-3.33-30.807-10.536-41.021-21.618l-15.073-18.599Z"/><path fill="#343434" fill-rule="evenodd" d="M66.852 173.717a.63.63 0 0 1 .37.222l15.072 18.599a.63.63 0 0 1-.61 1.014c-17.242-3.351-31.044-10.614-41.363-21.809a.466.466 0 0 1-.027-.031l-15.072-18.599a.63.63 0 0 1 .953-.823c10.11 10.968 23.655 18.118 40.677 21.427Zm-41.14-21 15.072 18.599c10.022 10.873 23.373 18.014 40.054 21.425.32.066.643.13.967.193l-15.073-18.599c-14.915-2.899-27.209-8.736-36.88-17.51a65.496 65.496 0 0 1-4.14-4.108Z" clip-rule="evenodd"/><path fill="#fff" d="M97.769 116.076c2.224 3.67 2.932 7.585 2.123 11.745l15.073 18.599c.808-4.159.1-8.074-2.124-11.744l-15.072-18.6Z"/><path fill="#343434" fill-rule="evenodd" d="M99.402 128.217a.628.628 0 0 1-.129-.516c.779-4.004.1-7.76-2.043-11.299a.629.629 0 0 1 1.028-.722l15.073 18.6a.583.583 0 0 1 .049.07c2.304 3.802 3.042 7.875 2.203 12.191a.63.63 0 0 1-1.108.276l-15.073-18.6Zm.49-.396c.619-3.184.349-6.225-.809-9.122a17.877 17.877 0 0 0-1.314-2.623l15.072 18.6c2.077 3.426 2.831 7.065 2.265 10.918-.041.274-.088.55-.141.826l-15.073-18.599Z" clip-rule="evenodd"/><path fill="#fff" d="M82.298 141.977c-2.797.073-5.686-.18-8.665-.759l15.073 18.599c2.98.579 5.867.833 8.665.76l-15.073-18.6Z"/><path fill="#343434" fill-rule="evenodd" d="M73.093 140.894a.63.63 0 0 1 .66-.294c2.938.571 5.78.819 8.528.748a.631.631 0 0 1 .507.233L97.86 160.18a.63.63 0 0 1-.473 1.026c-2.846.074-5.78-.183-8.802-.771a.628.628 0 0 1-.37-.221l-15.072-18.6a.628.628 0 0 1-.05-.72Zm1.492.498a41.695 41.695 0 0 1-.952-.174l15.073 18.599c2.696.524 5.317.781 7.864.772.267-.001.534-.005.8-.012l-15.072-18.6c-2.498.065-5.07-.13-7.713-.585Z" clip-rule="evenodd"/><path fill="#fff" d="M90.235 140.514c-2.345.931-4.991 1.419-7.937 1.463l15.073 18.6c2.946-.044 5.592-.532 7.937-1.464l-15.073-18.599Z"/><path fill="#343434" fill-rule="evenodd" d="M81.727 141.71a.629.629 0 0 1 .561-.362c2.882-.044 5.45-.52 7.715-1.42a.632.632 0 0 1 .722.189l15.073 18.6a.629.629 0 0 1-.257.981c-2.427.964-5.151 1.463-8.16 1.508a.63.63 0 0 1-.5-.233l-15.073-18.6a.63.63 0 0 1-.081-.663Zm1.363.244c-.261.012-.526.019-.792.023l15.073 18.6c2.688-.041 5.127-.45 7.316-1.23.209-.075.416-.153.621-.234l-15.073-18.599c-2.133.847-4.515 1.327-7.145 1.44Z" clip-rule="evenodd"/><path fill="#fff" d="M99.892 127.821c-.635 3.268-1.855 5.961-3.657 8.077l15.072 18.6c1.803-2.117 3.022-4.809 3.658-8.078l-15.073-18.599Z"/><path fill="#343434" fill-rule="evenodd" d="M95.745 136.294a.629.629 0 0 1 .01-.804c1.72-2.019 2.9-4.606 3.518-7.789a.63.63 0 0 1 1.109-.276l15.072 18.599a.626.626 0 0 1 .129.517c-.652 3.353-1.91 6.151-3.796 8.365a.628.628 0 0 1-.969-.012l-15.073-18.6Zm.49-.396c1.655-1.943 2.818-4.371 3.489-7.284.06-.26.116-.525.168-.793l15.073 18.599c-.587 3.017-1.67 5.543-3.251 7.578-.132.17-.268.337-.407.5l-15.072-18.6Z" clip-rule="evenodd"/><path fill="#fff" d="M96.235 135.898a16.366 16.366 0 0 1-6 4.616l15.073 18.599a16.359 16.359 0 0 0 5.999-4.615l-15.072-18.6Z"/><path fill="#343434" fill-rule="evenodd" d="M89.622 140.369a.63.63 0 0 1 .352-.429 15.726 15.726 0 0 0 5.772-4.439.632.632 0 0 1 .978.001l15.073 18.599a.63.63 0 0 1-.001.794 16.987 16.987 0 0 1-6.227 4.791.63.63 0 0 1-.75-.177L89.746 140.91a.63.63 0 0 1-.124-.541Zm1.198-.134c-.192.096-.387.189-.585.279l15.073 18.599a16.359 16.359 0 0 0 5.999-4.615l-15.072-18.6a16.303 16.303 0 0 1-5.415 4.337Z" clip-rule="evenodd"/><path fill="#fff" d="M136.006 112.64c-1.26-3.758-3.106-7.138-5.538-10.14l15.062 18.587c2.437 3.005 4.286 6.389 5.549 10.152l-15.073-18.599Z"/><path fill="#fff" d="M137.398 136.499c1.795-8.439 1.331-16.392-1.392-23.859l15.073 18.599c2.723 7.467 3.187 15.42 1.392 23.859l-15.073-18.599ZM66.732 174.335c6.853 1.332 13.85 1.921 20.992 1.768l15.073 18.599c-7.142.154-14.14-.436-20.992-1.768l-15.073-18.599ZM87.724 176.103c7.29-.125 14.366-1.525 21.224-4.2l15.073 18.599c-6.859 2.675-13.934 4.075-21.224 4.2l-15.073-18.599Z"/><path fill="#fff" d="M126.686 159.393c5.115-5.635 8.686-13.266 10.712-22.894l15.073 18.599c-2.026 9.628-5.597 17.259-10.712 22.895l-15.073-18.6ZM108.948 171.903c6.859-2.676 12.772-6.845 17.738-12.51l15.073 18.6c-4.966 5.664-10.879 9.834-17.738 12.509l-15.073-18.599Z"/><path fill="#fff" d="M30.015 50.64c2.39-8.322 5.817-15.211 10.279-20.665 4.639-5.574 9.956-9.86 15.95-12.857 5.993-2.998 12.53-4.81 19.61-5.439 7.228-.6 14.716-.146 22.463 1.36a84.378 84.378 0 0 1 19.635 6.36c6.415 2.79 11.823 6.385 16.224 10.786 4.55 4.43 7.856 9.698 9.916 15.803 2.089 5.957 2.368 12.872.837 20.746-1.242 6.388-4.05 12.086-8.425 17.094-4.225 5.038-9.323 8.595-15.293 10.672 7.318 4.506 12.25 10.553 14.795 18.14 2.723 7.467 3.187 15.42 1.392 23.859-2.026 9.628-5.597 17.259-10.712 22.894-4.966 5.665-10.879 9.834-17.738 12.51-6.858 2.675-13.933 4.075-21.224 4.2-7.142.153-14.14-.436-20.992-1.768-17.133-3.33-30.806-10.536-41.02-21.618-10.186-11.231-14.198-25.193-12.035-41.886l35.755 6.95c.219 6.827 2.661 12.158 7.327 15.994 4.694 3.688 10.319 6.169 16.874 7.443 2.98.579 5.868.832 8.665.759 2.946-.044 5.592-.532 7.937-1.463a16.366 16.366 0 0 0 6-4.616c1.802-2.116 3.022-4.809 3.657-8.077.809-4.16.1-8.075-2.123-11.745-2.225-3.67-6.912-6.2-14.063-7.59l-18.324-3.562 5.804-29.86 12.29 2.388c4.321.84 7.938.926 10.85.26 2.942-.817 5.256-1.986 6.943-3.508 1.837-1.493 3.091-3.176 3.765-5.05.851-1.993 1.407-3.658 1.667-4.995.746-4.634-.423-8.562-3.508-11.782-2.907-3.34-7.042-5.532-12.405-6.574-6.108-1.187-11.447-.76-16.019 1.28-4.422 2.07-7.57 5.543-9.446 10.42l-35.308-6.862Z"/><path fill="#343434" fill-rule="evenodd" d="m29.22 51.128.19-.661c2.409-8.387 5.87-15.357 10.396-20.89l.001-.003.002-.002c4.69-5.635 10.074-9.978 16.152-13.017 6.07-3.035 12.683-4.868 19.837-5.503h.003c7.291-.605 14.837-.147 22.636 1.369a85.018 85.018 0 0 1 19.774 6.405c6.474 2.815 11.947 6.45 16.408 10.911 4.621 4.5 7.977 9.852 10.069 16.047 2.133 6.086 2.406 13.117.86 21.07-1.263 6.498-4.121 12.295-8.565 17.384-4.008 4.777-8.797 8.252-14.361 10.414 6.841 4.498 11.511 10.427 13.979 17.78 2.764 7.585 3.23 15.657 1.413 24.198-2.042 9.703-5.65 17.445-10.858 23.183-5.03 5.736-11.025 9.964-17.978 12.676-6.927 2.702-14.075 4.117-21.44 4.243-7.186.155-14.228-.438-21.126-1.779-17.243-3.352-31.045-10.614-41.364-21.81l-.002-.002-.002-.001c-10.324-11.384-14.376-25.536-12.192-42.39l.086-.665 36.907 7.174.016.502c.215 6.669 2.59 11.819 7.093 15.524 4.605 3.616 10.133 6.058 16.599 7.315 2.938.571 5.78.819 8.528.748h.007c2.876-.043 5.44-.518 7.7-1.414a15.73 15.73 0 0 0 5.758-4.433l.004-.006.005-.005c1.72-2.019 2.9-4.606 3.518-7.789.779-4.004.1-7.76-2.043-11.299-2.085-3.44-6.552-5.919-13.644-7.298l-18.943-3.682 6.044-31.097 12.91 2.51c4.264.828 7.78.903 10.574.266 2.872-.799 5.084-1.928 6.676-3.364l.012-.011.013-.01c1.764-1.435 2.941-3.028 3.569-4.775l.006-.017.007-.017c.841-1.968 1.377-3.584 1.626-4.858.714-4.447-.405-8.17-3.342-11.237l-.01-.01-.01-.012c-2.795-3.211-6.792-5.347-12.05-6.369-6.01-1.168-11.21-.74-15.636 1.235-4.261 1.996-7.3 5.339-9.121 10.074l-.19.493-36.502-7.095ZM94.325 77.71c-2.912.667-6.529.581-10.85-.259l-12.29-2.389-5.804 29.861 18.324 3.562c7.15 1.39 11.838 3.92 14.063 7.59 2.224 3.67 2.932 7.585 2.123 11.745-.635 3.268-1.855 5.961-3.657 8.077a16.366 16.366 0 0 1-6 4.616c-2.345.931-4.991 1.419-7.937 1.463-2.797.073-5.686-.18-8.665-.759-6.555-1.274-12.18-3.755-16.874-7.443-4.666-3.836-7.108-9.167-7.327-15.994l-35.755-6.95-.079.627c-1.982 16.416 2.055 30.169 12.113 41.259 10.215 11.082 23.888 18.288 41.02 21.618 6.854 1.332 13.851 1.921 20.993 1.768 7.29-.125 14.366-1.525 21.224-4.2 6.859-2.676 12.772-6.845 17.738-12.51 5.115-5.635 8.686-13.266 10.712-22.894 1.795-8.439 1.331-16.392-1.392-23.859-2.465-7.35-7.171-13.254-14.116-17.713-.224-.144-.45-.286-.679-.427.253-.088.504-.178.754-.272 5.646-2.11 10.493-5.576 14.539-10.4 4.375-5.008 7.183-10.706 8.425-17.094 1.531-7.874 1.252-14.79-.837-20.746-2.06-6.105-5.366-11.372-9.916-15.803-4.401-4.401-9.809-7.996-16.224-10.785a84.378 84.378 0 0 0-19.635-6.36c-7.747-1.507-15.235-1.96-22.463-1.36-7.08.627-13.617 2.44-19.61 5.438-5.994 2.998-11.311 7.283-15.95 12.857-4.353 5.32-7.72 12.007-10.102 20.059-.06.201-.119.404-.177.607l35.308 6.863c1.876-4.878 5.024-8.351 9.446-10.42 4.572-2.042 9.911-2.468 16.02-1.281 5.362 1.042 9.497 3.234 12.404 6.574 3.085 3.22 4.254 7.148 3.508 11.782-.26 1.337-.816 3.002-1.667 4.995-.674 1.874-1.928 3.557-3.765 5.05-1.687 1.522-4.001 2.691-6.943 3.507Z" clip-rule="evenodd"/></svg>