<svg xmlns="http://www.w3.org/2000/svg" width="178" height="206" fill="none"><path fill="#fff" d="m108.403 199.34-35.448-6.89L95.248 77.762 65.02 71.887l5.308-27.307c8.699 1.69 16.72 1.833 24.065.427 7.375-1.558 13.785-5.507 19.23-11.848l26.096 5.072-31.316 161.109Z"/><path fill="#343434" fill-rule="evenodd" d="m108.883 200.084-36.652-7.125L94.524 78.272l-30.228-5.876 5.551-28.56.603.117c8.636 1.679 16.579 1.816 23.835.428 7.229-1.528 13.52-5.399 18.882-11.642l.234-.274 27.042 5.257-31.56 162.362ZM94.393 45.007c-7.344 1.406-15.366 1.264-24.065-.427L65.02 71.887l30.228 5.875L72.955 192.45l35.448 6.89 31.316-161.108-26.096-5.073c-5.445 6.34-11.855 10.29-19.23 11.848Z" clip-rule="evenodd"/><path fill="#fff" d="M79.83 26.286c-7.344 1.406-15.366 1.263-24.065-.427L70.328 44.58c8.699 1.69 16.72 1.833 24.065.427L79.83 26.286Z"/><path fill="#343434" fill-rule="evenodd" d="M55.24 25.534a.616.616 0 0 1 .647-.302c8.639 1.679 16.583 1.816 23.84.427a.595.595 0 0 1 .584.222l14.563 18.721a.652.652 0 0 1-.378 1.032c-7.432 1.423-15.53 1.276-24.29-.427a.6.6 0 0 1-.359-.222L55.285 26.264a.655.655 0 0 1-.044-.73Zm1.458.5c-.31-.056-.621-.115-.933-.175L70.328 44.58c8.425 1.638 16.215 1.823 23.37.555.232-.04.464-.084.695-.128L79.83 26.286c-7.081 1.355-14.792 1.272-23.132-.252Z" clip-rule="evenodd"/><path fill="#fff" d="m55.765 25.859-5.308 27.306L65.02 71.887l5.308-27.307-14.563-18.721Z"/><path fill="#343434" fill-rule="evenodd" d="M49.977 53.57a.65.65 0 0 1-.122-.522l5.308-27.307a.64.64 0 0 1 .458-.5.595.595 0 0 1 .625.213l14.563 18.721a.65.65 0 0 1 .122.522l-5.308 27.307a.64.64 0 0 1-.459.5.595.595 0 0 1-.624-.212L49.977 53.57Zm.48-.405 5.308-27.306L70.328 44.58 65.02 71.887 50.457 53.165Z" clip-rule="evenodd"/><path fill="#fff" d="M99.06 14.437c-5.445 6.341-11.855 10.29-19.23 11.849l14.563 18.721c7.375-1.558 13.785-5.507 19.23-11.848L99.06 14.437Z"/><path fill="#343434" fill-rule="evenodd" d="M79.254 26.073a.635.635 0 0 1 .462-.412c7.232-1.528 13.524-5.399 18.888-11.644.12-.14.294-.22.475-.217.18.003.349.088.462.232l14.563 18.722a.657.657 0 0 1-.025.825c-5.527 6.437-12.054 10.465-19.572 12.053a.595.595 0 0 1-.594-.22L79.35 26.691a.652.652 0 0 1-.096-.618Zm1.255.062c-.225.052-.451.103-.678.15l14.562 18.722c7.375-1.558 13.785-5.507 19.23-11.848L99.06 14.437c-.14.163-.28.324-.42.483-5.185 5.868-11.229 9.606-18.131 11.215Z" clip-rule="evenodd"/><path fill="#fff" d="m50.457 53.165 30.228 5.876 14.563 18.721-30.228-5.875-14.563-18.722Z"/><path fill="#343434" fill-rule="evenodd" d="M80.807 58.414a.6.6 0 0 1 .36.222l14.562 18.721a.655.655 0 0 1 .044.73.615.615 0 0 1-.646.302l-30.228-5.876a.6.6 0 0 1-.36-.221L49.978 53.57a.656.656 0 0 1-.044-.73.615.615 0 0 1 .646-.302l30.228 5.876Zm-30.35-5.249L65.02 71.887l30.228 5.875-14.563-18.721-30.228-5.876Z" clip-rule="evenodd"/><path fill="#fff" d="M125.156 19.51 99.06 14.437l14.563 18.722 26.096 5.072-14.563-18.721Z"/><path fill="#343434" fill-rule="evenodd" d="M98.535 14.113a.615.615 0 0 1 .647-.302l26.096 5.072a.6.6 0 0 1 .359.222L140.2 37.827a.657.657 0 0 1 .044.729.616.616 0 0 1-.647.302l-26.096-5.072a.598.598 0 0 1-.359-.222L98.579 14.842a.655.655 0 0 1-.044-.729Zm.525.324 14.563 18.722 26.096 5.072-14.563-18.721-26.096-5.073Z" clip-rule="evenodd"/><path fill="#fff" d="M80.685 59.04 58.392 173.729l14.563 18.722L95.248 77.762 80.685 59.041Z"/><path fill="#343434" fill-rule="evenodd" d="M57.912 174.133a.648.648 0 0 1-.122-.522L80.083 58.924a.64.64 0 0 1 .458-.5.595.595 0 0 1 .625.212L95.73 77.357a.65.65 0 0 1 .122.522L73.558 192.567a.639.639 0 0 1-.458.5.595.595 0 0 1-.625-.212l-14.563-18.722Zm.48-.405L80.685 59.041l14.563 18.721L72.955 192.45l-14.563-18.722Z" clip-rule="evenodd"/><path fill="#fff" d="M93.84 180.619 125.156 19.51l14.563 18.721-31.316 161.109-14.563-18.721Z"/><path fill="#343434" fill-rule="evenodd" d="M125.012 18.892a.595.595 0 0 1 .625.213L140.2 37.827a.65.65 0 0 1 .122.522l-31.317 161.108a.64.64 0 0 1-.458.501.598.598 0 0 1-.625-.213l-14.563-18.722a.648.648 0 0 1-.122-.522l31.317-161.108a.64.64 0 0 1 .458-.5ZM93.84 180.62 125.156 19.51l14.563 18.721-31.316 161.109-14.563-18.721Z" clip-rule="evenodd"/><path fill="#fff" d="m58.392 173.728 35.448 6.891 14.563 18.721-35.448-6.89-14.563-18.722Z"/><path fill="#343434" fill-rule="evenodd" d="M93.962 179.992a.597.597 0 0 1 .358.222l14.563 18.721a.653.653 0 0 1 .044.729.615.615 0 0 1-.646.303l-35.447-6.89a.601.601 0 0 1-.36-.222l-14.562-18.722a.654.654 0 0 1-.044-.729.616.616 0 0 1 .646-.303l35.448 6.891Zm-35.57-6.264 14.563 18.722 35.448 6.89-14.563-18.721-35.448-6.891Z" clip-rule="evenodd"/><path fill="#fff" d="m93.84 180.619-35.448-6.891L80.685 59.041l-30.228-5.876 5.308-27.306c8.699 1.69 16.72 1.833 24.066.427 7.374-1.558 13.784-5.508 19.229-11.849l26.096 5.073L93.84 180.619Z"/><path fill="#343434" fill-rule="evenodd" d="m94.32 181.363-36.652-7.125L79.961 59.551l-30.228-5.876 5.552-28.56.602.117c8.636 1.678 16.579 1.816 23.835.428 7.229-1.529 13.52-5.4 18.882-11.643l.234-.273L125.88 19 94.32 181.363ZM79.83 26.286c-7.344 1.406-15.366 1.263-24.065-.427l-5.308 27.306 30.228 5.876-22.293 114.687 35.448 6.891L125.156 19.51 99.06 14.437c-5.445 6.341-11.855 10.29-19.23 11.849Z" clip-rule="evenodd"/></svg>