<svg width="156" height="110" viewBox="0 0 156 110" fill="none" xmlns="http://www.w3.org/2000/svg">
<path fill-rule="evenodd" clip-rule="evenodd" d="M60.8658 5.5V0H105.132V5.5H110.665V27.5H82.9988V33H99.5985V38.5H71.9323V49.5H92.6568V61.575H156V88.7438H150.039V94.7813H86.696V55.5375H82.9988V60.5H77.4655V55H71.9323V71.5H66.399V77H60.8658V82.5H55.3325V104.5H60.8658V110H49.7993V93.5H44.266V88H38.7328V93.5H27.6663V96.5625H33.1995V102.063H22.133V88H16.5998V82.5H11.0665V77H5.53325V71.5H0V38.5H5.53325V49.5H11.0665V55H16.5998V60.5H27.6663V55H33.1995V49.5H38.7328V44H49.7993V38.5H55.3325V5.5H60.8658ZM71.9323 5.5H66.399V11H71.9323V5.5Z" fill="white"/>
<path d="M101.598 100.819H92.6568V109.875H101.598V100.819Z" fill="white"/>
<path d="M141.098 100.819H150.039V109.875H141.098V100.819Z" fill="white"/>
</svg>
