<svg xmlns="http://www.w3.org/2000/svg" width="300" height="600" fill="none"><g clip-path="url(#a)"><path fill="#fff" fill-rule="evenodd" d="M390.093 125.811a1.499 1.499 0 0 1-1.299 1.677c-27.809 3.537-66.12 11.515-104.338 24.777-36.894 12.804-73.59 30.495-100.677 53.786 32.434.897 64.857 13.473 87.296 32.096 23.323 19.356 36.168 45.569 26.278 72.117-11.559 31.031-34.328 43.294-57.713 45.557-23.262 2.251-47.139-5.374-61.365-14.026-7.122-4.332-18.237-12.935-26.969-24.594-8.733-11.663-15.184-26.531-12.637-43.296 3.831-25.214 17.907-46.675 37.315-64.885-19.114.181-47.205 1.794-73.704 14.836-28.261 13.909-54.87 40.901-66.676 93.54-5.864 26.148-1.477 55.856 9.692 86.871 11.165 31.002 29.062 63.189 50.06 94.227 41.997 62.078 96.274 119.384 133.442 153.165a1.5 1.5 0 1 1-2.018 2.22c-37.299-33.901-91.748-91.383-133.909-153.704-21.08-31.161-39.12-63.576-50.398-94.892-11.273-31.303-15.833-61.629-9.796-88.544 11.996-53.488 39.17-81.248 68.278-95.575 28.73-14.14 59.19-15.114 78.328-15.163 27.724-24.749 65.974-43.308 104.189-56.57 38.431-13.337 76.947-21.358 104.944-24.919a1.5 1.5 0 0 1 1.677 1.299ZM180.434 209c-20.345 18.397-34.947 40.003-38.799 65.356-2.384 15.691 3.621 29.76 12.073 41.046 8.455 11.291 19.256 19.651 26.126 23.83 13.76 8.369 36.996 15.782 59.517 13.603 22.398-2.167 44.084-13.802 55.191-43.618 9.26-24.859-2.562-49.822-25.383-68.762-22.668-18.813-55.882-31.364-88.725-31.455Z" clip-rule="evenodd" opacity=".25"/></g><defs><clipPath id="a"><path fill="#fff" d="M0 0h300v600H0z"/></clipPath></defs></svg>