<svg width="86" height="36" fill="none" xmlns="http://www.w3.org/2000/svg"><path d="M47.435 18.2v6.406H42.96V0h4.474v14.31h2.22l3.617-6.501h5.108l-4.95 7.968 5.33 8.829h-5.202l-3.744-6.407h-2.38ZM65.387 24.606h-4.473V7.809h4.473v16.797ZM81.59 22.725c-.677.723-1.438 1.254-2.284 1.594-.825.319-1.83.5-3.014.542-1.1 0-2.115-.17-3.046-.51a6.653 6.653 0 0 1-2.41-1.594 7.322 7.322 0 0 1-1.714-2.964 12.634 12.634 0 0 1-.476-3.442c0-2.741.762-4.94 2.284-6.598.677-.722 1.523-1.285 2.538-1.69 1.016-.403 2.168-.605 3.459-.605.972 0 1.84.149 2.601.446.783.277 1.438.691 1.967 1.243V2.04H86v22.566h-4.156l-.254-1.88Zm-4.251-1.848c1.354-.043 2.38-.5 3.077-1.37.72-.893 1.079-1.988 1.079-3.284 0-1.402-.36-2.539-1.079-3.41s-1.766-1.318-3.14-1.339c-.698 0-1.312.117-1.84.35a3.571 3.571 0 0 0-1.301 1.02 4.352 4.352 0 0 0-.762 1.499 6.182 6.182 0 0 0-.254 1.817c0 .7.085 1.338.254 1.912.17.552.423 1.041.762 1.466.36.425.803.754 1.332.988.55.234 1.174.35 1.872.35ZM8.822 16.566c1.223-.103 2.06-.493 2.514-1.17.451-.699.606-1.65.464-2.854l-.769-9.274 4.458-.373.78 9.402c.096 1.164.062 2.17-.101 3.015a6.117 6.117 0 0 1-.92 2.347c-.358.542-.768.97-1.23 1.287-.441.314-.928.589-1.46.825a8.443 8.443 0 0 1-1.678.492c-.584.134-1.16.225-1.729.273-1.307.11-2.512.029-3.617-.241a5.921 5.921 0 0 1-2.837-1.586 5.865 5.865 0 0 1-1.326-2.16c-.279-.808-.467-1.795-.563-2.96L.029 4.189l4.458-.373.768 9.275c.08 1.209.408 2.108.988 2.7.58.59 1.44.85 2.58.776ZM23.765 4.474a6.7 6.7 0 0 1 2.28-2.078c.951-.548 1.922-.875 2.91-.979 1.18-.12 2.293 0 3.341.36 1.047.34 1.95.989 2.709 1.949.609.695 1.081 1.53 1.417 2.504.335.974.549 2.012.64 3.113.114 1.376.049 2.64-.196 3.79a6.726 6.726 0 0 1-1.407 2.996 6.46 6.46 0 0 1-2.266 1.853 8.002 8.002 0 0 1-2.8.778c-.464.038-.93.045-1.4.02a6.52 6.52 0 0 1-1.414-.169 6.779 6.779 0 0 1-1.444-.519 5.563 5.563 0 0 1-1.357-1.006l.734 8.862-4.458.373L19.09 2.594l4.236-.354.44 2.234Zm4.29 1.048a4.04 4.04 0 0 0-1.74.53c-.486.275-.891.64-1.214 1.093a5.043 5.043 0 0 0-.733 1.532 5.445 5.445 0 0 0-.137 1.803c.096 1.42.56 2.533 1.39 3.338.85.781 1.941 1.138 3.273 1.07.716-.06 1.318-.228 1.805-.504a3.17 3.17 0 0 0 1.151-1.087c.302-.452.514-.97.635-1.557.142-.587.185-1.22.13-1.897a5.832 5.832 0 0 0-.438-1.819 4.066 4.066 0 0 0-.914-1.427 3.427 3.427 0 0 0-1.346-.879c-.525-.19-1.146-.256-1.863-.196Z" fill="#fff"/><path fill-rule="evenodd" clip-rule="evenodd" d="M32.245 24.569c-2.707 4.968-7.811 7.134-13.305 6.9-5.808-.249-11.642-3.192-14.757-7.887l-3.74 2.505c4.023 6.062 11.276 9.592 18.307 9.893 7.092.302 14.361-2.694 17.912-10.174l.009-.018.55-1.219h-4.976Z" fill="#fff"/></svg>