<svg width="32" height="32" fill="none" xmlns="http://www.w3.org/2000/svg"><path d="M8 2.667h13.332v2.666H8V2.667ZM5.331 8V5.333H8V8H5.332Zm0 16H2.666V8h2.666v16ZM8 26.667H5.332V24H8v2.667Zm16 0H8v2.666h16v-2.666ZM26.666 24v2.667h-2.667V24h2.667Zm0 0h2.666V10.667h-2.666V24ZM15.999 8h-5.333v2.667H7.999v10.666h2.667V24h10.666v-2.667H24V16h-2.667v5.333H10.666V10.667h5.333V8Zm2.667 10.667v-5.334h2.666v-2.666H24V8h5.333V5.333h-2.666V2.667H24V8h-2.667v2.667h-2.666v2.666h-5.334v5.334h5.334Z" fill="#343434"/></svg>