<svg width="32" height="32" fill="none" xmlns="http://www.w3.org/2000/svg"><path d="M25.765 7.416c-.203-.105-.4-.22-.59-.344a8.305 8.305 0 0 1-1.517-1.288c-1.132-1.295-1.554-2.608-1.709-3.527h.005C21.825 1.493 21.878 1 21.888 1h-5.154v19.924c0 .267 0 .532-.01.793 0 .032-.004.062-.006.098 0 .013 0 .029-.004.044v.012a4.373 4.373 0 0 1-2.2 3.472c-.65.37-1.385.563-2.133.562-2.4 0-4.347-1.957-4.347-4.374 0-2.419 1.947-4.376 4.347-4.376.455 0 .907.072 1.339.213l.006-5.248a9.57 9.57 0 0 0-7.376 2.16A10.111 10.111 0 0 0 4.144 17c-.218.375-1.039 1.883-1.138 4.328-.062 1.387.355 2.827.554 3.42v.013c.124.35.609 1.544 1.398 2.551a10.476 10.476 0 0 0 2.232 2.107v-.014l.012.014C9.696 31.112 12.462 31 12.462 31c.479-.02 2.083 0 3.904-.862 2.02-.958 3.17-2.383 3.17-2.383a9.906 9.906 0 0 0 1.728-2.87c.466-1.227.621-2.697.621-3.283V11.03c.063.037.896.588.896.588s1.2.769 3.07 1.269c1.342.356 3.151.432 3.151.432V8.204c-.633.07-1.92-.13-3.238-.787l.001-.001Z" fill="#343434"/></svg>