<svg width="32" height="32" fill="none" xmlns="http://www.w3.org/2000/svg"><path d="M15.996 11.109A4.901 4.901 0 0 0 11.106 16a4.901 4.901 0 0 0 4.89 4.891A4.901 4.901 0 0 0 20.886 16a4.901 4.901 0 0 0-4.89-4.891ZM30.665 16c0-2.025.018-4.032-.095-6.054-.114-2.348-.65-4.432-2.367-6.15-1.72-1.72-3.801-2.252-6.15-2.366-2.025-.114-4.032-.096-6.053-.096-2.026 0-4.033-.018-6.054.096-2.348.114-4.432.65-6.15 2.366-1.72 1.721-2.252 3.802-2.366 6.15-.114 2.025-.096 4.032-.096 6.054 0 2.022-.018 4.032.096 6.054.114 2.348.65 4.432 2.366 6.15 1.721 1.72 3.802 2.252 6.15 2.366 2.025.114 4.032.096 6.054.096 2.025 0 4.032.018 6.054-.096 2.348-.114 4.432-.65 6.15-2.366 1.72-1.721 2.252-3.802 2.366-6.15.117-2.022.095-4.029.095-6.054Zm-14.669 7.525A7.515 7.515 0 0 1 8.471 16a7.515 7.515 0 0 1 7.525-7.525A7.515 7.515 0 0 1 23.521 16a7.515 7.515 0 0 1-7.525 7.525ZM23.83 9.924a1.755 1.755 0 0 1-1.757-1.758c0-.972.785-1.757 1.758-1.757a1.755 1.755 0 0 1 1.624 2.43 1.754 1.754 0 0 1-1.625 1.085Z" fill="#343434"/></svg>