<svg xmlns="http://www.w3.org/2000/svg" viewBox="0 0 32 32" style="enable-background:new 0 0 32 32" xml:space="preserve"><path d="M31.3 7.9c.2-.7 0-1.3-1.1-1.3h-3.5c-.9 0-1.3.5-1.5 1 0 0-1.8 4.3-4.3 7-.8.8-1.2 1.1-1.6 1.1-.2 0-.6-.3-.6-1V7.9c0-.9-.2-1.3-1-1.3h-5.5c-.6 0-.9.4-.9.8 0 .8 1.3 1 1.4 3.4v5.1c0 1.1-.2 1.3-.6 1.3-1.2 0-4.1-4.3-5.8-9.2-.3-1-.7-1.3-1.6-1.3H1.2c-1 0-1.2.5-1.2 1 0 .8 1.2 5.4 5.5 11.3 2.9 4.1 7 6.3 10.7 6.3 2.2 0 2.5-.5 2.5-1.3v-3.1c0-1 .2-1.2.9-1.2.5 0 1.4.3 3.5 2.2 2.4 2.3 2.8 3.4 4.1 3.4h3.5c1 0 1.5-.5 1.2-1.5-.3-1-1.5-2.4-3-4-.8-.9-2-2-2.4-2.5-.5-.7-.4-.9 0-1.5.1 0 4.3-5.9 4.8-7.9z"/></svg>