<svg xmlns="http://www.w3.org/2000/svg" width="300" height="600" fill="none"><g clip-path="url(#a)"><path fill="#fff" fill-rule="evenodd" d="M32.893 38.506a1.5 1.5 0 0 1 1.363 1.625c-3.983 45.41 2.056 77.569 10.416 98.514 18.453 46.229 46.164 73.727 74.041 89.356 8.727-21.572 27.519-35.622 44.113-44.29 8.523-4.451 16.521-7.513 22.388-9.461 2.935-.975 5.34-1.673 7.016-2.128a86.932 86.932 0 0 1 2.457-.629l.135-.031.02-.005.016-.004.024-.006.15-.037.243-.06.333-.08c.502-.119 1.237-.289 2.174-.491 1.873-.405 4.557-.941 7.811-1.47 6.502-1.056 15.313-2.091 24.5-1.983 9.169.108 18.822 1.354 26.948 4.935 8.169 3.6 14.837 9.586 17.82 19.114 2.955 9.437 1.615 17.628-2.576 24.588-4.156 6.901-11.052 12.497-19.074 16.977-16.029 8.951-37.027 13.705-51.468 15.362-18.958 2.893-50.157.575-81.431-16.012-12.822 39.789-13.26 71.467-5.542 96.163 77.868-54.721 149.536-54.069 182.606-51.496 11.039.859 27.465 4.711 40.912 13.537 13.508 8.867 24.085 22.827 22.983 43.738-1.108 21.016-17.304 37.526-36.608 49.212-19.362 11.721-42.273 18.859-57.681 20.988-30.182 4.169-63.482 1.594-91.89-9.852-27.851-11.221-51.061-31.003-61.881-61.334-9.122 6.581-18.325 13.938-27.558 22.159-21.973 19.565-31.72 40.782-33.108 62.253-1.391 21.52 5.605 43.47 17.45 64.458 23.703 41.999 66.583 79.712 98.914 101.591l.019.013.019.014c13.43 9.702 51.992 33.969 98.402 53.12a1.5 1.5 0 0 1-1.145 2.773c-46.627-19.24-85.38-43.615-98.997-53.449-32.527-22.016-75.809-60.034-99.825-102.588-12.018-21.293-19.272-43.83-17.83-66.126 1.444-22.344 11.611-44.271 34.106-64.3 9.56-8.512 19.094-16.11 28.544-22.888-8.264-25.598-7.857-58.255 5.278-98.98l.005-.014.004-.014.15-.43c-28.62-15.932-56.964-44.009-75.753-91.081C33.32 118.3 27.25 85.658 31.267 39.869a1.5 1.5 0 0 1 1.626-1.363Zm88.47 190.945c30.813 16.451 61.535 18.699 79.955 15.882l.028-.005.028-.003c14.231-1.63 34.812-6.314 50.374-15.005 7.779-4.343 14.184-9.622 17.967-15.905 3.747-6.223 4.982-13.524 2.283-22.144-2.67-8.528-8.608-13.934-16.167-17.265-7.602-3.35-16.799-4.574-25.774-4.68-8.957-.105-17.584.904-23.983 1.945a152.431 152.431 0 0 0-7.659 1.44 106.395 106.395 0 0 0-2.662.611l-.137.034-.041.01-.001.001-.023.005-.023.006h-.001l-.006.001-.028.007-.12.027c-.107.026-.27.064-.483.117a81.64 81.64 0 0 0-1.874.487c-1.629.442-3.98 1.124-6.857 2.08-5.755 1.911-13.597 4.914-21.944 9.274-16.415 8.574-34.572 22.287-42.852 43.08Zm-5.611 101.98c10.347 29.81 32.973 49.291 60.461 60.366 27.835 11.215 60.592 13.775 90.358 9.663 15.024-2.075 37.544-9.083 56.538-20.582 19.053-11.534 34.139-27.318 35.166-46.804 1.033-19.592-8.782-32.637-21.633-41.072-12.912-8.475-28.811-12.222-39.499-13.054-32.805-2.552-104.025-3.211-181.391 51.483Z" clip-rule="evenodd" opacity=".25"/></g><defs><clipPath id="a"><path fill="#fff" d="M0 0h300v600H0z"/></clipPath></defs></svg>