<svg width="365" height="182" fill="none" xmlns="http://www.w3.org/2000/svg"><path d="M1.632 130.778c38.525 45.652 140.355 75.124 181.115 18.323 40.759-56.802 16.618-93.931 3.997-114.622-12.621-20.69-38.935-38.56-71.022-30.382-28.88 7.36-33.784 31.95-28.88 49.425 13.625 48.548 71.03 104.887 174.764 67.182 20.796-8.813 22.428-35.108 22.428-35.108s5.607-43.517-27.372-45.14c-25.522-1.255-30.7 28.733-25.522 45.14 5.397 20.847 39.377 65.989 132.126 79.781" stroke="#5455F6" stroke-width="3" stroke-linecap="round"/><path d="m135.975 122.269 10.043 1.023-1.598 15.684-10.043-1.023-1.687 16.563-17.826-1.815 1.687-16.563-43.436-4.424 1.29-12.673 45.743-55.561 21.592 2.199-5.765 56.59Zm-40.549-4.13 22.723 2.314 3.63-35.635-26.353 33.321ZM195.592 70.022c5.105.52 9.702 1.876 13.791 4.067 4.173 2.2 7.575 5.336 10.204 9.407 2.722 3.996 4.63 8.924 5.724 14.782 1.178 5.868 1.367 12.733.566 20.596-.81 7.947-2.341 14.679-4.595 20.197-2.253 5.518-5.074 9.964-8.462 13.337-3.387 3.374-7.347 5.718-11.878 7.031-4.447 1.322-9.307 1.715-14.58 1.178-5.272-.537-9.995-1.906-14.168-4.106-4.089-2.191-7.495-5.285-10.217-9.281-2.638-3.987-4.504-8.911-5.598-14.769-1.011-5.851-1.111-12.749-.302-20.696.801-7.863 2.329-14.554 4.582-20.072 2.253-5.517 5.116-9.959 8.587-13.324 3.48-3.449 7.444-5.834 11.891-7.156 4.448-1.322 9.266-1.719 14.455-1.19Zm-18.559 68.173c2.549 3.756 6.205 5.876 10.966 6.361 5.356.545 9.771-1.287 13.244-5.498 3.473-4.21 5.742-11.543 6.807-22 1.057-10.372.309-17.97-2.244-22.795-.347-.67-.72-1.298-1.12-1.887-2.528-3.724-6.105-5.821-10.731-6.293-5.44-.554-9.9 1.316-13.382 5.61-3.389 4.22-5.613 11.515-6.669 21.888-1.065 10.456-.364 18.092 2.105 22.907.319.603.66 1.172 1.024 1.707ZM295.105 138.476l10.043 1.023-1.598 15.685-10.043-1.023-1.687 16.563-17.827-1.816 1.688-16.563-43.437-4.424 1.291-12.673 45.742-55.561 21.593 2.2-5.765 56.589Zm-40.549-4.13 22.722 2.314 3.631-35.635-26.353 33.321Z" fill="#fff"/><path fill-rule="evenodd" clip-rule="evenodd" d="m146.804 122.651-1.743 17.111-10.043-1.023-1.687 16.563-19.254-1.961 1.688-16.563-43.436-4.424 1.385-13.602 46.124-56.025 22.688 2.311-5.765 56.59 10.043 1.023Zm-30.253 13.487-1.687 16.563 17.826 1.815 1.687-16.563 10.043 1.023 1.598-15.684-10.043-1.023 5.765-56.59-21.592-2.2-45.742 55.562-1.291 12.673 43.436 4.424Zm55.308 21.008-.004-.003c-4.195-2.248-7.686-5.422-10.47-9.509l-.006-.008c-2.702-4.085-4.597-9.103-5.705-15.034l-.002-.009c-1.025-5.933-1.122-12.9-.308-20.891.806-7.91 2.345-14.671 4.631-20.27 2.282-5.587 5.193-10.117 8.749-13.565 3.559-3.526 7.623-5.975 12.189-7.332 4.547-1.351 9.461-1.753 14.731-1.216 5.188.529 9.876 1.908 14.056 4.147 4.282 2.258 7.772 5.477 10.465 9.644 2.785 4.092 4.722 9.113 5.83 15.042 1.195 5.955 1.381 12.894.575 20.805-.814 7.993-2.357 14.797-4.644 20.395-2.281 5.585-5.149 10.119-8.619 13.574-3.472 3.457-7.536 5.864-12.183 7.211-4.548 1.352-9.503 1.748-14.854 1.203-5.353-.545-10.167-1.937-14.431-4.184Zm29.083 2.293c4.531-1.313 8.491-3.657 11.878-7.031 3.388-3.373 6.209-7.819 8.462-13.337 2.254-5.518 3.785-12.25 4.595-20.197.801-7.863.612-14.728-.566-20.596-1.094-5.858-3.002-10.786-5.724-14.782-2.629-4.071-6.031-7.206-10.204-9.406-4.089-2.192-8.686-3.547-13.791-4.068-5.189-.528-10.007-.131-14.455 1.19-4.447 1.323-8.411 3.708-11.891 7.157-3.471 3.365-6.334 7.807-8.587 13.325-2.253 5.517-3.781 12.208-4.582 20.071-.809 7.947-.709 14.845.302 20.696 1.094 5.858 2.96 10.782 5.598 14.769 2.722 3.996 6.128 7.09 10.217 9.281 4.173 2.2 8.896 3.569 14.168 4.106 5.273.537 10.133.144 14.58-1.178Zm4.23-64.84-.003-.006a17.629 17.629 0 0 0-1.076-1.814c-2.405-3.542-5.788-5.532-10.21-5.982-5.196-.53-9.42 1.239-12.752 5.346-3.253 4.05-5.46 11.169-6.514 21.51-1.062 10.424-.34 17.882 2.029 22.504.306.579.633 1.124.98 1.635 2.423 3.57 5.882 5.586 10.445 6.05 5.114.521 9.295-1.211 12.618-5.24 3.332-4.039 5.586-11.191 6.648-21.616 1.053-10.34.285-17.759-2.165-22.387Zm-29.163 41.889c-2.469-4.815-3.17-12.451-2.105-22.907 1.056-10.373 3.28-17.669 6.669-21.888 3.482-4.294 7.942-6.164 13.382-5.61 4.626.472 8.203 2.57 10.731 6.293.4.589.773 1.218 1.12 1.887 2.553 4.824 3.301 12.423 2.244 22.795-1.065 10.457-3.334 17.79-6.807 22-3.473 4.211-7.888 6.043-13.244 5.498-4.761-.485-8.417-2.605-10.966-6.361a17.964 17.964 0 0 1-1.024-1.707Zm129.925 2.37-1.743 17.112-10.043-1.023-1.687 16.563-19.254-1.961 1.688-16.563-43.437-4.424 1.386-13.602 46.124-56.025 22.688 2.31-5.765 56.59 10.043 1.023Zm-30.253 13.487-1.688 16.563 17.827 1.816 1.687-16.563 10.043 1.023 1.598-15.685-10.043-1.023 5.765-56.59-21.593-2.2-45.742 55.562-1.291 12.673 43.437 4.424Zm-157.532-31.892-22.723-2.314 26.353-33.321-3.63 35.635Zm-21.35-2.895 20.709 2.109 3.308-32.476L96.8 117.558Zm180.479 19.102-22.722-2.314 26.353-33.321-3.631 35.635Zm2.668-33.262-24.016 30.367 20.708 2.109 3.308-32.476Z" fill="#000"/><path d="m127.638 44.918-21.592-2.199 14.102 20.76 21.592 2.2-14.102-20.76Z" fill="#fff"/><path fill-rule="evenodd" clip-rule="evenodd" d="M105.43 42.352a.717.717 0 0 1 .688-.346l21.593 2.199a.717.717 0 0 1 .521.31l14.101 20.76a.716.716 0 0 1-.665 1.117l-21.593-2.2a.72.72 0 0 1-.521-.31l-14.101-20.76a.716.716 0 0 1-.023-.77Zm.616.367 14.102 20.76 21.592 2.2-14.102-20.76-21.592-2.2Z" fill="#000"/><path d="M106.046 42.719 60.304 98.28l14.102 20.761 45.742-55.561-14.102-20.761Z" fill="#fff"/><path fill-rule="evenodd" clip-rule="evenodd" d="M59.71 98.683a.717.717 0 0 1 .04-.859l45.742-55.56a.718.718 0 0 1 1.147.052l14.102 20.76a.716.716 0 0 1-.04.86l-45.742 55.56a.717.717 0 0 1-1.147-.053l-14.101-20.76Zm.594-.403 45.742-55.561 14.102 20.76-45.742 55.562L60.304 98.28Z" fill="#000"/><path d="m81.325 97.378 26.352-33.32 14.102 20.76-26.353 33.321-14.102-20.76Z" fill="#fff"/><path fill-rule="evenodd" clip-rule="evenodd" d="M107.703 63.34a.718.718 0 0 1 .568.314l14.101 20.76a.717.717 0 0 1-.03.849l-26.353 33.321a.715.715 0 0 1-1.156-.042l-14.102-20.76a.717.717 0 0 1 .031-.848l26.353-33.321c.141-.18.36-.28.588-.272ZM81.324 97.379l26.353-33.32 14.102 20.76-26.353 33.321-14.102-20.76Z" fill="#000"/><path d="m60.304 98.28-1.291 12.673 14.102 20.761 1.29-12.673L60.305 98.28Z" fill="#fff"/><path fill-rule="evenodd" clip-rule="evenodd" d="M58.42 111.356a.715.715 0 0 1-.12-.475l1.29-12.674a.717.717 0 0 1 1.307-.33l14.102 20.761a.715.715 0 0 1 .12.475l-1.291 12.673a.718.718 0 0 1-1.307.331L58.42 111.356Zm.593-.403 1.29-12.673 14.103 20.761-1.291 12.673-14.102-20.761Z" fill="#000"/><path d="m107.677 64.057-3.63 35.636 14.102 20.76 3.63-35.635-14.102-20.76Z" fill="#fff"/><path fill-rule="evenodd" clip-rule="evenodd" d="M103.454 100.096a.718.718 0 0 1-.121-.476l3.631-35.635a.716.716 0 0 1 1.307-.33l14.101 20.76c.095.14.137.308.12.475l-3.63 35.636a.718.718 0 0 1-1.307.33l-14.101-20.76Zm.593-.403 3.63-35.636 14.102 20.76-3.63 35.636-14.102-20.76Z" fill="#000"/><path d="m121.873 101.508 5.765-56.59 14.102 20.76-5.765 56.591-14.102-20.761Z" fill="#fff"/><path fill-rule="evenodd" clip-rule="evenodd" d="M127.463 44.223a.718.718 0 0 1 .769.292l14.101 20.76c.095.14.138.309.121.476l-5.765 56.59a.719.719 0 0 1-1.307.331l-14.102-20.761a.715.715 0 0 1-.12-.475l5.765-56.59c.03-.3.245-.549.538-.623Zm-5.59 57.285 5.765-56.59 14.102 20.76-5.765 56.591-14.102-20.761Z" fill="#000"/><path d="m104.047 99.693-22.722-2.315 14.101 20.761 22.723 2.314-14.102-20.76Z" fill="#fff"/><path fill-rule="evenodd" clip-rule="evenodd" d="M80.709 97.011a.717.717 0 0 1 .688-.346l22.723 2.314a.716.716 0 0 1 .52.31l14.102 20.761a.715.715 0 0 1-.666 1.116l-22.722-2.314a.716.716 0 0 1-.52-.31L80.73 97.782a.717.717 0 0 1-.022-.771Zm.615.367 14.102 20.761 22.723 2.314-14.102-20.76-22.722-2.315Z" fill="#000"/><path d="M167.035 50.452c-4.447 1.322-8.411 3.708-11.891 7.157l14.102 20.76c3.48-3.449 7.444-5.834 11.891-7.156l-14.102-20.76Z" fill="#fff"/><path fill-rule="evenodd" clip-rule="evenodd" d="M154.551 58.011a.716.716 0 0 1 .089-.912c3.559-3.527 7.624-5.977 12.191-7.334.3-.09.622.026.798.284l14.102 20.76a.718.718 0 0 1-.389 1.091c-4.328 1.286-8.19 3.608-11.591 6.978a.717.717 0 0 1-1.098-.106l-14.102-20.76Zm.593-.403c3.48-3.448 7.444-5.834 11.891-7.156l14.102 20.76c-.24.072-.478.146-.715.224-3.94 1.288-7.491 3.43-10.653 6.426-.175.167-.35.335-.523.507l-14.102-20.76Z" fill="#000"/><path d="M155.144 57.608c-3.471 3.366-6.334 7.807-8.587 13.325l14.102 20.76c2.253-5.517 5.116-9.959 8.587-13.324l-14.102-20.76Z" fill="#fff"/><path fill-rule="evenodd" clip-rule="evenodd" d="M145.964 71.336a.716.716 0 0 1-.071-.674c2.282-5.589 5.195-10.12 8.752-13.568a.717.717 0 0 1 1.092.112l14.102 20.76a.717.717 0 0 1-.094.918c-3.386 3.282-6.198 7.634-8.422 13.08a.718.718 0 0 1-1.257.132l-14.102-20.76Zm.593-.403c2.14-5.241 4.83-9.511 8.07-12.81.171-.174.343-.346.517-.514l14.102 20.76c-3.304 3.203-6.057 7.381-8.257 12.534-.112.261-.222.525-.33.79l-14.102-20.76Z" fill="#000"/><path d="m59.013 110.953 43.436 4.424 14.102 20.761-43.436-4.424-14.102-20.761Z" fill="#fff"/><path fill-rule="evenodd" clip-rule="evenodd" d="M102.522 114.664a.715.715 0 0 1 .52.31l14.102 20.761a.715.715 0 0 1-.666 1.116l-43.436-4.424a.716.716 0 0 1-.52-.31l-14.103-20.761a.717.717 0 0 1 .666-1.116l43.437 4.424Zm-43.51-3.711 14.103 20.761 43.436 4.424-14.102-20.761-43.436-4.424Z" fill="#000"/><path d="M181.49 49.262c-5.189-.529-10.007-.132-14.455 1.19l14.102 20.76c4.448-1.321 9.266-1.718 14.455-1.19l-14.102-20.76Z" fill="#fff"/><path fill-rule="evenodd" clip-rule="evenodd" d="M166.36 50.211a.718.718 0 0 1 .471-.446c4.548-1.352 9.461-1.753 14.731-1.216a.717.717 0 0 1 .521.31l14.102 20.76a.718.718 0 0 1-.666 1.117c-5.108-.52-9.83-.128-14.177 1.164a.717.717 0 0 1-.798-.285l-14.102-20.76a.718.718 0 0 1-.082-.644Zm1.402.034c-.244.067-.486.136-.727.207l14.102 20.76c4.182-1.242 8.692-1.667 13.53-1.274.307.025.615.053.925.084l-14.102-20.76c-4.908-.5-9.484-.172-13.728.983Z" fill="#000"/><path d="M146.557 70.933c-2.253 5.518-3.78 12.208-4.581 20.072l14.101 20.76c.801-7.863 2.329-14.554 4.582-20.072l-14.102-20.76Z" fill="#fff"/><path fill-rule="evenodd" clip-rule="evenodd" d="M141.382 91.407a.721.721 0 0 1-.12-.475c.806-7.91 2.345-14.672 4.631-20.27a.717.717 0 0 1 1.257-.132l14.102 20.76a.719.719 0 0 1 .071.674c-2.221 5.438-3.736 12.058-4.532 19.874a.718.718 0 0 1-1.307.33l-14.102-20.76Zm.594-.402c.762-7.485 2.182-13.907 4.261-19.267.105-.271.211-.54.32-.805l14.102 20.76c-2.147 5.259-3.635 11.582-4.464 18.97-.041.364-.08.732-.118 1.102l-14.101-20.76Z" fill="#000"/><path d="M195.281 53.33c-4.089-2.192-8.686-3.548-13.791-4.068l14.102 20.76c5.105.52 9.702 1.876 13.791 4.067l-14.102-20.76Z" fill="#fff"/><path fill-rule="evenodd" clip-rule="evenodd" d="M180.874 48.895a.717.717 0 0 1 .688-.346c5.189.528 9.878 1.908 14.058 4.148.102.055.19.133.255.23l14.102 20.76a.718.718 0 0 1-.932 1.035c-3.999-2.143-8.504-3.475-13.526-3.986a.717.717 0 0 1-.521-.31l-14.102-20.761a.718.718 0 0 1-.022-.77Zm1.554.473a44.358 44.358 0 0 0-.938-.106l14.102 20.76c4.562.465 8.718 1.597 12.469 3.396.446.215.887.438 1.322.671l-14.102-20.76c-3.837-2.056-8.121-3.377-12.853-3.961Z" fill="#000"/><path d="M166.471 70.933c3.482-4.294 7.943-6.164 13.383-5.61l14.101 20.76c-5.44-.554-9.9 1.316-13.382 5.61l-14.102-20.76Z" fill="#fff"/><path fill-rule="evenodd" clip-rule="evenodd" d="M179.926 64.61a.717.717 0 0 1 .521.31l14.102 20.76a.718.718 0 0 1-.666 1.117c-5.196-.53-9.422 1.24-12.753 5.348a.717.717 0 0 1-1.15-.049l-14.102-20.76a.717.717 0 0 1 .036-.855c3.632-4.479 8.328-6.45 14.012-5.871Zm-13.455 6.323c3.482-4.294 7.943-6.164 13.383-5.61l14.101 20.76a18.731 18.731 0 0 0-.915-.07c-4.785-.251-8.781 1.452-11.987 5.11-.162.186-.322.376-.48.57l-14.102-20.76Z" fill="#000"/><path d="m131.916 102.531-10.043-1.023 14.102 20.761 10.043 1.023-14.102-20.761Z" fill="#fff"/><path fill-rule="evenodd" clip-rule="evenodd" d="M121.257 101.141a.72.72 0 0 1 .689-.346l10.043 1.023a.717.717 0 0 1 .521.31l14.101 20.761a.715.715 0 0 1-.665 1.116l-10.043-1.023a.717.717 0 0 1-.521-.31l-14.102-20.761a.717.717 0 0 1-.023-.77Zm.616.367 14.102 20.761 10.043 1.023-14.102-20.761-10.043-1.023Z" fill="#000"/><path d="m102.449 115.377-1.687 16.563 14.102 20.761 1.687-16.563-14.102-20.761Z" fill="#fff"/><path fill-rule="evenodd" clip-rule="evenodd" d="M100.168 132.343a.722.722 0 0 1-.12-.476l1.688-16.562a.717.717 0 0 1 1.306-.331l14.102 20.761a.715.715 0 0 1 .12.475l-1.687 16.563a.719.719 0 0 1-1.307.33l-14.102-20.76Zm.594-.403 1.687-16.563 14.102 20.761-1.687 16.563-14.102-20.761Z" fill="#000"/><path d="M159.802 92.82c1.057-10.372 3.28-17.668 6.669-21.887l14.102 20.76c-3.389 4.22-5.613 11.515-6.669 21.888l-14.102-20.76ZM195.281 53.33c4.174 2.199 7.575 5.334 10.204 9.406l13.319 19.606c.268.376.529.76.783 1.154l-.783-1.154c-2.511-3.514-5.651-6.265-9.421-8.252l-14.102-20.76Z" fill="#fff"/><path fill-rule="evenodd" clip-rule="evenodd" d="M194.747 52.851a.717.717 0 0 1 .869-.156c4.283 2.258 7.774 5.477 10.467 9.645l13.309 19.593c.273.383.539.774.798 1.174a.717.717 0 0 1-1.196.792l-.779-1.147c-2.445-3.421-5.499-6.095-9.166-8.028a.718.718 0 0 1-.259-.231l-14.102-20.761a.719.719 0 0 1 .059-.88Zm20.276 25.203a27.443 27.443 0 0 1 3.781 4.288l.783 1.154a30.274 30.274 0 0 0-.783-1.154l-13.319-19.606c-2.327-3.604-5.26-6.475-8.797-8.612a26.93 26.93 0 0 0-1.407-.795l14.102 20.76a26.73 26.73 0 0 1 5.64 3.965Z" fill="#000"/><path d="M179.854 65.323c4.625.471 8.202 2.569 10.73 6.293l14.098 20.754c-2.528-3.72-6.104-5.816-10.727-6.287l-14.101-20.76ZM141.976 91.005c-.81 7.947-.71 14.845.301 20.695l14.102 20.761c-1.011-5.851-1.111-12.749-.302-20.696l-14.101-20.76Z" fill="#fff"/><path fill-rule="evenodd" clip-rule="evenodd" d="M141.684 112.103a.729.729 0 0 1-.114-.281c-1.024-5.932-1.122-12.9-.308-20.89a.718.718 0 0 1 1.307-.33l14.102 20.76c.094.14.137.308.12.476-.805 7.903-.702 14.733.295 20.501a.719.719 0 0 1-1.3.525l-14.102-20.761Zm.593-.403c-.963-5.574-1.1-12.1-.41-19.579.034-.37.07-.742.109-1.116l14.101 20.76c-.734 7.209-.719 13.556.044 19.04.078.561.164 1.113.258 1.656L142.277 111.7Z" fill="#000"/><path d="m130.318 118.216 1.598-15.685 14.102 20.761-1.598 15.684-14.102-20.76Z" fill="#fff"/><path fill-rule="evenodd" clip-rule="evenodd" d="M131.741 101.836a.718.718 0 0 1 .769.292l14.101 20.761a.715.715 0 0 1 .121.475l-1.598 15.685a.718.718 0 0 1-1.307.33l-14.102-20.76a.717.717 0 0 1-.12-.476l1.598-15.685a.716.716 0 0 1 .538-.622Zm-1.423 16.38 1.598-15.685 14.102 20.761-1.598 15.684-14.102-20.76Z" fill="#000"/><path d="M190.584 71.616c.4.588.773 1.217 1.12 1.887l14.102 20.76c-.347-.67-.72-1.298-1.12-1.887l-14.102-20.76Z" fill="#fff"/><path fill-rule="evenodd" clip-rule="evenodd" d="M191.111 73.906a.693.693 0 0 1-.043-.073 17.835 17.835 0 0 0-1.077-1.814.718.718 0 0 1 1.187-.806l14.101 20.76c.417.614.804 1.267 1.164 1.96a.718.718 0 0 1-1.23.733l-14.102-20.76Zm-.527-2.29c.4.588.773 1.217 1.12 1.887l14.102 20.76c-.347-.67-.72-1.298-1.12-1.887l-14.102-20.76Z" fill="#000"/><path d="m120.275 117.193 10.043 1.023 14.102 20.76-10.043-1.023-14.102-20.76Z" fill="#fff"/><path fill-rule="evenodd" clip-rule="evenodd" d="M130.391 117.502a.72.72 0 0 1 .521.311l14.102 20.76a.717.717 0 0 1-.666 1.117l-10.043-1.023a.72.72 0 0 1-.521-.311l-14.102-20.76a.717.717 0 0 1 .666-1.117l10.043 1.023Zm-10.116-.309 14.102 20.76 10.043 1.023-14.102-20.76-10.043-1.023Z" fill="#000"/><path d="m118.588 133.756 1.687-16.563 14.102 20.76-1.687 16.563-14.102-20.76Z" fill="#fff"/><path fill-rule="evenodd" clip-rule="evenodd" d="M120.1 116.498a.718.718 0 0 1 .769.292l14.102 20.76c.094.14.137.308.12.476l-1.688 16.563a.717.717 0 0 1-1.306.33l-14.102-20.76a.717.717 0 0 1-.12-.476l1.687-16.563a.716.716 0 0 1 .538-.622Zm-1.512 17.258 1.687-16.563 14.102 20.76-1.687 16.563-14.102-20.76Z" fill="#000"/><path d="m100.762 131.94 17.826 1.816 14.102 20.76-17.826-1.815-14.102-20.761Z" fill="#fff"/><path fill-rule="evenodd" clip-rule="evenodd" d="M118.661 133.043a.715.715 0 0 1 .52.31l14.102 20.76a.717.717 0 0 1-.666 1.117l-17.826-1.816a.715.715 0 0 1-.521-.311l-14.102-20.76a.717.717 0 0 1 .666-1.116l17.827 1.816Zm-17.899-1.103 14.102 20.761 17.826 1.815-14.102-20.76-17.826-1.816Z" fill="#000"/><path d="m205.485 62.736.041.06 14.061 20.7c2.722 3.996 4.63 8.924 5.724 14.782l-14.102-20.76c-1.089-5.83-2.983-10.737-5.683-14.722l-.041-.06ZM161.908 115.728c-2.469-4.815-3.171-12.451-2.106-22.908l14.102 20.761c-1.065 10.456-.364 18.092 2.105 22.907l-14.101-20.76ZM191.704 73.503c2.553 4.824 3.301 12.422 2.244 22.795l14.102 20.76c1.057-10.372.309-17.97-2.244-22.795l-14.102-20.76Z" fill="#fff"/><path fill-rule="evenodd" clip-rule="evenodd" d="M193.355 96.7a.716.716 0 0 1-.12-.475c1.053-10.34.285-17.758-2.165-22.387a.717.717 0 0 1 1.228-.738l14.101 20.76a.623.623 0 0 1 .041.068c2.656 5.02 3.384 12.798 2.324 23.203a.719.719 0 0 1-1.307.33l-14.102-20.76Zm.593-.402c.847-8.314.535-14.846-.937-19.596a18.62 18.62 0 0 0-1.307-3.2l14.102 20.761c2.46 4.65 3.244 11.875 2.352 21.678-.033.369-.069.741-.108 1.117l-14.102-20.76Z" fill="#000"/><path d="M142.277 111.7c1.095 5.859 2.961 10.782 5.599 14.77l14.101 20.76c-2.638-3.987-4.504-8.911-5.598-14.769L142.277 111.7Z" fill="#fff"/><path fill-rule="evenodd" clip-rule="evenodd" d="M147.278 126.865c-2.703-4.084-4.598-9.103-5.706-15.033a.717.717 0 0 1 1.298-.535l14.102 20.761a.71.71 0 0 1 .112.271c1.081 5.787 2.918 10.615 5.492 14.505a.718.718 0 0 1-1.192.799l-14.106-20.768Zm11.732 14.72a32.975 32.975 0 0 0 2.967 5.645l-14.101-20.76c-2.36-3.567-4.102-7.882-5.226-12.945a55.444 55.444 0 0 1-.373-1.825l14.102 20.761c.625 3.347 1.502 6.388 2.631 9.124Z" fill="#000"/><path d="M162.931 117.435a18 18 0 0 1-1.023-1.707l14.101 20.76c.319.603.66 1.172 1.024 1.707l-14.102-20.76Z" fill="#fff"/><path fill-rule="evenodd" clip-rule="evenodd" d="M161.538 115.114a.716.716 0 0 1 .963.211l14.102 20.761a.564.564 0 0 1 .04.067 17.474 17.474 0 0 0 .983 1.639c0 .001 0 0 0 0a.717.717 0 1 1-1.186.806l-14.102-20.76a18.805 18.805 0 0 1-1.064-1.775.716.716 0 0 1 .264-.949Zm15.495 23.081a17.964 17.964 0 0 1-1.024-1.707l-14.101-20.76a18 18 0 0 0 1.023 1.707l14.102 20.76Z" fill="#000"/><path d="M211.775 98.114c.801-7.864.612-14.729-.566-20.596l14.102 20.76c1.178 5.868 1.367 12.733.566 20.596l-14.102-20.76ZM173.897 123.795c-4.758-.484-8.412-2.602-10.961-6.353l14.097 20.753c2.549 3.756 6.205 5.876 10.966 6.361l-14.102-20.761Z" fill="#fff"/><path fill-rule="evenodd" clip-rule="evenodd" d="M162.936 117.442c2.549 3.751 6.203 5.869 10.961 6.353l14.102 20.761a18.752 18.752 0 0 1-.949-.121c-4.3-.658-7.64-2.738-10.017-6.24l-14.097-20.753Zm13.504 21.156-14.097-20.753a.716.716 0 1 1 1.186-.806c2.423 3.565 5.88 5.578 10.441 6.043.21.021.401.135.52.31l14.102 20.761a.717.717 0 0 1-.666 1.116c-4.959-.505-8.81-2.73-11.486-6.671Zm10.05 5.013c-3.79-.735-6.729-2.674-8.864-5.819l-10.421-15.342c1.835 1.068 3.933 1.742 6.285 2.022l13 19.139Z" fill="#000"/><path d="M147.876 126.47c2.721 3.996 6.127 7.089 10.216 9.281l14.102 20.76c-4.089-2.191-7.495-5.285-10.217-9.281l-14.101-20.76Z" fill="#fff"/><path fill-rule="evenodd" clip-rule="evenodd" d="M158.431 135.119a.716.716 0 0 1 .254.229l14.102 20.76a.716.716 0 0 1-.932 1.035c-4.195-2.248-7.686-5.422-10.47-9.509l-14.103-20.762a.717.717 0 0 1 1.186-.806c2.66 3.905 5.98 6.918 9.963 9.053Zm-10.555-8.649 14.101 20.76c2.401 3.524 5.333 6.347 8.797 8.467.464.284.937.556 1.42.814l-14.102-20.76a27.992 27.992 0 0 1-5.933-4.252 29.934 29.934 0 0 1-4.283-5.029Z" fill="#000"/><path d="M193.948 96.298c-1.065 10.456-3.334 17.79-6.807 22l14.102 20.76c3.473-4.21 5.742-11.543 6.807-22l-14.102-20.76Z" fill="#fff"/><path fill-rule="evenodd" clip-rule="evenodd" d="M186.548 118.701a.716.716 0 0 1 .04-.859c3.332-4.039 5.585-11.191 6.647-21.617a.717.717 0 0 1 1.307-.33l14.101 20.761a.714.714 0 0 1 .121.475c-1.069 10.488-3.354 18.002-6.968 22.384a.72.72 0 0 1-1.147-.054l-14.101-20.76Zm.593-.403c3.35-4.061 5.579-11.027 6.689-20.898.041-.363.08-.73.118-1.102l14.102 20.76c-1.017 9.983-3.131 17.119-6.342 21.409-.153.203-.308.401-.465.591l-14.102-20.76Z" fill="#000"/><path d="M187.141 118.298c-3.473 4.21-7.888 6.043-13.244 5.497l14.102 20.761c5.356.545 9.771-1.287 13.244-5.498l-14.102-20.76Z" fill="#fff"/><path fill-rule="evenodd" clip-rule="evenodd" d="M173.281 123.428a.717.717 0 0 1 .689-.346c5.113.521 9.295-1.212 12.618-5.24a.715.715 0 0 1 1.146.053l14.102 20.761a.716.716 0 0 1-.04.859c-3.623 4.392-8.271 6.324-13.87 5.754a.718.718 0 0 1-.521-.311l-14.102-20.76a.717.717 0 0 1-.022-.77Zm1.53.438a18.182 18.182 0 0 1-.914-.071l14.102 20.761c5.356.545 9.771-1.287 13.244-5.498l-14.102-20.76c-.159.193-.321.381-.484.564-3.191 3.58-7.14 5.248-11.846 5.004Z" fill="#000"/><path d="m286.768 61.126-21.593-2.2 14.102 20.76 21.593 2.2-14.102-20.76Z" fill="#fff"/><path fill-rule="evenodd" clip-rule="evenodd" d="M264.559 58.559a.718.718 0 0 1 .689-.346l21.593 2.2c.21.02.401.134.52.31l14.102 20.76a.718.718 0 0 1-.666 1.116L279.205 80.4a.718.718 0 0 1-.521-.31l-14.102-20.76a.72.72 0 0 1-.023-.771Zm.616.367 14.102 20.76 21.593 2.2-14.102-20.76-21.593-2.2Z" fill="#000"/><path d="M158.092 135.751c4.173 2.2 8.896 3.568 14.169 4.105l14.101 20.761c-5.272-.537-9.995-1.906-14.168-4.106l-14.102-20.76ZM207.18 118.311c2.254-5.518 3.785-12.25 4.595-20.197l14.102 20.76c-.81 7.947-2.341 14.679-4.595 20.197l-14.102-20.76Z" fill="#fff"/><path d="m265.175 58.926-45.741 55.561 14.101 20.761 45.742-55.561-14.102-20.76Z" fill="#fff"/><path fill-rule="evenodd" clip-rule="evenodd" d="M218.84 114.89a.718.718 0 0 1 .04-.858l45.742-55.561a.718.718 0 0 1 1.147.053l14.102 20.76a.717.717 0 0 1-.04.859l-45.742 55.561a.715.715 0 0 1-1.147-.053L218.84 114.89Zm.594-.403 45.741-55.56 14.102 20.76-45.742 55.561-14.101-20.761Z" fill="#000"/><path d="M172.261 139.856c5.272.537 10.132.145 14.579-1.177l14.102 20.76c-4.447 1.322-9.307 1.715-14.58 1.178l-14.101-20.761ZM198.719 131.648c3.388-3.374 6.208-7.82 8.461-13.337l14.102 20.76c-2.253 5.518-5.074 9.964-8.462 13.337l-14.101-20.76Z" fill="#fff"/><path d="M186.84 138.679c4.531-1.314 8.491-3.657 11.879-7.031l14.101 20.76c-3.387 3.374-7.347 5.718-11.878 7.031l-14.102-20.76ZM240.454 113.586l26.353-33.321 14.102 20.76-26.353 33.321-14.102-20.76Z" fill="#fff"/><path fill-rule="evenodd" clip-rule="evenodd" d="M266.833 79.548a.717.717 0 0 1 .567.314l14.102 20.76a.718.718 0 0 1-.031.848l-26.353 33.321a.717.717 0 0 1-1.155-.042l-14.102-20.76a.716.716 0 0 1 .031-.848l26.352-33.321a.719.719 0 0 1 .589-.272Zm-26.379 34.038 26.353-33.321 14.102 20.76-26.353 33.321-14.102-20.76Z" fill="#000"/><path d="m219.434 114.487-1.291 12.674 14.101 20.76 1.291-12.673-14.101-20.761Z" fill="#fff"/><path fill-rule="evenodd" clip-rule="evenodd" d="M217.549 127.564a.723.723 0 0 1-.12-.476l1.291-12.673a.719.719 0 0 1 1.307-.33l14.102 20.76c.094.14.137.308.12.476l-1.291 12.673a.718.718 0 0 1-1.307.33l-14.102-20.76Zm.594-.403 1.291-12.674 14.101 20.761-1.291 12.673-14.101-20.76Z" fill="#000"/><path d="m266.807 80.265-3.63 35.635 14.101 20.76 3.631-35.635-14.102-20.76Z" fill="#fff"/><path fill-rule="evenodd" clip-rule="evenodd" d="M262.583 116.303a.723.723 0 0 1-.12-.476l3.631-35.635a.716.716 0 0 1 1.306-.33l14.102 20.76c.095.14.137.308.12.476l-3.63 35.635a.718.718 0 0 1-1.307.33l-14.102-20.76Zm.594-.403 3.63-35.635 14.102 20.76-3.631 35.635-14.101-20.76Z" fill="#000"/><path d="m281.003 117.716 5.765-56.59 14.102 20.76-5.765 56.59-14.102-20.76Z" fill="#fff"/><path fill-rule="evenodd" clip-rule="evenodd" d="M286.592 60.43c.293-.073.6.043.769.293l14.102 20.76a.71.71 0 0 1 .12.476l-5.765 56.59a.715.715 0 0 1-1.306.33l-14.102-20.761a.713.713 0 0 1-.12-.475l5.765-56.59c.03-.3.245-.549.537-.623Zm-5.589 57.286 5.765-56.59 14.102 20.76-5.765 56.59-14.102-20.76Z" fill="#000"/><path d="m263.177 115.9-22.723-2.314 14.102 20.76 22.722 2.314-14.101-20.76Z" fill="#fff"/><path fill-rule="evenodd" clip-rule="evenodd" d="M239.838 113.218a.72.72 0 0 1 .689-.346l22.722 2.315a.717.717 0 0 1 .521.31l14.102 20.761a.717.717 0 0 1-.666 1.116l-22.723-2.315a.715.715 0 0 1-.52-.31l-14.102-20.76a.717.717 0 0 1-.023-.771Zm.616.368 14.102 20.76 22.722 2.314-14.101-20.76-22.723-2.314Z" fill="#000"/><path d="m218.143 127.161 43.436 4.424 14.102 20.76-43.437-4.424-14.101-20.76Z" fill="#fff"/><path fill-rule="evenodd" clip-rule="evenodd" d="M261.652 130.871c.21.022.401.135.52.311l14.102 20.76a.717.717 0 0 1-.666 1.116l-43.436-4.424a.717.717 0 0 1-.521-.31l-14.102-20.76a.719.719 0 0 1 .666-1.117l43.437 4.424Zm-43.509-3.71 14.101 20.76 43.437 4.424-14.102-20.76-43.436-4.424Z" fill="#000"/><path d="m291.046 118.738-10.043-1.022 14.102 20.76 10.043 1.023-14.102-20.761Z" fill="#fff"/><path fill-rule="evenodd" clip-rule="evenodd" d="M280.387 117.348a.72.72 0 0 1 .689-.346l10.043 1.023a.72.72 0 0 1 .521.311l14.101 20.76a.715.715 0 0 1-.666 1.116l-10.043-1.023a.717.717 0 0 1-.52-.31l-14.102-20.761a.717.717 0 0 1-.023-.77Zm.616.368 14.102 20.76 10.043 1.023-14.102-20.761-10.043-1.022Z" fill="#000"/><path d="m261.579 131.585-1.688 16.562 14.102 20.761 1.688-16.563-14.102-20.76Z" fill="#fff"/><path fill-rule="evenodd" clip-rule="evenodd" d="M259.298 148.55a.719.719 0 0 1-.12-.475l1.687-16.563a.719.719 0 0 1 1.307-.33l14.102 20.76c.095.14.137.308.12.476l-1.687 16.563a.718.718 0 0 1-1.307.33l-14.102-20.761Zm.593-.403 1.688-16.562 14.102 20.76-1.688 16.563-14.102-20.761Z" fill="#000"/><path d="m289.448 134.423 1.598-15.685 14.102 20.761-1.598 15.685-14.102-20.761Z" fill="#fff"/><path fill-rule="evenodd" clip-rule="evenodd" d="M290.87 118.043c.293-.074.6.043.77.293l14.101 20.76c.095.14.138.308.12.476l-1.597 15.684a.719.719 0 0 1-1.307.33l-14.102-20.76a.717.717 0 0 1-.12-.476l1.598-15.684c.03-.3.245-.549.537-.623Zm-1.422 16.38 1.598-15.685 14.102 20.761-1.598 15.685-14.102-20.761Z" fill="#000"/><path d="m279.405 133.4 10.043 1.023 14.102 20.761-10.043-1.023-14.102-20.761Z" fill="#fff"/><path fill-rule="evenodd" clip-rule="evenodd" d="M289.521 133.71a.717.717 0 0 1 .521.31l14.102 20.761a.717.717 0 0 1-.666 1.116l-10.043-1.023a.717.717 0 0 1-.521-.31l-14.102-20.761a.72.72 0 0 1-.023-.77.72.72 0 0 1 .689-.346l10.043 1.023Zm-10.116-.31 14.102 20.761 10.043 1.023-14.102-20.761-10.043-1.023Z" fill="#000"/><path d="m277.718 149.963 1.687-16.563 14.102 20.761-1.687 16.563-14.102-20.761Z" fill="#fff"/><path fill-rule="evenodd" clip-rule="evenodd" d="M279.23 132.705a.718.718 0 0 1 .769.292l14.101 20.761a.715.715 0 0 1 .121.475l-1.688 16.563a.717.717 0 0 1-1.306.33l-14.102-20.76a.716.716 0 0 1-.12-.476l1.687-16.562c.03-.3.245-.549.538-.623Zm-1.512 17.258 1.687-16.563 14.102 20.761-1.687 16.563-14.102-20.761Z" fill="#000"/><path d="m259.891 148.147 17.827 1.816 14.102 20.761-17.827-1.816-14.102-20.761Z" fill="#fff"/><path fill-rule="evenodd" clip-rule="evenodd" d="M277.791 149.25a.715.715 0 0 1 .52.31l14.102 20.761a.717.717 0 0 1-.666 1.116l-17.826-1.816a.717.717 0 0 1-.521-.31l-14.102-20.761a.717.717 0 0 1 .666-1.116l17.827 1.816Zm-17.9-1.103 14.102 20.761 17.827 1.816-14.102-20.761-17.827-1.816Z" fill="#000"/><path d="m121.873 101.508 10.043 1.023-1.598 15.685-10.043-1.023-1.687 16.563-17.826-1.816 1.687-16.563-43.436-4.424 1.29-12.673 45.743-55.561 21.592 2.2-5.765 56.589Zm-40.549-4.13 22.723 2.315 3.63-35.636-26.353 33.321ZM181.49 49.262c5.105.52 9.702 1.876 13.791 4.067 4.174 2.2 7.575 5.335 10.204 9.407 2.722 3.996 4.63 8.923 5.724 14.782 1.178 5.867 1.367 12.733.566 20.596-.81 7.947-2.341 14.679-4.595 20.197-2.253 5.517-5.073 9.963-8.461 13.337-3.388 3.374-7.348 5.717-11.879 7.031-4.447 1.322-9.307 1.714-14.579 1.177-5.273-.537-9.996-1.905-14.169-4.105-4.089-2.192-7.495-5.285-10.216-9.281-2.638-3.988-4.504-8.911-5.599-14.77-1.011-5.85-1.111-12.749-.301-20.695.801-7.864 2.328-14.554 4.581-20.072 2.253-5.518 5.116-9.96 8.587-13.325 3.48-3.448 7.444-5.834 11.891-7.156 4.448-1.322 9.266-1.718 14.455-1.19Zm-7.593 74.533c5.356.546 9.771-1.287 13.244-5.497 3.473-4.21 5.742-11.544 6.807-22 1.057-10.373.309-17.971-2.244-22.795-2.544-4.908-6.494-7.635-11.85-8.18-5.44-.554-9.901 1.316-13.383 5.61-3.389 4.219-5.612 11.514-6.669 21.887-1.065 10.457-.363 18.093 2.106 22.908 2.553 4.824 6.549 7.513 11.989 8.067ZM281.003 117.716l10.043 1.022-1.598 15.685-10.043-1.023-1.687 16.563-17.827-1.816 1.688-16.562-43.436-4.424 1.291-12.674 45.741-55.56 21.593 2.199-5.765 56.59Zm-40.549-4.13 22.723 2.314 3.63-35.635-26.353 33.321Z" fill="#fff"/><path fill-rule="evenodd" clip-rule="evenodd" d="m132.702 101.89-1.743 17.112-10.043-1.023-1.687 16.563-19.253-1.961 1.687-16.563-43.436-4.424 1.385-13.602 46.124-56.025 22.688 2.31-5.765 56.591 10.043 1.022Zm-30.253 13.487-1.687 16.563 17.826 1.816 1.687-16.563 10.043 1.023 1.598-15.685-10.043-1.023 5.765-56.59-21.592-2.199L60.304 98.28l-1.291 12.673 43.436 4.424Zm55.309 21.008-.005-.002c-4.195-2.249-7.686-5.422-10.47-9.51l-.005-.008c-2.703-4.084-4.598-9.103-5.706-15.033l-.002-.01c-1.024-5.932-1.122-12.9-.308-20.89.806-7.91 2.345-14.672 4.631-20.27 2.282-5.587 5.193-10.118 8.749-13.566 3.559-3.525 7.623-5.974 12.189-7.331 4.548-1.352 9.461-1.753 14.731-1.216 5.188.528 9.877 1.908 14.056 4.147 4.282 2.258 7.772 5.476 10.465 9.644 2.786 4.092 4.722 9.113 5.83 15.041 1.195 5.955 1.381 12.894.575 20.805-.814 7.994-2.357 14.797-4.644 20.396-2.281 5.585-5.149 10.118-8.619 13.574-3.472 3.457-7.535 5.863-12.183 7.211-4.548 1.351-9.502 1.748-14.854 1.203-5.353-.546-10.167-1.937-14.43-4.185Zm29.082 2.294c4.531-1.314 8.491-3.657 11.879-7.031 3.388-3.374 6.208-7.82 8.461-13.337 2.254-5.518 3.785-12.25 4.595-20.197.801-7.864.612-14.729-.566-20.596-1.094-5.859-3.002-10.786-5.724-14.782-2.629-4.072-6.03-7.207-10.204-9.407-4.089-2.191-8.686-3.547-13.791-4.067-5.189-.529-10.007-.132-14.455 1.19-4.447 1.322-8.411 3.708-11.891 7.157-3.471 3.365-6.334 7.806-8.587 13.324s-3.78 12.208-4.581 20.072c-.81 7.947-.71 14.845.301 20.695 1.095 5.859 2.961 10.782 5.599 14.77 2.721 3.996 6.127 7.089 10.216 9.281 4.173 2.2 8.896 3.568 14.169 4.105 5.272.537 10.132.145 14.579-1.177Zm4.23-64.84-.002-.006c-2.437-4.7-6.179-7.276-11.287-7.797-5.196-.529-9.42 1.24-12.752 5.347-3.253 4.05-5.46 11.169-6.514 21.51-1.062 10.424-.339 17.882 2.029 22.504 2.44 4.609 6.225 7.155 11.426 7.685 5.113.521 9.295-1.212 12.618-5.24 3.332-4.039 5.585-11.191 6.647-21.617 1.053-10.34.285-17.758-2.165-22.387Zm-24.599-2.906c-3.389 4.219-5.612 11.514-6.669 21.887-1.065 10.457-.363 18.093 2.106 22.908 2.553 4.824 6.549 7.513 11.989 8.067 5.356.546 9.771-1.287 13.244-5.497 3.473-4.21 5.742-11.544 6.807-22 1.057-10.373.309-17.971-2.244-22.795-2.544-4.908-6.494-7.635-11.85-8.18-5.44-.554-9.901 1.316-13.383 5.61Zm125.361 47.165-1.743 17.111-10.043-1.023-1.687 16.563-19.254-1.961 1.688-16.563-43.437-4.424 1.386-13.602 46.124-56.025 22.688 2.311-5.765 56.59 10.043 1.023Zm-30.253 13.487-1.688 16.562 17.827 1.816 1.687-16.563 10.043 1.023 1.598-15.685-10.043-1.022 5.765-56.59-21.593-2.2-45.741 55.561-1.291 12.674 43.436 4.424ZM104.047 99.693l-22.722-2.315 26.352-33.32-3.63 35.635Zm-21.349-2.895 20.708 2.109 3.309-32.477-24.017 30.367ZM263.177 115.9l-22.723-2.314 26.353-33.321-3.63 35.635Zm2.667-33.262-24.016 30.367 20.708 2.109 3.308-32.476Z" fill="#000"/></svg>