<svg xmlns="http://www.w3.org/2000/svg" width="342" height="140" viewBox="0 0 342 140" fill="none">
    <g>
        <g>
            <path stroke="#fff" stroke-linecap="round" stroke-width="3"
                  d="M483.587 34.618C408.21 20.15 253.384 9.807 237.102 84.165c-16.282 74.359 18.787 133.319 42.364 145.667 11.87 6.217 31.842 6.77 33.283-20.785C314.55 174.603 271.06 79.986 195.36 62.833 119.66 45.68 69.995 69.907 44.636 104.65c-29.809 40.84-20.087 88.051-11.906 116.435 9.171 33.402 40.896 104.714 97.614 82.563 25.208-9.845 30.591-36.979 30.036-49.557-1.631-36.996-43.183-134.938-133.285-153.439-93.968-19.294-167.429 148.443-197.303 240.568"
                  opacity=".25"/>
        </g>
        <path fill="#fff"
              d="M138.104 54.643 228.311 39.7l2.135 12.887 12.887-2.135 6.404 38.66-51.547 8.54 2.135 12.886 38.66-6.404 2.135 12.887-25.774 4.269 2.135 12.887-12.887 2.135 2.135 12.887-77.321 12.808-12.808-77.32 12.886-2.135-2.134-12.887 12.886-2.135-2.134-12.887Zm19.291 36.526 12.887-2.135-2.135-12.887-12.887 2.135 2.135 12.887Z"/>
        <path fill="#343434" fill-rule="evenodd"
              d="m137.385 54.126 91.445-15.148 2.135 12.886 12.887-2.134 6.609 39.897-51.547 8.54 1.929 11.649 38.661-6.404 2.34 14.124-25.774 4.269 2.135 12.887-12.887 2.135 2.135 12.886-78.558 13.014-13.014-78.558 12.887-2.135-2.135-12.887 12.887-2.134-2.135-12.887Zm2.856 13.403-12.887 2.135 2.135 12.886-12.887 2.135 12.809 77.321 77.321-12.809-2.135-12.886 12.887-2.135-2.135-12.887 25.773-4.27-2.134-12.886-38.661 6.404-2.134-12.887 51.547-8.539-6.405-38.66-12.886 2.134-2.135-12.886-90.208 14.943 2.135 12.887Zm30.043 21.504-12.887 2.135-2.134-12.887 12.886-2.135 2.135 12.887Zm-.721-.516-1.93-11.65-11.649 1.93 1.929 11.65 11.65-1.93Z"
              clip-rule="evenodd"/>
        <path fill="#fff"
              d="m104.985 73.48-12.887 2.134 24.499 9.074 12.887-2.135-24.499-9.074Z"/>
        <path fill="#343434" fill-rule="evenodd"
              d="M91.478 75.552a.627.627 0 0 1 .522-.559l12.887-2.134a.628.628 0 0 1 .32.03l24.499 9.074a.627.627 0 0 1-.116 1.207l-12.887 2.135a.625.625 0 0 1-.32-.031L91.885 76.2a.627.627 0 0 1-.407-.648Zm.625.06 24.498 9.074 12.887-2.135-24.499-9.074-12.886 2.135Z"
              clip-rule="evenodd"/>
        <path fill="#fff"
              d="m102.854 60.59 2.135 12.887 24.498 9.074-2.134-12.887-24.499-9.074Z"/>
        <path fill="#343434" fill-rule="evenodd"
              d="M104.776 74.063a.628.628 0 0 1-.401-.485L102.24 60.69a.629.629 0 0 1 .836-.69l24.499 9.073a.628.628 0 0 1 .401.486l2.134 12.887a.627.627 0 0 1-.836.69l-24.498-9.074Zm.217-.588-2.134-12.886 24.498 9.073 2.135 12.887-24.499-9.074Z"
              clip-rule="evenodd"/>
        <path fill="#fff"
              d="m115.745 58.455-12.887 2.134 24.498 9.074 12.887-2.135-24.498-9.073Z"/>
        <path fill="#343434" fill-rule="evenodd"
              d="M102.228 60.532a.628.628 0 0 1 .522-.559l12.887-2.135a.625.625 0 0 1 .32.03l24.499 9.075a.628.628 0 0 1-.116 1.206l-12.887 2.135a.625.625 0 0 1-.32-.03l-24.498-9.074a.627.627 0 0 1-.407-.648Zm.625.06 24.498 9.073 12.887-2.134-24.499-9.074-12.886 2.135Z"
              clip-rule="evenodd"/>
        <path fill="#fff"
              d="m113.609 45.567 2.135 12.887 24.498 9.074-2.135-12.887-24.498-9.074Z"/>
        <path fill="#343434" fill-rule="evenodd"
              d="M115.526 59.043a.628.628 0 0 1-.401-.486L112.99 45.67a.629.629 0 0 1 .836-.69l24.499 9.074a.628.628 0 0 1 .401.485l2.134 12.887a.627.627 0 0 1-.836.69l-24.498-9.073Zm.217-.588-2.134-12.887 24.498 9.074 2.135 12.887-24.499-9.074Z"
              clip-rule="evenodd"/>
        <path fill="#fff"
              d="m92.098 75.614 12.809 77.321 24.498 9.074-12.809-77.321-24.498-9.074Z"/>
        <path fill="#343434" fill-rule="evenodd"
              d="M104.693 153.521a.627.627 0 0 1-.401-.485L91.484 75.715a.627.627 0 0 1 .836-.69l24.498 9.073a.628.628 0 0 1 .401.486l12.809 77.321a.627.627 0 0 1-.837.69l-24.498-9.074Zm.218-.588-12.809-77.32 24.499 9.073 12.808 77.321-24.498-9.074Z"
              clip-rule="evenodd"/>
        <path fill="#fff"
              d="m132.893 82.097-2.135-12.887 24.499 9.074 2.134 12.886-24.498-9.073Z"/>
        <path fill="#343434" fill-rule="evenodd"
              d="M130.363 68.725a.627.627 0 0 1 .617-.105l24.499 9.074a.628.628 0 0 1 .401.486l2.134 12.886a.626.626 0 0 1-.836.69l-24.498-9.073a.628.628 0 0 1-.401-.486l-2.135-12.886a.629.629 0 0 1 .219-.586Zm2.534 13.37-2.134-12.887 24.498 9.074 2.135 12.887-24.499-9.074Z"
              clip-rule="evenodd"/>
        <path fill="#fff"
              d="m130.766 69.206 12.887-2.135 24.499 9.074-12.887 2.135-24.499-9.074Z"/>
        <path fill="#343434" fill-rule="evenodd"
              d="M143.55 66.453a.625.625 0 0 1 .32.03l24.499 9.074a.628.628 0 0 1-.116 1.207l-12.886 2.135a.63.63 0 0 1-.321-.031l-24.498-9.074a.627.627 0 0 1 .115-1.206l12.887-2.135Zm-12.784 2.753 24.498 9.074 12.887-2.135-24.499-9.074-12.886 2.135Z"
              clip-rule="evenodd"/>
        <path fill="#fff"
              d="m145.785 79.96-12.887 2.135 24.499 9.074 12.886-2.135-24.498-9.074Z"/>
        <path fill="#343434" fill-rule="evenodd"
              d="M132.273 82.035a.627.627 0 0 1 .522-.559l12.887-2.135a.628.628 0 0 1 .32.031l24.498 9.074a.627.627 0 0 1-.115 1.207l-12.887 2.134a.626.626 0 0 1-.32-.03l-24.498-9.074a.627.627 0 0 1-.407-.648Zm.624.06 24.499 9.074 12.887-2.135-24.499-9.074-12.887 2.135Z"
              clip-rule="evenodd"/>
        <path fill="#fff"
              d="m143.644 67.075 2.135 12.887 24.499 9.074-2.135-12.887-24.499-9.074Z"/>
        <path fill="#343434" fill-rule="evenodd"
              d="M145.566 80.549a.628.628 0 0 1-.401-.486l-2.135-12.887a.627.627 0 0 1 .837-.69l24.498 9.074a.628.628 0 0 1 .401.485l2.135 12.887a.627.627 0 0 1-.837.69l-24.498-9.073Zm.218-.588-2.135-12.887 24.498 9.074 2.135 12.886-24.498-9.073Z"
              clip-rule="evenodd"/>
        <path fill="#fff"
              d="M203.815 30.625 113.608 45.57l24.498 9.074L228.314 39.7l-24.499-9.074Z"/>
        <path fill="#343434" fill-rule="evenodd"
              d="M112.983 45.51a.627.627 0 0 1 .521-.56l90.208-14.943a.625.625 0 0 1 .32.03l24.499 9.074a.628.628 0 0 1-.116 1.207L138.208 55.26a.625.625 0 0 1-.32-.03l-24.499-9.074a.628.628 0 0 1-.406-.648Zm.624.059 24.498 9.074 90.208-14.944-24.498-9.074-90.208 14.944Z"
              clip-rule="evenodd"/>
        <path fill="#fff"
              d="m104.911 152.933 77.321-12.809 24.499 9.074-77.321 12.809-24.499-9.074Z"/>
        <path fill="#343434" fill-rule="evenodd"
              d="M182.129 139.506a.627.627 0 0 1 .321.031l24.498 9.073a.627.627 0 0 1-.115 1.207l-77.321 12.809a.622.622 0 0 1-.32-.031l-24.499-9.074a.626.626 0 0 1 .115-1.206l77.321-12.809Zm-77.218 13.427 24.498 9.074 77.321-12.809-24.498-9.073-77.321 12.808Z"
              clip-rule="evenodd"/>
        <path fill="#fff"
              d="m175.824 101.466-2.134-12.887 24.498 9.074 2.135 12.887-24.499-9.074Z"/>
        <path fill="#343434" fill-rule="evenodd"
              d="M173.29 88.096a.627.627 0 0 1 .617-.105l24.498 9.074a.628.628 0 0 1 .401.486l2.135 12.886a.626.626 0 0 1-.836.691l-24.499-9.074a.628.628 0 0 1-.401-.486l-2.134-12.886a.626.626 0 0 1 .219-.586Zm2.534 13.37-2.135-12.887 24.499 9.074 2.134 12.887-24.498-9.074Z"
              clip-rule="evenodd"/>
        <path fill="#fff"
              d="m205.947 43.513-2.135-12.886 24.499 9.073 2.135 12.887-24.499-9.074Z"/>
        <path fill="#343434" fill-rule="evenodd"
              d="M203.413 30.143a.627.627 0 0 1 .617-.104l24.498 9.074a.628.628 0 0 1 .401.485l2.135 12.887a.627.627 0 0 1-.837.69l-24.498-9.073a.628.628 0 0 1-.401-.486l-2.135-12.887a.627.627 0 0 1 .22-.586Zm2.534 13.37-2.135-12.886L228.31 39.7l2.135 12.886-24.498-9.074Z"
              clip-rule="evenodd"/>
        <path fill="#fff"
              d="m218.834 41.379-12.887 2.134 24.499 9.074 12.886-2.135-24.498-9.073Z"/>
        <path fill="#343434" fill-rule="evenodd"
              d="M205.322 43.454a.628.628 0 0 1 .522-.56l12.887-2.134a.626.626 0 0 1 .32.03l24.499 9.074a.628.628 0 0 1-.116 1.207l-12.887 2.135a.626.626 0 0 1-.32-.03L205.729 44.1a.627.627 0 0 1-.407-.647Zm.625.06 24.498 9.073 12.887-2.135-24.499-9.073-12.886 2.134Z"
              clip-rule="evenodd"/>
        <path fill="#fff"
              d="m182.233 140.124-2.134-12.887 24.498 9.074 2.135 12.887-24.499-9.074Z"/>
        <path fill="#343434" fill-rule="evenodd"
              d="M179.694 126.756a.63.63 0 0 1 .617-.105l24.498 9.074a.628.628 0 0 1 .401.486l2.135 12.887a.627.627 0 0 1-.836.69l-24.499-9.074a.627.627 0 0 1-.401-.485l-2.134-12.887a.626.626 0 0 1 .219-.586Zm2.534 13.37-2.135-12.887 24.499 9.074 2.134 12.887-24.498-9.074Z"
              clip-rule="evenodd"/>
        <path fill="#fff"
              d="m173.698 88.575 51.547-8.54 24.498 9.075-51.547 8.539-24.498-9.074Z"/>
        <path fill="#343434" fill-rule="evenodd"
              d="M225.137 79.42a.625.625 0 0 1 .32.03l24.499 9.074a.628.628 0 0 1-.116 1.206l-51.547 8.54a.625.625 0 0 1-.32-.031l-24.499-9.074a.628.628 0 0 1 .116-1.207l51.547-8.539Zm-51.445 9.157 24.499 9.074 51.547-8.54-24.499-9.073-51.547 8.539Z"
              clip-rule="evenodd"/>
        <path fill="#fff"
              d="m214.485 95.061-38.661 6.405 24.499 9.074 38.66-6.405-24.498-9.074Z"/>
        <path fill="#343434" fill-rule="evenodd"
              d="M175.2 101.406a.627.627 0 0 1 .522-.559l38.66-6.404a.624.624 0 0 1 .32.03l24.499 9.074a.628.628 0 0 1-.116 1.207l-38.66 6.404a.622.622 0 0 1-.32-.03l-24.499-9.074a.628.628 0 0 1-.406-.648Zm.624.06 24.498 9.074 38.661-6.405-24.499-9.073-38.66 6.404Z"
              clip-rule="evenodd"/>
        <path fill="#fff"
              d="m180.102 127.235 12.886-2.135 24.499 9.074-12.887 2.135-24.498-9.074Z"/>
        <path fill="#343434" fill-rule="evenodd"
              d="M192.885 124.482a.627.627 0 0 1 .321.03l24.498 9.074a.628.628 0 0 1-.115 1.207l-12.887 2.135a.633.633 0 0 1-.32-.031l-24.499-9.074a.628.628 0 0 1 .116-1.207l12.886-2.134Zm-12.784 2.753 24.499 9.074 12.886-2.135-24.498-9.074-12.887 2.135Z"
              clip-rule="evenodd"/>
        <path fill="#fff"
              d="m192.988 125.101-2.135-12.887 24.499 9.074 2.134 12.887-24.498-9.074Z"/>
        <path fill="#343434" fill-rule="evenodd"
              d="M190.453 111.731a.628.628 0 0 1 .617-.105l24.499 9.074a.628.628 0 0 1 .401.486l2.134 12.886a.626.626 0 0 1-.836.691l-24.498-9.074a.625.625 0 0 1-.401-.486l-2.135-12.886a.626.626 0 0 1 .219-.586Zm2.534 13.37-2.134-12.887 24.498 9.074 2.135 12.887-24.499-9.074Z"
              clip-rule="evenodd"/>
        <path fill="#fff"
              d="m190.847 112.217 25.774-4.269 24.498 9.074-25.774 4.269-24.498-9.074Z"/>
        <path fill="#343434" fill-rule="evenodd"
              d="M216.518 107.329a.623.623 0 0 1 .32.031l24.498 9.074a.626.626 0 0 1-.115 1.206l-25.774 4.27a.623.623 0 0 1-.32-.031l-24.498-9.074a.627.627 0 0 1 .115-1.206l25.774-4.27Zm-25.672 4.888 24.499 9.074 25.773-4.269-24.498-9.074-25.774 4.269Z"
              clip-rule="evenodd"/>
        <path fill="#fff"
              d="m225.237 80.039-6.404-38.66 24.498 9.073 6.405 38.66-24.499-9.073Z"/>
        <path fill="#343434" fill-rule="evenodd"
              d="M218.438 40.894a.627.627 0 0 1 .617-.105l24.498 9.074a.624.624 0 0 1 .401.486l6.405 38.66a.627.627 0 0 1-.837.69l-24.498-9.074a.628.628 0 0 1-.401-.485l-6.404-38.66a.626.626 0 0 1 .219-.586Zm6.804 39.143-6.405-38.66 24.499 9.074 6.404 38.66-24.498-9.074Z"
              clip-rule="evenodd"/>
        <path fill="#fff"
              d="m216.629 107.943-2.135-12.886 24.498 9.073 2.135 12.887-24.498-9.074Z"/>
        <path fill="#343434" fill-rule="evenodd"
              d="M214.089 94.575a.628.628 0 0 1 .617-.104l24.499 9.074a.627.627 0 0 1 .401.485l2.134 12.887a.627.627 0 0 1-.836.69l-24.498-9.074a.623.623 0 0 1-.401-.485l-2.135-12.887a.627.627 0 0 1 .219-.586Zm2.534 13.37-2.134-12.886 24.498 9.074 2.135 12.886-24.499-9.074Z"
              clip-rule="evenodd"/>
        <path fill="#fff"
              d="m113.604 45.57 90.208-14.944 2.135 12.887 12.886-2.134 6.405 38.66-51.548 8.54 2.135 12.886 38.661-6.404 2.134 12.886-25.773 4.27 2.135 12.887-12.887 2.134 2.135 12.887-77.321 12.809L92.1 75.614l12.887-2.136-2.135-12.886 12.887-2.135-2.135-12.887Zm19.291 36.526 12.887-2.135-2.135-12.887-12.886 2.135 2.134 12.887Z"/>
        <path fill="#343434" fill-rule="evenodd"
              d="m112.886 45.053 91.444-15.148 2.135 12.887 12.887-2.135 6.609 39.898-51.547 8.539 1.93 11.649 38.66-6.404 2.34 14.124-25.774 4.27 2.135 12.886-12.887 2.135 2.135 12.887-78.558 13.014-13.013-78.558 12.886-2.135-2.134-12.887 12.886-2.135-2.134-12.887Zm2.856 13.403-12.887 2.135 2.134 12.887-12.886 2.135 12.808 77.321 77.321-12.809-2.135-12.887 12.887-2.135-2.135-12.887 25.774-4.269-2.135-12.887-38.66 6.404-2.135-12.886 51.547-8.54-6.404-38.66-12.887 2.135-2.135-12.887-90.207 14.944 2.135 12.886Zm30.043 21.504-12.887 2.135-2.135-12.887 12.887-2.134 2.135 12.886Zm-2.651-12.165-11.65 1.93 1.93 11.65 11.65-1.93-1.93-11.65Z"
              clip-rule="evenodd"/>
    </g>
</svg>
