<svg xmlns="http://www.w3.org/2000/svg" width="414" height="575" fill="none"><g fill="#fff" opacity=".1"><path fill-rule="evenodd" d="m141.386 224.914-24.473 33.466c-6.939 9.49-5.032 22.74 4.193 29.904a21.786 21.786 0 0 0 4.457 2.679c9.133 4.093 20.192 1.406 26.337-6.998l24.473-33.466c6.657-9.104 5.172-21.669-3.105-29a21.983 21.983 0 0 0-4.287-2.969c-9.355-4.943-21.165-2.409-27.595 6.384ZM113.11 255.6c-8.601 11.761-6.038 28.269 5.723 36.869a26.353 26.353 0 0 0 5.613 3.141c10.957 4.476 23.956 1.121 31.257-8.864l24.473-33.466c7.929-10.842 6.371-25.718-3.136-34.715a26.616 26.616 0 0 0-4.085-3.174c-11.63-7.351-27.131-4.528-35.372 6.743L113.11 255.6Z" clip-rule="evenodd"/><path d="m138.362 258.728-.303 2.453-.466 3.783 5.774-2.577 3.876 2.835-12.068 5.328-1.56-1.141-.399-.292 1.192-11.573.163-1.589.558.408 3.233 2.365ZM155.723 263.547l-2.694 3.684-9.797-14.102-3.035-4.37-2.12-3.051 2.71-3.706 2.136 3.081 2.997 4.324 9.803 14.14ZM153.284 248.914l.748-6.252-4.37 1.969-1.382.623-3.491-2.552-.364-.266.9-.398 10.817-4.786.314-.139 1.959 1.433-1.319 13.156-3.812-2.788Z"/><path fill-rule="evenodd" d="M84.305.514a2.5 2.5 0 0 1 .467 3.505C55.412 42.401 19.924 103.412 8.63 161.733c-5.642 29.138-5.205 57.397 4.842 81.79 10.016 24.318 29.694 45.069 63.096 59.078 13.79 5.783 27.222 10.612 40.271 14.601.217-8.327 1.255-16.335 3.025-24.014-.348-.231-.692-.47-1.032-.719-11.761-8.6-14.324-25.108-5.723-36.869l24.473-33.466c8.241-11.271 23.742-14.094 35.372-6.743 27.962-21.473 63.006-35.756 97.108-42.342 19.031-3.676 48.865-4.485 76.334 1.49 27.355 5.95 53.186 18.826 62.896 43.225 9.644 24.236 2.608 44.986-9.879 60.845-12.414 15.766-30.303 26.866-43.01 32.298-37.861 16.188-121.701 45.465-234.56 12.996.095 3.479.338 7.014.735 10.606 3.186 28.821 16.305 61.413 43.058 97.525 30.225-31.556 65.853-46.615 89.239-50.795 17.672-3.833 44.315-6.672 66.793-2.6 11.253 2.038 21.689 5.848 29.414 12.345 7.816 6.573 12.705 15.777 12.953 28.158.251 12.537-5.341 22.349-13.627 29.898-8.23 7.498-19.175 12.836-29.95 16.632-10.803 3.805-21.606 6.119-29.688 7.482a195.603 195.603 0 0 1-9.794 1.405 133.92 133.92 0 0 1-3.499.362l-.145.013-.049.004h-.016l-.036.004-.012.002-.178.017c-.156.016-.382.037-.677.063-.589.051-1.45.12-2.555.19-2.209.14-5.394.286-9.324.313-7.855.056-18.713-.361-30.729-2.256-22.613-3.565-49.703-12.425-68.364-33.624-26.336 29.281-47.754 72.157-51.2 132.864a2.5 2.5 0 0 1-4.992-.284c3.54-62.365 25.707-106.421 52.97-136.475l-.018-.023-.015-.021c-27.478-36.897-41.201-70.543-44.528-100.65a133.142 133.142 0 0 1-.799-12.638c-13.654-4.12-27.722-9.146-42.176-15.208-34.476-14.459-55.208-36.106-65.785-61.784-10.545-25.602-10.881-54.933-5.128-84.645C15.22 101.404 51.201 39.678 80.801.981a2.5 2.5 0 0 1 3.504-.467Zm50.266 255.441-.163 1.589-1.192 11.573.399.292 1.56 1.141 12.068-5.328-3.876-2.835-5.774 2.577.466-3.783.303-2.453-3.233-2.365-.558-.408Zm5.626-7.196-2.12-3.051 2.71-3.706 2.136 3.081 2.997 4.324 9.803 14.14-2.694 3.684-9.797-14.102-3.035-4.37Zm4.228-6.323.364.266 3.491 2.552 1.382-.623 4.37-1.969-.748 6.252 3.812 2.788 1.319-13.156-1.959-1.433-.314.139-10.817 4.786-.9.398Zm24.556-23.906c-9.355-4.943-21.165-2.409-27.595 6.384l-24.473 33.466c-6.939 9.49-5.032 22.74 4.193 29.904a21.786 21.786 0 0 0 4.457 2.679c9.133 4.093 20.192 1.406 26.337-6.998l24.473-33.466c6.657-9.104 5.172-21.669-3.105-29a21.983 21.983 0 0 0-4.287-2.969ZM121.81 318.687c.12-8.004 1.027-15.698 2.636-23.077 10.957 4.476 23.956 1.121 31.257-8.864l24.473-33.466c7.929-10.842 6.371-25.718-3.136-34.715 27.019-20.443 60.815-34.203 93.971-40.607 18.402-3.554 47.551-4.356 74.323 1.467 26.887 5.848 50.555 18.179 59.313 40.188 8.823 22.172 2.523 41.064-9.161 55.903-11.758 14.933-28.876 25.59-41.047 30.794-37.419 15.999-120.544 45.068-232.629 12.377Zm46.997 117.268c17.552 20.204 43.455 28.866 65.729 32.377 11.681 1.842 22.258 2.25 29.915 2.195a163.31 163.31 0 0 0 9.043-.303c1.063-.068 1.885-.133 2.437-.181a42.444 42.444 0 0 0 .774-.073l.035-.004h.008l.038-.005.039-.003h.001l.05-.004.096-.008.076-.006c.155-.013.387-.034.692-.063.609-.059 1.51-.151 2.659-.285 2.299-.267 5.59-.702 9.541-1.368 7.911-1.335 18.414-3.59 28.857-7.268 10.472-3.689 20.714-8.751 28.244-15.612 7.474-6.809 12.212-15.317 11.996-26.102-.219-10.942-4.461-18.787-11.172-24.431-6.801-5.721-16.288-9.296-27.087-11.252-21.605-3.914-47.557-1.188-64.887 2.576l-.046.01-.046.008c-22.57 4.023-57.443 18.719-86.992 49.802Z" clip-rule="evenodd"/></g></svg>