<svg xmlns="http://www.w3.org/2000/svg" width="746" height="1366" fill="none"><g fill="#fff" opacity=".1"><path d="M650.701 491.807c.028.04.058.079.087.118a8.59 8.59 0 0 0 1.394 1.446 6.236 6.236 0 0 0 1.829 1.042 5.045 5.045 0 0 0 2.121.18c.74-.105 1.494-.436 2.262-.994.984-.716 1.619-1.509 1.905-2.38.285-.871.228-1.773-.171-2.708l4.381-3.185c.729 1.179 1.17 2.364 1.322 3.554.047.371.071.737.072 1.099a8.182 8.182 0 0 1-.328 2.34 9.172 9.172 0 0 1-1.55 3.078 11.978 11.978 0 0 1-2.569 2.519c-1.368.995-2.755 1.684-4.16 2.068-1.388.371-2.751.444-4.089.218a9.504 9.504 0 0 1-2.991-1.094 11.149 11.149 0 0 1-.811-.504c-1.225-.844-2.348-1.966-3.367-3.368a18.069 18.069 0 0 1-.342-.488c-.826-1.227-1.413-2.467-1.763-3.722-.395-1.421-.494-2.803-.297-4.146.197-1.342.687-2.617 1.468-3.822.769-1.223 1.813-2.314 3.131-3.272a11.812 11.812 0 0 1 3.188-1.668c1.125-.383 2.235-.54 3.332-.47 1.101.041 2.178.329 3.231.865 1.069.523 2.073 1.324 3.01 2.403l-4.28 3.112c-.783-.655-1.616-.994-2.499-1.015-.878-.05-1.818.289-2.819 1.017-.768.558-1.316 1.173-1.643 1.845a4.428 4.428 0 0 0-.519 2.023c.01.681.147 1.36.409 2.036a9.262 9.262 0 0 0 1.056 1.873Zm38.231-24.966 2.74 3.769.336.461-3.93 2.858-.111-.153-2.965-4.077-4.106 2.985-.399-.55-2.476-3.406 4.105-2.985-3.04-4.18 3.93-2.857 3.04 4.18 4.105-2.985 1.762 2.422 1.114 1.533-4.105 2.985Z"/><path d="M711.499 485.826c13.825-10.052 16.883-29.408 6.831-43.233l-.039-.054a176.712 176.712 0 0 1-3.603 4.514c7.242 11.251 4.519 26.335-6.439 34.303l-48.276 35.102c-10.924 7.943-26.051 5.921-34.537-4.352a594.02 594.02 0 0 1-5.075 2.491c10.151 13.397 29.205 16.261 42.862 6.331l48.276-35.102Z"/><path fill-rule="evenodd" d="M110.833 4.542a3 3 0 0 0-5.148-3.083C60.897 76.246 9.501 193.182 1.168 300.856-3 354.722 3.588 406.522 27.428 449.583c23.889 43.148 64.926 77.204 128.995 95.799 27.333 7.932 53.743 14.053 79.202 18.61a236.187 236.187 0 0 0 4.118 23.256c12.012 52.568 43.185 109.405 99.572 169.309l.021.022.021.021c.292.298.585.594.878.888-42.642 58.844-73.418 141.731-66.974 253.662 2.762 69.57 27.706 237.67 105.751 353.53a3.008 3.008 0 0 0 4.164.81 3.006 3.006 0 0 0 .812-4.17c-77.145-114.52-101.994-281.33-104.733-350.44l-.001-.03-.001-.02c-6.336-109.951 23.707-191.338 65.351-249.139 37.351 34.47 87.68 44.877 129.02 46.619 21.702.915 41.058-.552 54.988-2.246a299.556 299.556 0 0 0 16.471-2.447c1.943-.348 3.452-.643 4.481-.853l.193-.039.174-.036.105-.022.511-.107.194-.041.307-.067.032-.008.023-.005.026-.005.063-.012.063-.013.143-.028.13-.027c.074-.014.156-.031.246-.05l.079-.016.326-.067.636-.134c1.122-.238 2.758-.597 4.833-1.082a349.867 349.867 0 0 0 17.095-4.478c14.077-4.06 32.772-10.353 51.146-19.278 18.344-8.909 36.564-20.534 49.515-35.342 13.011-14.878 20.768-33.065 17.827-54.809-2.916-21.557-13.276-36.558-28.192-46.422-14.797-9.785-33.888-14.397-54.224-15.719-40.64-2.642-87.354 7.79-117.97 18.185-40.862 12.212-101.617 46.515-149.002 109.462l-.179-.182c-55.85-59.338-86.358-115.249-98.071-166.51a230.694 230.694 0 0 1-3.778-20.84c174.285 29.64 303.388-14.012 378.546-50.475a594.02 594.02 0 0 0 5.075-2.491 25.87 25.87 0 0 1-3.273-5.073c-5.316-10.88-2.224-24.332 7.908-31.699l48.276-35.102c10.076-7.326 23.727-6.174 32.445 2.109a25.608 25.608 0 0 1 3.896 4.712 176.712 176.712 0 0 0 3.603-4.514 160.648 160.648 0 0 0 9.481-13.661c18.814-30.439 26.96-68.223 5.128-108.799-21.932-40.76-69.949-58.31-119.778-63.301-49.969-5.005-102.776 2.495-135.764 12.86-91.104 28.627-182.274 89.916-222.349 174.498-16.26 34.317-24.082 72.428-20.077 113.633-24.717-4.485-50.338-10.459-76.837-18.15-62.73-18.205-102.385-51.341-125.417-92.942C9.598 404.989 3.036 354.483 7.15 301.319 15.384 194.936 66.288 78.921 110.833 4.542ZM691.672 470.61l-2.74-3.769 4.105-2.985-1.114-1.533-1.762-2.422-4.105 2.985-3.04-4.18-3.93 2.857 3.04 4.18-4.105 2.985 2.476 3.406.399.55 4.106-2.985 2.965 4.077.111.153 3.93-2.858-.336-.461Zm-25.986 12.351a208.464 208.464 0 0 0 12.188-8.763l.325.447-4.106 2.985 3.076 4.23-3.93 2.858-3.076-4.23-4.105 2.985-.372-.512Zm-14.985 8.846c.028.04.058.079.087.118a8.59 8.59 0 0 0 1.394 1.446 6.236 6.236 0 0 0 1.829 1.042 5.045 5.045 0 0 0 2.121.18c.74-.105 1.494-.436 2.262-.994.984-.716 1.619-1.509 1.905-2.38.285-.871.228-1.773-.171-2.708l4.381-3.185c.729 1.179 1.17 2.364 1.322 3.554.047.371.071.737.072 1.099a8.182 8.182 0 0 1-.328 2.34 9.172 9.172 0 0 1-1.55 3.078 11.978 11.978 0 0 1-2.569 2.519c-1.368.995-2.755 1.684-4.16 2.068-1.388.371-2.751.444-4.089.218a9.504 9.504 0 0 1-2.991-1.094 11.149 11.149 0 0 1-.811-.504c-1.225-.844-2.348-1.966-3.367-3.368a18.069 18.069 0 0 1-.342-.488c-.826-1.227-1.413-2.467-1.763-3.722-.395-1.421-.494-2.803-.297-4.146.197-1.342.687-2.617 1.468-3.822.769-1.223 1.813-2.314 3.131-3.272a11.812 11.812 0 0 1 3.188-1.668c1.125-.383 2.235-.54 3.332-.47 1.101.041 2.178.329 3.231.865 1.069.523 2.073 1.324 3.01 2.403l-4.28 3.112c-.783-.655-1.616-.994-2.499-1.015-.878-.05-1.818.289-2.819 1.017-.768.558-1.316 1.173-1.643 1.845a4.428 4.428 0 0 0-.519 2.023c.01.681.147 1.36.409 2.036a9.262 9.262 0 0 0 1.056 1.873Zm63.523-53.825c2.997-3.939 5.83-8.03 8.444-12.259 17.994-29.112 25.515-64.577 4.948-102.801-20.469-38.041-65.831-55.24-115.091-60.174-49.121-4.92-101.113 2.48-133.368 12.614-90.154 28.328-179.612 88.789-218.726 171.343-16.032 33.836-23.633 71.425-19.358 112.151 173.175 29.887 301.403-13.23 376.126-49.393-6.479-13.247-2.716-29.628 9.622-38.599l48.276-35.102c12.123-8.815 28.5-7.548 39.127 2.22ZM473.876 802.316c-40.938-1.726-89.816-12.063-125.697-45.492 46.637-62.279 106.531-96.037 146.437-107.949l.054-.016.053-.018c30.218-10.266 76.124-20.47 115.703-17.897 19.785 1.286 37.712 5.749 51.303 14.737 13.473 8.909 22.872 22.379 25.556 42.222 2.659 19.655-4.254 36.169-16.398 50.054-12.203 13.954-29.623 25.154-47.619 33.895-17.964 8.725-36.31 14.907-50.187 18.91a343.457 343.457 0 0 1-16.8 4.401c-2.031.475-3.627.825-4.711 1.055l-.581.122-.384.079-.268.055-.31.062-.076.015-.017.003-.004.001-.046.009-.045.01-.003.001-.014.003-.066.015-.148.032-.128.028-.461.097-.652.135c-.985.2-2.448.487-4.341.825a292.959 292.959 0 0 1-16.138 2.398c-13.695 1.666-32.714 3.105-54.012 2.208Z" clip-rule="evenodd"/><path d="m667.288 476.533-4.106 2.984 2.504 3.444a208.464 208.464 0 0 0 12.188-8.763l-2.551-3.508-4.105 2.985-3.04-4.18-3.93 2.857 3.04 4.181Z"/></g></svg>