<svg xmlns="http://www.w3.org/2000/svg" width="18" height="18" fill="none"><g clip-path="url(#a)"><path fill="#DD2E44" d="M16 2.5h-4v13h4a2 2 0 0 0 2-2v-9a2 2 0 0 0-2-2Z"/><path fill="#265FB5" d="M2 2.5a2 2 0 0 0-2 2v9a2 2 0 0 0 2 2h4v-13H2Z"/><path fill="#FFCC4D" d="M6 2.5h6v13H6v-13Z"/><path fill="#DD2E44" d="M8 7.5h2V9H8V7.5Z"/><path fill="#269" d="M8 9v1l1 .5 1-.5V9H8Z"/><path fill="#A0724A" d="M8 5.5V6h.5v1h1V5.5H8Zm1.5 5-.5.313-.5-.313L8 12l1 .5 1-.5-.5-1.5Zm-2-4L7 6l-.5.5v5l1-1V7H8l-.5-.5ZM11 6l-.5.5-.5.5h.5v3.5l1 1v-5L11 6Z"/><path fill="#FFCC4D" d="M8.117 8.797h.265V9h-.265v-.203Zm1.5 0h.265V9h-.265v-.203Z"/><path fill="#77B255" d="M7.819 11.371c-.053.031-.132-.005-.175-.079L6.527 9.359c-.043-.075-.035-.16.019-.191l.068-.04c.053-.03.131.005.175.08l1.115 1.934c.044.074.035.16-.018.19l-.067.04Z"/><path fill="#FFCC4D" d="M11.409 9.197c.053.03.062.115.019.188l-1.096 1.899c-.043.073-.12.108-.174.077l-.067-.039c-.053-.03-.062-.114-.02-.188l1.097-1.9c.042-.072.12-.108.173-.076l.068.039Z"/><path fill="#DD2E44" d="m8 10.5-.5.5v.5L8 11v-.5Zm2 0v.5l.5.5V11l-.5-.5Z"/><path fill="#FFCC4D" d="M9 8.5 8.5 8v1.479L9 10l.5-.521V8l-.5.5Z"/></g><defs><clipPath id="a"><path fill="#fff" d="M0 0h18v18H0z"/></clipPath></defs></svg>